<?xml version="1.0" encoding="UTF-8" standalone="no"?>
<!-- Created with Inkscape (http://www.inkscape.org/) -->

<svg
   width="210mm"
   height="297mm"
   viewBox="0 0 210 297"
   version="1.1"
   id="svg1"
   inkscape:version="1.3.2 (091e20e, 2023-11-25)"
   sodipodi:docname="razitko_01_okraj.svg"
   xmlns:inkscape="http://www.inkscape.org/namespaces/inkscape"
   xmlns:sodipodi="http://sodipodi.sourceforge.net/DTD/sodipodi-0.dtd"
   xmlns="http://www.w3.org/2000/svg"
   xmlns:svg="http://www.w3.org/2000/svg">
  <sodipodi:namedview
     id="namedview1"
     pagecolor="#ffffff"
     bordercolor="#000000"
     borderopacity="0.25"
     inkscape:showpageshadow="2"
     inkscape:pageopacity="0.0"
     inkscape:pagecheckerboard="0"
     inkscape:deskcolor="#d1d1d1"
     inkscape:document-units="mm"
     inkscape:zoom="2.9279063"
     inkscape:cx="362.20421"
     inkscape:cy="507.01759"
     inkscape:window-width="1499"
     inkscape:window-height="1243"
     inkscape:window-x="0"
     inkscape:window-y="0"
     inkscape:window-maximized="0"
     inkscape:current-layer="layer1" />
  <defs
     id="defs1">
    <clipPath
       clipPathUnits="userSpaceOnUse"
       id="clipPath3">
      <path
         d="M 0,500 H 500 V 0 H 0 Z"
         transform="translate(-303.96071,-430.19951)"
         id="path3" />
    </clipPath>
    <clipPath
       clipPathUnits="userSpaceOnUse"
       id="clipPath5">
      <path
         d="M 0,500 H 500 V 0 H 0 Z"
         transform="translate(-303.96071,-430.19951)"
         id="path5" />
    </clipPath>
    <clipPath
       clipPathUnits="userSpaceOnUse"
       id="clipPath7">
      <path
         d="M 0,500 H 500 V 0 H 0 Z"
         transform="translate(-286.50171,-441.05201)"
         id="path7" />
    </clipPath>
    <clipPath
       clipPathUnits="userSpaceOnUse"
       id="clipPath9">
      <path
         d="M 0,500 H 500 V 0 H 0 Z"
         transform="translate(-279.7732,-376.97291)"
         id="path9" />
    </clipPath>
    <clipPath
       clipPathUnits="userSpaceOnUse"
       id="clipPath11">
      <path
         d="M 0,500 H 500 V 0 H 0 Z"
         transform="translate(-303.96071,-430.19951)"
         id="path11" />
    </clipPath>
    <clipPath
       clipPathUnits="userSpaceOnUse"
       id="clipPath13">
      <path
         d="M 0,500 H 500 V 0 H 0 Z"
         transform="translate(-234.72981,-421.42171)"
         id="path13" />
    </clipPath>
    <clipPath
       clipPathUnits="userSpaceOnUse"
       id="clipPath15">
      <path
         d="M 0,500 H 500 V 0 H 0 Z"
         transform="translate(-265.2703,-421.42171)"
         id="path15" />
    </clipPath>
    <clipPath
       clipPathUnits="userSpaceOnUse"
       id="clipPath17">
      <path
         d="M 0,500 H 500 V 0 H 0 Z"
         transform="translate(-207.3811,-388.47631)"
         id="path17" />
    </clipPath>
    <clipPath
       clipPathUnits="userSpaceOnUse"
       id="clipPath19">
      <path
         d="M 0,500 H 500 V 0 H 0 Z"
         transform="translate(-287.57691,-389.97151)"
         id="path19" />
    </clipPath>
    <clipPath
       clipPathUnits="userSpaceOnUse"
       id="clipPath21">
      <path
         d="M 0,500 H 500 V 0 H 0 Z"
         transform="translate(-212.42361,-389.97151)"
         id="path21" />
    </clipPath>
  </defs>
  <g
     inkscape:label="Layer 1"
     inkscape:groupmode="layer"
     id="layer1">
    <path
       style="color:#000000;fill:#161621;stroke-miterlimit:10;-inkscape-stroke:none"
       d="m -57.011719,-97.353516 c -20.728923,1.001861 -40.611463,11.942724 -52.191411,31.001954 -18.52894,30.494782 -8.81604,70.2806644 21.677739,88.808593 C -57.030625,40.984939 -17.246672,31.274085 1.28125,0.77929687 19.809158,-29.715468 10.098304,-69.501375 -20.396484,-88.029297 c -11.435533,-6.947962 -24.177881,-9.925335 -36.615235,-9.324219 z m 0.134766,2.982422 c 11.857032,-0.570089 24.007883,2.273976 34.923828,8.90625 C 7.1560268,-67.778802 16.404806,-29.888472 -1.28125,-0.77929687 -18.967292,28.329855 -56.859575,37.578634 -85.96875,19.892578 c -29.10816,-17.6860348 -38.35694,-55.576389 -20.66992,-84.685547 11.053782,-18.193233 29.999997,-28.627976 49.761717,-29.578125 z"
       id="path10"
       transform="matrix(0.35277776,0,0,-0.35277776,113.86097,108.97655)" />
  </g>
</svg>
