999
"DXF R12 Output" (www.mydxf.blogspot.com)
 0 
SECTION
 2 
HEADER
 9 
$ACADVER
 1 
AC1009
 9 
$EXTMIN
 10 
 0 
 20 
 0 
 9 
$EXTMAX
 10 
 8.5 
 20 
 11 
 0 
ENDSEC
 0 
SECTION
 2 
ENTITIES
0
LINE
8
Layer 1
10
93.748520
20
153.678821
11
91.025388
21
153.974461
0
LINE
8
Layer 1
10
91.025388
20
153.974461
11
88.361073
21
154.591286
0
LINE
8
Layer 1
10
88.361073
20
154.591286
11
85.786401
21
155.521769
0
LINE
8
Layer 1
10
85.786401
20
155.521769
11
83.332195
21
156.758384
0
LINE
8
Layer 1
10
83.332195
20
156.758384
11
81.029281
21
158.293604
0
LINE
8
Layer 1
10
81.029281
20
158.293604
11
78.908484
21
160.119903
0
LINE
8
Layer 1
10
78.908484
20
160.119903
11
77.000628
21
162.229753
0
LINE
8
Layer 1
10
77.000628
20
162.229753
11
75.336538
21
164.615629
0
LINE
8
Layer 1
10
75.336538
20
164.615629
11
74.227038
21
166.668512
0
LINE
8
Layer 1
10
74.227038
20
166.668512
11
73.347192
21
168.782430
0
LINE
8
Layer 1
10
73.347192
20
168.782430
11
72.693145
21
170.941595
0
LINE
8
Layer 1
10
72.693145
20
170.941595
11
72.261042
21
173.130222
0
LINE
8
Layer 1
10
72.261042
20
173.130222
11
72.047026
21
175.332522
0
LINE
8
Layer 1
10
72.047026
20
175.332522
11
72.047243
21
177.532711
0
LINE
8
Layer 1
10
72.047243
20
177.532711
11
72.257837
21
179.715000
0
LINE
8
Layer 1
10
72.257837
20
179.715000
11
72.674952
21
181.863604
0
LINE
8
Layer 1
10
72.674952
20
181.863604
11
73.294732
21
183.962735
0
LINE
8
Layer 1
10
73.294732
20
183.962735
11
74.113323
21
185.996607
0
LINE
8
Layer 1
10
74.113323
20
185.996607
11
75.126868
21
187.949433
0
LINE
8
Layer 1
10
75.126868
20
187.949433
11
76.331512
21
189.805427
0
LINE
8
Layer 1
10
76.331512
20
189.805427
11
77.723400
21
191.548803
0
LINE
8
Layer 1
10
77.723400
20
191.548803
11
79.298675
21
193.163772
0
LINE
8
Layer 1
10
79.298675
20
193.163772
11
81.053483
21
194.634549
0
LINE
8
Layer 1
10
81.053483
20
194.634549
11
82.983968
21
195.945346
0
LINE
8
Layer 1
10
82.983968
20
195.945346
11
85.036842
21
197.054791
0
LINE
8
Layer 1
10
85.036842
20
197.054791
11
87.150738
21
197.934603
0
LINE
8
Layer 1
10
87.150738
20
197.934603
11
89.309869
21
198.588635
0
LINE
8
Layer 1
10
89.309869
20
198.588635
11
91.498451
21
199.020740
0
LINE
8
Layer 1
10
91.498451
20
199.020740
11
93.700700
21
199.234769
0
LINE
8
Layer 1
10
93.700700
20
199.234769
11
95.900830
21
199.234576
0
LINE
8
Layer 1
10
95.900830
20
199.234576
11
98.083057
21
199.024012
0
LINE
8
Layer 1
10
98.083057
20
199.024012
11
100.231597
21
198.606931
0
LINE
8
Layer 1
10
100.231597
20
198.606931
11
102.330664
21
197.987184
0
LINE
8
Layer 1
10
102.330664
20
197.987184
11
104.364475
21
197.168623
0
LINE
8
Layer 1
10
104.364475
20
197.168623
11
106.317243
21
196.155102
0
LINE
8
Layer 1
10
106.317243
20
196.155102
11
108.173186
21
194.950473
0
LINE
8
Layer 1
10
108.173186
20
194.950473
11
109.916517
21
193.558587
0
LINE
8
Layer 1
10
109.916517
20
193.558587
11
111.531452
21
191.983298
0
LINE
8
Layer 1
10
111.531452
20
191.983298
11
113.002207
21
190.228458
0
LINE
8
Layer 1
10
113.002207
20
190.228458
11
114.312997
21
188.297919
0
LINE
8
Layer 1
10
114.312997
20
188.297919
11
115.422441
21
186.245036
0
LINE
8
Layer 1
10
115.422441
20
186.245036
11
116.302253
21
184.131119
0
LINE
8
Layer 1
10
116.302253
20
184.131119
11
116.956285
21
181.971954
0
LINE
8
Layer 1
10
116.956285
20
181.971954
11
117.388390
21
179.783328
0
LINE
8
Layer 1
10
117.388390
20
179.783328
11
117.602420
21
177.581027
0
LINE
8
Layer 1
10
117.602420
20
177.581027
11
117.602226
21
175.380839
0
LINE
8
Layer 1
10
117.602226
20
175.380839
11
117.391663
21
173.198549
0
LINE
8
Layer 1
10
117.391663
20
173.198549
11
116.974581
21
171.049945
0
LINE
8
Layer 1
10
116.974581
20
171.049945
11
116.354834
21
168.950813
0
LINE
8
Layer 1
10
116.354834
20
168.950813
11
115.536274
21
166.916941
0
LINE
8
Layer 1
10
115.536274
20
166.916941
11
114.522753
21
164.964114
0
LINE
8
Layer 1
10
114.522753
20
164.964114
11
113.318123
21
163.108120
0
LINE
8
Layer 1
10
113.318123
20
163.108120
11
111.926238
21
161.364744
0
LINE
8
Layer 1
10
111.926238
20
161.364744
11
110.350949
21
159.749775
0
LINE
8
Layer 1
10
110.350949
20
159.749775
11
108.596108
21
158.278998
0
LINE
8
Layer 1
10
108.596108
20
158.278998
11
106.665569
21
156.968201
0
LINE
8
Layer 1
10
106.665569
20
156.968201
11
103.562360
21
155.390361
0
LINE
8
Layer 1
10
103.562360
20
155.390361
11
100.339577
21
154.324830
0
LINE
8
Layer 1
10
100.339577
20
154.324830
11
97.050528
21
153.758640
0
LINE
8
Layer 1
10
97.050528
20
153.758640
11
93.748520
21
153.678821
0
LINE
8
Layer 1
10
93.748520
20
153.678821
11
93.748520
21
153.678821
0
LINE
8
Layer 1
10
93.796062
20
154.730954
11
96.944246
21
154.808012
0
LINE
8
Layer 1
10
96.944246
20
154.808012
11
100.080739
21
155.349106
0
LINE
8
Layer 1
10
100.080739
20
155.349106
11
103.154984
21
156.366606
0
LINE
8
Layer 1
10
103.154984
20
156.366606
11
106.116420
21
157.872883
0
LINE
8
Layer 1
10
106.116420
20
157.872883
11
107.959156
21
159.123772
0
LINE
8
Layer 1
10
107.959156
20
159.123772
11
109.634026
21
160.526737
0
LINE
8
Layer 1
10
109.634026
20
160.526737
11
111.137374
21
162.066798
0
LINE
8
Layer 1
10
111.137374
20
162.066798
11
112.465544
21
163.728976
0
LINE
8
Layer 1
10
112.465544
20
163.728976
11
113.614881
21
165.498294
0
LINE
8
Layer 1
10
113.614881
20
165.498294
11
114.581729
21
167.359772
0
LINE
8
Layer 1
10
114.581729
20
167.359772
11
115.362431
21
169.298433
0
LINE
8
Layer 1
10
115.362431
20
169.298433
11
115.953332
21
171.299296
0
LINE
8
Layer 1
10
115.953332
20
171.299296
11
116.350776
21
173.347384
0
LINE
8
Layer 1
10
116.350776
20
173.347384
11
116.551107
21
175.427718
0
LINE
8
Layer 1
10
116.551107
20
175.427718
11
116.550670
21
177.525319
0
LINE
8
Layer 1
10
116.550670
20
177.525319
11
116.345809
21
179.625209
0
LINE
8
Layer 1
10
116.345809
20
179.625209
11
115.932867
21
181.712409
0
LINE
8
Layer 1
10
115.932867
20
181.712409
11
115.308190
21
183.771940
0
LINE
8
Layer 1
10
115.308190
20
183.771940
11
114.468120
21
185.788823
0
LINE
8
Layer 1
10
114.468120
20
185.788823
11
113.409003
21
187.748081
0
LINE
8
Layer 1
10
113.409003
20
187.748081
11
112.158106
21
189.590817
0
LINE
8
Layer 1
10
112.158106
20
189.590817
11
110.755120
21
191.265687
0
LINE
8
Layer 1
10
110.755120
20
191.265687
11
109.215025
21
192.769035
0
LINE
8
Layer 1
10
109.215025
20
192.769035
11
107.552803
21
194.097205
0
LINE
8
Layer 1
10
107.552803
20
194.097205
11
105.783433
21
195.246542
0
LINE
8
Layer 1
10
105.783433
20
195.246542
11
103.921896
21
196.213389
0
LINE
8
Layer 1
10
103.921896
20
196.213389
11
101.983174
21
196.994091
0
LINE
8
Layer 1
10
101.983174
20
196.994091
11
99.982246
21
197.584992
0
LINE
8
Layer 1
10
99.982246
20
197.584992
11
97.934094
21
197.982437
0
LINE
8
Layer 1
10
97.934094
20
197.982437
11
95.853698
21
198.182768
0
LINE
8
Layer 1
10
95.853698
20
198.182768
11
93.756038
21
198.182331
0
LINE
8
Layer 1
10
93.756038
20
198.182331
11
91.656096
21
197.977470
0
LINE
8
Layer 1
10
91.656096
20
197.977470
11
89.568852
21
197.564528
0
LINE
8
Layer 1
10
89.568852
20
197.564528
11
87.509287
21
196.939851
0
LINE
8
Layer 1
10
87.509287
20
196.939851
11
85.492382
21
196.099781
0
LINE
8
Layer 1
10
85.492382
20
196.099781
11
83.533116
21
195.040664
0
LINE
8
Layer 1
10
83.533116
20
195.040664
11
81.690442
21
193.789775
0
LINE
8
Layer 1
10
81.690442
20
193.789775
11
80.015627
21
192.386811
0
LINE
8
Layer 1
10
80.015627
20
192.386811
11
78.512327
21
190.846750
0
LINE
8
Layer 1
10
78.512327
20
190.846750
11
77.184200
21
189.184571
0
LINE
8
Layer 1
10
77.184200
20
189.184571
11
76.034902
21
187.415253
0
LINE
8
Layer 1
10
76.034902
20
187.415253
11
75.068091
21
185.553774
0
LINE
8
Layer 1
10
75.068091
20
185.553774
11
74.287422
21
183.615114
0
LINE
8
Layer 1
10
74.287422
20
183.615114
11
73.696554
21
181.614250
0
LINE
8
Layer 1
10
73.696554
20
181.614250
11
73.299142
21
179.566162
0
LINE
8
Layer 1
10
73.299142
20
179.566162
11
73.098844
21
177.485827
0
LINE
8
Layer 1
10
73.098844
20
177.485827
11
73.099316
21
175.388226
0
LINE
8
Layer 1
10
73.099316
20
175.388226
11
73.304215
21
173.288336
0
LINE
8
Layer 1
10
73.304215
20
173.288336
11
73.717199
21
171.201137
0
LINE
8
Layer 1
10
73.717199
20
171.201137
11
74.341924
21
169.141606
0
LINE
8
Layer 1
10
74.341924
20
169.141606
11
75.182046
21
167.124723
0
LINE
8
Layer 1
10
75.182046
20
167.124723
11
76.241223
21
165.165466
0
LINE
8
Layer 1
10
76.241223
20
165.165466
11
77.829184
21
162.888139
0
LINE
8
Layer 1
10
77.829184
20
162.888139
11
79.648914
21
160.874543
0
LINE
8
Layer 1
10
79.648914
20
160.874543
11
81.671157
21
159.131816
0
LINE
8
Layer 1
10
81.671157
20
159.131816
11
83.866654
21
157.667092
0
LINE
8
Layer 1
10
83.866654
20
157.667092
11
86.206151
21
156.487508
0
LINE
8
Layer 1
10
86.206151
20
156.487508
11
88.660389
21
155.600200
0
LINE
8
Layer 1
10
88.660389
20
155.600200
11
91.200111
21
155.012303
0
LINE
8
Layer 1
10
91.200111
20
155.012303
11
93.796062
21
154.730954
0
LINE
8
Layer 1
10
93.796062
20
154.730954
11
93.796062
21
154.730954
 0 
ENDSEC
 0 
EOF