<?xml version="1.0" encoding="UTF-8" standalone="no"?>
<!-- Created with Inkscape (http://www.inkscape.org/) -->

<svg
   width="210mm"
   height="297mm"
   viewBox="0 0 210 297"
   version="1.1"
   id="svg1"
   inkscape:version="1.3.2 (091e20e, 2023-11-25)"
   sodipodi:docname="razitko_01_vnutro.svg"
   xmlns:inkscape="http://www.inkscape.org/namespaces/inkscape"
   xmlns:sodipodi="http://sodipodi.sourceforge.net/DTD/sodipodi-0.dtd"
   xmlns="http://www.w3.org/2000/svg"
   xmlns:svg="http://www.w3.org/2000/svg">
  <sodipodi:namedview
     id="namedview1"
     pagecolor="#ffffff"
     bordercolor="#000000"
     borderopacity="0.25"
     inkscape:showpageshadow="2"
     inkscape:pageopacity="0.0"
     inkscape:pagecheckerboard="0"
     inkscape:deskcolor="#d1d1d1"
     inkscape:document-units="mm"
     inkscape:zoom="5.8558123"
     inkscape:cx="361.69192"
     inkscape:cy="492.24597"
     inkscape:window-width="1499"
     inkscape:window-height="1243"
     inkscape:window-x="0"
     inkscape:window-y="0"
     inkscape:window-maximized="0"
     inkscape:current-layer="layer1" />
  <defs
     id="defs1">
    <clipPath
       clipPathUnits="userSpaceOnUse"
       id="clipPath3">
      <path
         d="M 0,500 H 500 V 0 H 0 Z"
         transform="translate(-303.96071,-430.19951)"
         id="path3" />
    </clipPath>
    <clipPath
       clipPathUnits="userSpaceOnUse"
       id="clipPath5">
      <path
         d="M 0,500 H 500 V 0 H 0 Z"
         transform="translate(-303.96071,-430.19951)"
         id="path5" />
    </clipPath>
    <clipPath
       clipPathUnits="userSpaceOnUse"
       id="clipPath7">
      <path
         d="M 0,500 H 500 V 0 H 0 Z"
         transform="translate(-286.50171,-441.05201)"
         id="path7" />
    </clipPath>
    <clipPath
       clipPathUnits="userSpaceOnUse"
       id="clipPath9">
      <path
         d="M 0,500 H 500 V 0 H 0 Z"
         transform="translate(-279.7732,-376.97291)"
         id="path9" />
    </clipPath>
    <clipPath
       clipPathUnits="userSpaceOnUse"
       id="clipPath11">
      <path
         d="M 0,500 H 500 V 0 H 0 Z"
         transform="translate(-303.96071,-430.19951)"
         id="path11" />
    </clipPath>
    <clipPath
       clipPathUnits="userSpaceOnUse"
       id="clipPath13">
      <path
         d="M 0,500 H 500 V 0 H 0 Z"
         transform="translate(-234.72981,-421.42171)"
         id="path13" />
    </clipPath>
    <clipPath
       clipPathUnits="userSpaceOnUse"
       id="clipPath15">
      <path
         d="M 0,500 H 500 V 0 H 0 Z"
         transform="translate(-265.2703,-421.42171)"
         id="path15" />
    </clipPath>
    <clipPath
       clipPathUnits="userSpaceOnUse"
       id="clipPath17">
      <path
         d="M 0,500 H 500 V 0 H 0 Z"
         transform="translate(-207.3811,-388.47631)"
         id="path17" />
    </clipPath>
    <clipPath
       clipPathUnits="userSpaceOnUse"
       id="clipPath19">
      <path
         d="M 0,500 H 500 V 0 H 0 Z"
         transform="translate(-287.57691,-389.97151)"
         id="path19" />
    </clipPath>
    <clipPath
       clipPathUnits="userSpaceOnUse"
       id="clipPath21">
      <path
         d="M 0,500 H 500 V 0 H 0 Z"
         transform="translate(-212.42361,-389.97151)"
         id="path21" />
    </clipPath>
  </defs>
  <g
     inkscape:label="Layer 1"
     inkscape:groupmode="layer"
     id="layer1">
    <path
       id="path12"
       d="m 0,0 c -3.804,0 -6.887,-6.875 -6.887,-15.354 0,-8.481 3.083,-15.355 6.887,-15.355 3.804,0 6.887,6.874 6.887,15.355 C 6.887,-6.875 3.804,0 0,0"
       style="fill:#161621;fill-opacity:1;fill-rule:evenodd;stroke:none"
       transform="matrix(0.35277776,0,0,-0.35277776,89.437851,112.07316)"
       clip-path="url(#clipPath13)" />
    <path
       id="path14"
       d="m 0,0 c -3.804,0 -6.887,-6.875 -6.887,-15.354 0,-8.481 3.083,-15.355 6.887,-15.355 3.804,0 6.887,6.874 6.887,15.355 C 6.887,-6.875 3.804,0 0,0"
       style="fill:#161621;fill-opacity:1;fill-rule:evenodd;stroke:none"
       transform="matrix(0.35277776,0,0,-0.35277776,100.21186,112.07316)"
       clip-path="url(#clipPath15)" />
    <path
       style="color:#000000;fill:#161621;stroke-linecap:round;stroke-miterlimit:10;-inkscape-stroke:none"
       d="m 35.453125,-37.537109 c -14.442375,0.698816 -28.2977841,8.320324 -36.36328125,21.595703 -2.61549355,4.304956 -3.93964865,6.7589961 -4.95312495,11.4980466 -1.4946665,-0.1131039 -3.1821453,0.078655 -5.0039068,0.7890625 a 1.4995277,1.4995277 0 0 0 -0.853515,1.9414063 1.4995277,1.4995277 0 0 0 1.9433592,0.85156247 c 2.832333,-1.10448697 4.8843572,-0.60277987 6.3691407,0.13281251 1.4847835,0.73559233 2.2441406,1.67382812 2.2441406,1.67382812 a 1.4995277,1.4995277 0 0 0 2.109375,0.21875 1.4995277,1.4995277 0 0 0 0.21875,-2.109375 c 0,0 -1.17652142,-1.4482972 -3.2402344,-2.4707031 -0.246922,-0.1223303 -0.6361973,-0.1398272 -0.9121094,-0.2480469 a 1.4995277,1.4995277 0 0 0 0.015625,-0.021484 c 0.9559831,-4.5571424 1.99591367,-6.3718901 4.625,-10.6992191 12.0631803,-19.855352 37.8945873,-26.160872 57.7500003,-14.097656 9.566952,5.813362 15.888281,14.848824 18.625,24.8496095 -0.238521,0.096574 -0.582626,0.1096705 -0.798828,0.2167969 -2.063503,1.0224457 -3.240235,2.47265622 -3.240235,2.47265622 a 1.4995277,1.4995277 0 0 0 0.220703,2.10742188 1.4995277,1.4995277 0 0 0 2.109375,-0.22070312 c 0,0 0.757694,-0.93632246 2.242188,-1.671875 1.484494,-0.73555258 3.536783,-1.23730898 6.36914,-0.13281251 a 1.4995277,1.4995277 0 0 0 1.94336,-0.85156247 1.4995277,1.4995277 0 0 0 -0.853516,-1.9414063 C 84.150455,-4.3831553 82.438855,-4.5482758 80.916016,-4.4160156 77.985028,-15.12972 71.19742,-24.824719 60.960937,-31.044922 52.995733,-35.884206 44.11855,-37.956399 35.453125,-37.537109 Z"
       id="path20"
       transform="matrix(0.35277776,0,0,-0.35277776,81.568719,123.16809)" />
  </g>
</svg>
