999
"DXF R12 Output" (www.mydxf.blogspot.com)
 0 
SECTION
 2 
HEADER
 9 
$ACADVER
 1 
AC1009
 9 
$EXTMIN
 10 
 0 
 20 
 0 
 9 
$EXTMAX
 10 
 8.5 
 20 
 11 
 0 
ENDSEC
 0 
SECTION
 2 
ENTITIES
0
LINE
8
Layer 1
10
89.437900
20
184.927000
11
88.948212
21
184.816944
0
LINE
8
Layer 1
10
88.948212
20
184.816944
11
88.492135
21
184.501302
0
LINE
8
Layer 1
10
88.492135
20
184.501302
11
87.719871
21
183.340425
0
LINE
8
Layer 1
10
87.719871
20
183.340425
11
87.199226
21
181.618698
0
LINE
8
Layer 1
10
87.199226
20
181.618698
11
87.008318
21
179.510447
0
LINE
8
Layer 1
10
87.008318
20
179.510447
11
87.199226
21
177.401843
0
LINE
8
Layer 1
10
87.199226
20
177.401843
11
87.719871
21
175.680027
0
LINE
8
Layer 1
10
87.719871
20
175.680027
11
88.492135
21
174.519195
0
LINE
8
Layer 1
10
88.492135
20
174.519195
11
88.948212
21
174.203583
0
LINE
8
Layer 1
10
88.948212
20
174.203583
11
89.437900
21
174.093540
0
LINE
8
Layer 1
10
89.437900
20
174.093540
11
89.927588
21
174.203583
0
LINE
8
Layer 1
10
89.927588
20
174.203583
11
90.383665
21
174.519195
0
LINE
8
Layer 1
10
90.383665
20
174.519195
11
91.155929
21
175.680027
0
LINE
8
Layer 1
10
91.155929
20
175.680027
11
91.676574
21
177.401843
0
LINE
8
Layer 1
10
91.676574
20
177.401843
11
91.867482
21
179.510447
0
LINE
8
Layer 1
10
91.867482
20
179.510447
11
91.676574
21
181.618698
0
LINE
8
Layer 1
10
91.676574
20
181.618698
11
91.155929
21
183.340425
0
LINE
8
Layer 1
10
91.155929
20
183.340425
11
90.383665
21
184.501302
0
LINE
8
Layer 1
10
90.383665
20
184.501302
11
89.927588
21
184.816944
0
LINE
8
Layer 1
10
89.927588
20
184.816944
11
89.437900
21
184.927000
0
LINE
8
Layer 1
10
100.212000
20
184.927000
11
99.722312
21
184.816944
0
LINE
8
Layer 1
10
99.722312
20
184.816944
11
99.266235
21
184.501302
0
LINE
8
Layer 1
10
99.266235
20
184.501302
11
98.493971
21
183.340425
0
LINE
8
Layer 1
10
98.493971
20
183.340425
11
97.973326
21
181.618698
0
LINE
8
Layer 1
10
97.973326
20
181.618698
11
97.782418
21
179.510447
0
LINE
8
Layer 1
10
97.782418
20
179.510447
11
97.973326
21
177.401843
0
LINE
8
Layer 1
10
97.973326
20
177.401843
11
98.493971
21
175.680027
0
LINE
8
Layer 1
10
98.493971
20
175.680027
11
99.266235
21
174.519195
0
LINE
8
Layer 1
10
99.266235
20
174.519195
11
99.722312
21
174.203583
0
LINE
8
Layer 1
10
99.722312
20
174.203583
11
100.212000
21
174.093540
0
LINE
8
Layer 1
10
100.212000
20
174.093540
11
100.701688
21
174.203583
0
LINE
8
Layer 1
10
100.701688
20
174.203583
11
101.157765
21
174.519195
0
LINE
8
Layer 1
10
101.157765
20
174.519195
11
101.930029
21
175.680027
0
LINE
8
Layer 1
10
101.930029
20
175.680027
11
102.450674
21
177.401843
0
LINE
8
Layer 1
10
102.450674
20
177.401843
11
102.641582
21
179.510447
0
LINE
8
Layer 1
10
102.641582
20
179.510447
11
102.450674
21
181.618698
0
LINE
8
Layer 1
10
102.450674
20
181.618698
11
101.930029
21
183.340425
0
LINE
8
Layer 1
10
101.930029
20
183.340425
11
101.157765
21
184.501302
0
LINE
8
Layer 1
10
101.157765
20
184.501302
11
100.701688
21
184.816944
0
LINE
8
Layer 1
10
100.701688
20
184.816944
11
100.212000
21
184.927000
0
LINE
8
Layer 1
10
94.075783
20
160.589734
11
92.178467
21
160.795784
0
LINE
8
Layer 1
10
92.178467
20
160.795784
11
90.322073
21
161.225543
0
LINE
8
Layer 1
10
90.322073
20
161.225543
11
88.528112
21
161.873764
0
LINE
8
Layer 1
10
88.528112
20
161.873764
11
86.818091
21
162.735203
0
LINE
8
Layer 1
10
86.818091
20
162.735203
11
85.213522
21
163.804613
0
LINE
8
Layer 1
10
85.213522
20
163.804613
11
83.735914
21
165.076751
0
LINE
8
Layer 1
10
83.735914
20
165.076751
11
82.406775
21
166.546369
0
LINE
8
Layer 1
10
82.406775
20
166.546369
11
81.247617
21
168.208223
0
LINE
8
Layer 1
10
81.247617
20
168.208223
11
80.162006
21
170.178924
0
LINE
8
Layer 1
10
80.162006
20
170.178924
11
79.500263
21
172.264481
0
LINE
8
Layer 1
10
79.500263
20
172.264481
11
78.660901
21
172.294719
0
LINE
8
Layer 1
10
78.660901
20
172.294719
11
77.734995
21
172.542844
0
LINE
8
Layer 1
10
77.734995
20
172.542844
11
77.442592
21
172.822923
0
LINE
8
Layer 1
10
77.442592
20
172.822923
11
77.433894
21
173.227730
0
LINE
8
Layer 1
10
77.433894
20
173.227730
11
77.714418
21
173.520027
0
LINE
8
Layer 1
10
77.714418
20
173.520027
11
78.119468
21
173.528142
0
LINE
8
Layer 1
10
78.119468
20
173.528142
11
78.818417
21
173.334592
0
LINE
8
Layer 1
10
78.818417
20
173.334592
11
79.421184
21
173.308142
0
LINE
8
Layer 1
10
79.421184
20
173.308142
11
80.366361
21
173.574996
0
LINE
8
Layer 1
10
80.366361
20
173.574996
11
80.958627
21
173.967553
0
LINE
8
Layer 1
10
80.958627
20
173.967553
11
81.158044
21
174.165485
0
LINE
8
Layer 1
10
81.158044
20
174.165485
11
81.514132
21
174.358191
0
LINE
8
Layer 1
10
81.514132
20
174.358191
11
81.902185
21
174.242656
0
LINE
8
Layer 1
10
81.902185
20
174.242656
11
82.094891
21
173.886568
0
LINE
8
Layer 1
10
82.094891
20
173.886568
11
81.979356
21
173.498515
0
LINE
8
Layer 1
10
81.979356
20
173.498515
11
81.680826
21
173.197966
0
LINE
8
Layer 1
10
81.680826
20
173.197966
11
80.836272
21
172.626905
0
LINE
8
Layer 1
10
80.836272
20
172.626905
11
80.514500
21
172.539399
0
LINE
8
Layer 1
10
80.514500
20
172.539399
11
80.520012
21
172.531820
0
LINE
8
Layer 1
10
80.520012
20
172.531820
11
81.114474
21
170.614193
0
LINE
8
Layer 1
10
81.114474
20
170.614193
11
82.151611
21
168.757371
0
LINE
8
Layer 1
10
82.151611
20
168.757371
11
83.004759
21
167.500453
0
LINE
8
Layer 1
10
83.004759
20
167.500453
11
83.961543
21
166.358059
0
LINE
8
Layer 1
10
83.961543
20
166.358059
11
86.145207
21
164.426801
0
LINE
8
Layer 1
10
86.145207
20
164.426801
11
88.620977
21
162.983519
0
LINE
8
Layer 1
10
88.620977
20
162.983519
11
91.307227
21
162.048136
0
LINE
8
Layer 1
10
91.307227
20
162.048136
11
94.122334
21
161.640574
0
LINE
8
Layer 1
10
94.122334
20
161.640574
11
96.984671
21
161.780754
0
LINE
8
Layer 1
10
96.984671
20
161.780754
11
99.812615
21
162.488598
0
LINE
8
Layer 1
10
99.812615
20
162.488598
11
101.188182
21
163.061620
0
LINE
8
Layer 1
10
101.188182
20
163.061620
11
102.524540
21
163.784028
0
LINE
8
Layer 1
10
102.524540
20
163.784028
11
104.839245
21
165.522837
0
LINE
8
Layer 1
10
104.839245
20
165.522837
11
106.713369
21
167.613264
0
LINE
8
Layer 1
10
106.713369
20
167.613264
11
108.135701
21
169.980673
0
LINE
8
Layer 1
10
108.135701
20
169.980673
11
109.095030
21
172.550424
0
LINE
8
Layer 1
10
109.095030
20
172.550424
11
108.813221
21
172.626905
0
LINE
8
Layer 1
10
108.813221
20
172.626905
11
107.968695
21
173.198315
0
LINE
8
Layer 1
10
107.968695
20
173.198315
11
107.670138
21
173.499204
0
LINE
8
Layer 1
10
107.670138
20
173.499204
11
107.555268
21
173.887037
0
LINE
8
Layer 1
10
107.555268
20
173.887037
11
107.747997
21
174.242656
0
LINE
8
Layer 1
10
107.747997
20
174.242656
11
108.136195
21
174.357867
0
LINE
8
Layer 1
10
108.136195
20
174.357867
11
108.492138
21
174.164797
0
LINE
8
Layer 1
10
108.492138
20
174.164797
11
108.691249
21
173.967204
0
LINE
8
Layer 1
10
108.691249
20
173.967204
11
109.283133
21
173.574996
0
LINE
8
Layer 1
10
109.283133
20
173.574996
11
110.228268
21
173.308146
0
LINE
8
Layer 1
10
110.228268
20
173.308146
11
110.831058
21
173.334593
0
LINE
8
Layer 1
10
110.831058
20
173.334593
11
111.530025
21
173.528143
0
LINE
8
Layer 1
10
111.530025
20
173.528143
11
111.935075
21
173.520027
0
LINE
8
Layer 1
10
111.935075
20
173.520027
11
112.215600
21
173.227730
0
LINE
8
Layer 1
10
112.215600
20
173.227730
11
112.206902
21
172.822923
0
LINE
8
Layer 1
10
112.206902
20
172.822923
11
111.914498
21
172.542845
0
LINE
8
Layer 1
10
111.914498
20
172.542845
11
110.968490
21
172.294567
0
LINE
8
Layer 1
10
110.968490
20
172.294567
11
110.114090
21
172.274127
0
LINE
8
Layer 1
10
110.114090
20
172.274127
11
109.085747
21
169.520379
0
LINE
8
Layer 1
10
109.085747
20
169.520379
11
107.560691
21
166.982628
0
LINE
8
Layer 1
10
107.560691
20
166.982628
11
105.552406
21
164.742103
0
LINE
8
Layer 1
10
105.552406
20
164.742103
11
104.371267
21
163.758685
0
LINE
8
Layer 1
10
104.371267
20
163.758685
11
103.074377
21
162.880035
0
LINE
8
Layer 1
10
103.074377
20
162.880035
11
100.912786
21
161.781152
0
LINE
8
Layer 1
10
100.912786
20
161.781152
11
98.667713
21
161.039218
0
LINE
8
Layer 1
10
98.667713
20
161.039218
11
96.376324
21
160.645117
0
LINE
8
Layer 1
10
96.376324
20
160.645117
11
94.075783
21
160.589734
0
LINE
8
Layer 1
10
94.075783
20
160.589734
11
94.075783
21
160.589734
 0 
ENDSEC
 0 
EOF