<?xml version="1.0" encoding="UTF-8" standalone="no"?>
<!-- Created with Inkscape (http://www.inkscape.org/) -->

<svg
   width="210mm"
   height="297mm"
   viewBox="0 0 210 297"
   version="1.1"
   id="svg1"
   inkscape:version="1.3.2 (091e20e, 2023-11-25)"
   sodipodi:docname="razitko_01.svg"
   xmlns:inkscape="http://www.inkscape.org/namespaces/inkscape"
   xmlns:sodipodi="http://sodipodi.sourceforge.net/DTD/sodipodi-0.dtd"
   xmlns="http://www.w3.org/2000/svg"
   xmlns:svg="http://www.w3.org/2000/svg">
  <sodipodi:namedview
     id="namedview1"
     pagecolor="#ffffff"
     bordercolor="#000000"
     borderopacity="0.25"
     inkscape:showpageshadow="2"
     inkscape:pageopacity="0.0"
     inkscape:pagecheckerboard="0"
     inkscape:deskcolor="#d1d1d1"
     inkscape:document-units="mm"
     inkscape:zoom="1.0351712"
     inkscape:cx="397.03579"
     inkscape:cy="561.74285"
     inkscape:window-width="1499"
     inkscape:window-height="1243"
     inkscape:window-x="0"
     inkscape:window-y="0"
     inkscape:window-maximized="0"
     inkscape:current-layer="layer1" />
  <defs
     id="defs1">
    <clipPath
       clipPathUnits="userSpaceOnUse"
       id="clipPath3">
      <path
         d="M 0,500 H 500 V 0 H 0 Z"
         transform="translate(-303.96071,-430.19951)"
         id="path3" />
    </clipPath>
    <clipPath
       clipPathUnits="userSpaceOnUse"
       id="clipPath5">
      <path
         d="M 0,500 H 500 V 0 H 0 Z"
         transform="translate(-303.96071,-430.19951)"
         id="path5" />
    </clipPath>
    <clipPath
       clipPathUnits="userSpaceOnUse"
       id="clipPath7">
      <path
         d="M 0,500 H 500 V 0 H 0 Z"
         transform="translate(-286.50171,-441.05201)"
         id="path7" />
    </clipPath>
    <clipPath
       clipPathUnits="userSpaceOnUse"
       id="clipPath9">
      <path
         d="M 0,500 H 500 V 0 H 0 Z"
         transform="translate(-279.7732,-376.97291)"
         id="path9" />
    </clipPath>
    <clipPath
       clipPathUnits="userSpaceOnUse"
       id="clipPath11">
      <path
         d="M 0,500 H 500 V 0 H 0 Z"
         transform="translate(-303.96071,-430.19951)"
         id="path11" />
    </clipPath>
    <clipPath
       clipPathUnits="userSpaceOnUse"
       id="clipPath13">
      <path
         d="M 0,500 H 500 V 0 H 0 Z"
         transform="translate(-234.72981,-421.42171)"
         id="path13" />
    </clipPath>
    <clipPath
       clipPathUnits="userSpaceOnUse"
       id="clipPath15">
      <path
         d="M 0,500 H 500 V 0 H 0 Z"
         transform="translate(-265.2703,-421.42171)"
         id="path15" />
    </clipPath>
    <clipPath
       clipPathUnits="userSpaceOnUse"
       id="clipPath17">
      <path
         d="M 0,500 H 500 V 0 H 0 Z"
         transform="translate(-207.3811,-388.47631)"
         id="path17" />
    </clipPath>
    <clipPath
       clipPathUnits="userSpaceOnUse"
       id="clipPath19">
      <path
         d="M 0,500 H 500 V 0 H 0 Z"
         transform="translate(-287.57691,-389.97151)"
         id="path19" />
    </clipPath>
    <clipPath
       clipPathUnits="userSpaceOnUse"
       id="clipPath21">
      <path
         d="M 0,500 H 500 V 0 H 0 Z"
         transform="translate(-212.42361,-389.97151)"
         id="path21" />
    </clipPath>
  </defs>
  <g
     inkscape:label="Layer 1"
     inkscape:groupmode="layer"
     id="layer1">
    <path
       id="path2"
       d="m 0,0 c 18.107,-29.802 8.627,-68.64 -21.175,-86.747 -29.802,-18.107 -68.639,-8.627 -86.746,21.175 -18.108,29.802 -8.627,68.64 21.174,86.747 C -56.945,39.282 -18.107,29.802 0,0"
       style="fill:#a7c257;fill-opacity:1;fill-rule:nonzero;stroke:none"
       transform="matrix(0.35277776,0,0,-0.35277776,102.46808,62.459476)"
       clip-path="url(#clipPath3)" />
    <path
       id="path4"
       d="m 0,0 c 18.107,-29.802 8.627,-68.64 -21.175,-86.747 -29.802,-18.107 -68.639,-8.627 -86.746,21.175 -18.108,29.802 -8.627,68.64 21.174,86.747 C -56.945,39.282 -18.107,29.802 0,0"
       style="fill:#ffb924;fill-opacity:1;fill-rule:nonzero;stroke:none"
       transform="matrix(0.35277776,0,0,-0.35277776,102.46808,62.459476)"
       clip-path="url(#clipPath5)" />
    <path
       id="path6"
       d="m 0,0 c -12.249,14.637 -38.521,19.292 -58.68,10.399 -20.159,-8.893 -26.571,-27.967 -14.323,-42.604 12.248,-14.636 38.52,-19.293 58.679,-10.399 C 5.835,-33.711 12.248,-14.637 0,0"
       style="fill:#ffd14f;fill-opacity:1;fill-rule:nonzero;stroke:none"
       transform="matrix(0.35277776,0,0,-0.35277776,96.308933,58.630955)"
       clip-path="url(#clipPath7)" />
    <path
       id="path8"
       d="m 0,0 c -26.734,-16.243 -61.573,-7.739 -77.816,18.995 -3.121,5.135 -5.324,10.569 -6.664,16.113 -3.862,-14.413 -2.059,-30.319 6.301,-44.078 16.243,-26.734 51.082,-35.238 77.817,-18.995 21.597,13.123 31.294,38.384 25.658,61.702 C 21.653,20.146 12.974,7.883 0,0"
       style="fill:#ffa01c;fill-opacity:1;fill-rule:nonzero;stroke:none"
       transform="matrix(0.35277776,0,0,-0.35277776,93.935266,81.236637)"
       clip-path="url(#clipPath9)" />
    <path
       id="path10"
       d="m 0,0 c -18.107,29.802 -56.945,39.282 -86.747,21.175 -29.801,-18.107 -39.282,-56.945 -21.174,-86.747 18.107,-29.802 56.944,-39.282 86.746,-21.175 C 8.627,-68.64 18.107,-29.802 0,0 Z"
       style="fill:none;stroke:#161621;stroke-width:3;stroke-linecap:butt;stroke-linejoin:miter;stroke-miterlimit:10;stroke-dasharray:none;stroke-opacity:1"
       transform="matrix(0.35277776,0,0,-0.35277776,102.46808,62.459476)"
       clip-path="url(#clipPath11)" />
    <path
       id="path12"
       d="m 0,0 c -3.804,0 -6.887,-6.875 -6.887,-15.354 0,-8.481 3.083,-15.355 6.887,-15.355 3.804,0 6.887,6.874 6.887,15.355 C 6.887,-6.875 3.804,0 0,0"
       style="fill:#161621;fill-opacity:1;fill-rule:evenodd;stroke:none"
       transform="matrix(0.35277776,0,0,-0.35277776,78.044957,65.55609)"
       clip-path="url(#clipPath13)" />
    <path
       id="path14"
       d="m 0,0 c -3.804,0 -6.887,-6.875 -6.887,-15.354 0,-8.481 3.083,-15.355 6.887,-15.355 3.804,0 6.887,6.874 6.887,15.355 C 6.887,-6.875 3.804,0 0,0"
       style="fill:#161621;fill-opacity:1;fill-rule:evenodd;stroke:none"
       transform="matrix(0.35277776,0,0,-0.35277776,88.818965,65.55609)"
       clip-path="url(#clipPath15)" />
    <path
       id="path16"
       d="m 0,0 c 0.987,-4.705 2.776,-9.326 5.414,-13.668 12.484,-20.548 39.262,-27.084 59.81,-14.6 10.274,6.243 17.045,16.059 19.687,26.882"
       style="fill:none;stroke:#161621;stroke-width:3;stroke-linecap:butt;stroke-linejoin:miter;stroke-miterlimit:10;stroke-dasharray:none;stroke-opacity:1"
       transform="matrix(0.35277776,0,0,-0.35277776,68.396942,77.178494)"
       clip-path="url(#clipPath17)" />
    <path
       id="path18"
       d="M 0,0 C 0,0 3.87,-4.774 10.322,-2.258"
       style="fill:none;stroke:#161621;stroke-width:3;stroke-linecap:butt;stroke-linejoin:miter;stroke-miterlimit:10;stroke-dasharray:none;stroke-opacity:1"
       transform="matrix(0.35277776,0,0,-0.35277776,96.688239,76.651021)"
       clip-path="url(#clipPath19)" />
    <path
       id="path20"
       d="M 0,0 C 0,0 -3.871,-4.774 -10.323,-2.258"
       style="fill:none;stroke:#161621;stroke-width:3;stroke-linecap:butt;stroke-linejoin:miter;stroke-miterlimit:10;stroke-dasharray:none;stroke-opacity:1"
       transform="matrix(0.35277776,0,0,-0.35277776,70.175825,76.651021)"
       clip-path="url(#clipPath21)" />
  </g>
</svg>
