999
"DXF R12 Output" (www.mydxf.blogspot.com)
 0 
SECTION
 2 
HEADER
 9 
$ACADVER
 1 
AC1009
 9 
$EXTMIN
 10 
 0 
 20 
 0 
 9 
$EXTMAX
 10 
 8.5 
 20 
 11 
 0 
ENDSEC
 0 
SECTION
 2 
ENTITIES
0
LINE
8
Layer 1
10
168.048500
20
46.107380
11
165.506103
21
46.346456
0
LINE
8
Layer 1
10
165.506103
20
46.346456
11
163.128606
21
46.777491
0
LINE
8
Layer 1
10
163.128606
20
46.777491
11
160.964059
21
47.389451
0
LINE
8
Layer 1
10
160.964059
20
47.389451
11
159.060510
21
48.171300
0
LINE
8
Layer 1
10
159.060510
20
48.171300
11
157.378450
21
49.215740
0
LINE
8
Layer 1
10
157.378450
20
49.215740
11
159.719860
21
59.032130
0
LINE
8
Layer 1
10
159.719860
20
59.032130
11
162.062290
21
68.832960
0
LINE
8
Layer 1
10
162.062290
20
68.832960
11
159.364160
21
68.881760
0
LINE
8
Layer 1
10
159.364160
20
68.881760
11
148.736470
21
69.149080
0
LINE
8
Layer 1
10
148.736470
20
69.149080
11
147.623455
21
69.508868
0
LINE
8
Layer 1
10
147.623455
20
69.508868
11
147.320191
21
69.807045
0
LINE
8
Layer 1
10
147.320191
20
69.807045
11
147.186190
21
70.183790
0
LINE
8
Layer 1
10
147.186190
20
70.183790
11
147.166090
21
70.353450
0
LINE
8
Layer 1
10
147.166090
20
70.353450
11
147.209790
21
70.539470
0
LINE
8
Layer 1
10
147.209790
20
70.539470
11
147.786979
21
71.598380
0
LINE
8
Layer 1
10
147.786979
20
71.598380
11
148.972380
21
72.804560
0
LINE
8
Layer 1
10
148.972380
20
72.804560
11
149.247900
21
73.053900
0
LINE
8
Layer 1
10
149.247900
20
73.053900
11
148.649090
21
72.961200
0
LINE
8
Layer 1
10
148.649090
20
72.961200
11
145.404794
21
72.482978
0
LINE
8
Layer 1
10
145.404794
20
72.482978
11
142.482201
21
72.225075
0
LINE
8
Layer 1
10
142.482201
20
72.225075
11
139.903471
21
72.184426
0
LINE
8
Layer 1
10
139.903471
20
72.184426
11
137.690770
21
72.357966
0
LINE
8
Layer 1
10
137.690770
20
72.357966
11
135.866259
21
72.742632
0
LINE
8
Layer 1
10
135.866259
20
72.742632
11
134.452102
21
73.335360
0
LINE
8
Layer 1
10
134.452102
20
73.335360
11
133.470461
21
74.133084
0
LINE
8
Layer 1
10
133.470461
20
74.133084
11
132.943500
21
75.132740
0
LINE
8
Layer 1
10
132.943500
20
75.132740
11
132.869700
21
75.410360
0
LINE
8
Layer 1
10
132.869700
20
75.410360
11
132.851800
21
75.990610
0
LINE
8
Layer 1
10
132.851800
20
75.990610
11
132.833900
21
76.570870
0
LINE
8
Layer 1
10
132.833900
20
76.570870
11
132.875800
21
76.910230
0
LINE
8
Layer 1
10
132.875800
20
76.910230
11
133.279782
21
78.678124
0
LINE
8
Layer 1
10
133.279782
20
78.678124
11
134.086919
21
80.783688
0
LINE
8
Layer 1
10
134.086919
20
80.783688
11
135.278579
21
83.196636
0
LINE
8
Layer 1
10
135.278579
20
83.196636
11
136.836128
21
85.886688
0
LINE
8
Layer 1
10
136.836128
20
85.886688
11
138.740930
21
88.823557
0
LINE
8
Layer 1
10
138.740930
20
88.823557
11
140.974354
21
91.976961
0
LINE
8
Layer 1
10
140.974354
20
91.976961
11
146.352530
21
98.812240
0
LINE
8
Layer 1
10
146.352530
20
98.812240
11
146.960190
21
99.562760
0
LINE
8
Layer 1
10
146.960190
20
99.562760
11
146.637030
21
99.508160
0
LINE
8
Layer 1
10
146.637030
20
99.508160
11
145.856220
21
99.382710
0
LINE
8
Layer 1
10
145.856220
20
99.382710
11
145.387740
21
99.321310
0
LINE
8
Layer 1
10
145.387740
20
99.321310
11
144.468120
21
99.321760
0
LINE
8
Layer 1
10
144.468120
20
99.321760
11
143.548500
21
99.322200
0
LINE
8
Layer 1
10
143.548500
20
99.322200
11
143.149420
21
99.383400
0
LINE
8
Layer 1
10
143.149420
20
99.383400
11
141.746122
21
99.730263
0
LINE
8
Layer 1
10
141.746122
20
99.730263
11
140.491731
21
100.281051
0
LINE
8
Layer 1
10
140.491731
20
100.281051
11
139.524300
21
100.959394
0
LINE
8
Layer 1
10
139.524300
20
100.959394
11
138.981880
21
101.688920
0
LINE
8
Layer 1
10
138.981880
20
101.688920
11
138.904180
21
101.888530
0
LINE
8
Layer 1
10
138.904180
20
101.888530
11
138.903670
21
102.287610
0
LINE
8
Layer 1
10
138.903670
20
102.287610
11
138.903170
21
102.686690
0
LINE
8
Layer 1
10
138.903170
20
102.686690
11
138.964870
21
102.981660
0
LINE
8
Layer 1
10
138.964870
20
102.981660
11
139.493555
21
104.546137
0
LINE
8
Layer 1
10
139.493555
20
104.546137
11
140.505160
21
106.544614
0
LINE
8
Layer 1
10
140.505160
20
106.544614
11
141.975989
21
108.944162
0
LINE
8
Layer 1
10
141.975989
20
108.944162
11
143.882344
21
111.711850
0
LINE
8
Layer 1
10
143.882344
20
111.711850
11
148.906848
21
118.219932
0
LINE
8
Layer 1
10
148.906848
20
118.219932
11
155.389100
21
125.805421
0
LINE
8
Layer 1
10
155.389100
20
125.805421
11
156.127932
21
126.651691
0
LINE
8
Layer 1
10
156.127932
20
126.651691
11
156.172362
21
126.744643
0
LINE
8
Layer 1
10
156.172362
20
126.744643
11
156.102200
21
126.753120
0
LINE
8
Layer 1
10
156.102200
20
126.753120
11
153.181660
21
127.308532
0
LINE
8
Layer 1
10
153.181660
20
127.308532
11
151.741482
21
127.818284
0
LINE
8
Layer 1
10
151.741482
20
127.818284
11
150.487988
21
128.457254
0
LINE
8
Layer 1
10
150.487988
20
128.457254
11
149.529997
21
129.159446
0
LINE
8
Layer 1
10
149.529997
20
129.159446
11
148.976330
21
129.858866
0
LINE
8
Layer 1
10
148.976330
20
129.858866
11
148.911630
21
129.997677
0
LINE
8
Layer 1
10
148.911630
20
129.997677
11
148.910870
21
130.245389
0
LINE
8
Layer 1
10
148.910870
20
130.245389
11
148.910110
21
130.493101
0
LINE
8
Layer 1
10
148.910110
20
130.493101
11
148.994310
21
130.783280
0
LINE
8
Layer 1
10
148.994310
20
130.783280
11
149.565983
21
132.015653
0
LINE
8
Layer 1
10
149.565983
20
132.015653
11
150.677228
21
133.662201
0
LINE
8
Layer 1
10
150.677228
20
133.662201
11
154.442448
21
138.114994
0
LINE
8
Layer 1
10
154.442448
20
138.114994
11
160.138006
21
143.975994
0
LINE
8
Layer 1
10
160.138006
20
143.975994
11
167.611940
21
151.079539
0
LINE
8
Layer 1
10
167.611940
20
151.079539
11
169.346640
21
152.710612
0
LINE
8
Layer 1
10
169.346640
20
152.710612
11
170.344693
21
153.527899
0
LINE
8
Layer 1
10
170.344693
20
153.527899
11
171.277570
21
153.944518
0
LINE
8
Layer 1
10
171.277570
20
153.944518
11
171.518880
21
154.000858
0
LINE
8
Layer 1
10
171.518880
20
154.000858
11
172.039420
21
153.986378
0
LINE
8
Layer 1
10
172.039420
20
153.986378
11
172.559960
21
153.971898
0
LINE
8
Layer 1
10
172.559960
20
153.971898
11
172.849150
21
153.863136
0
LINE
8
Layer 1
10
172.849150
20
153.863136
11
173.701620
21
153.410713
0
LINE
8
Layer 1
10
173.701620
20
153.410713
11
174.590030
21
152.638034
0
LINE
8
Layer 1
10
174.590030
20
152.638034
11
175.665840
21
151.614460
0
LINE
8
Layer 1
10
175.665840
20
151.614460
11
183.597172
21
144.113343
0
LINE
8
Layer 1
10
183.597172
20
144.113343
11
189.632575
21
137.871704
0
LINE
8
Layer 1
10
189.632575
20
137.871704
11
191.856094
21
135.314977
0
LINE
8
Layer 1
10
191.856094
20
135.314977
11
193.505781
21
133.183263
0
LINE
8
Layer 1
10
193.505781
20
133.183263
11
194.548350
21
131.513278
0
LINE
8
Layer 1
10
194.548350
20
131.513278
11
194.950520
21
130.341737
0
LINE
8
Layer 1
10
194.950520
20
130.341737
11
194.969620
21
130.095856
0
LINE
8
Layer 1
10
194.969620
20
130.095856
11
194.926120
21
129.960008
0
LINE
8
Layer 1
10
194.926120
20
129.960008
11
194.633013
21
129.453184
0
LINE
8
Layer 1
10
194.633013
20
129.453184
11
194.098680
21
128.943040
0
LINE
8
Layer 1
10
194.098680
20
128.943040
11
192.456166
21
127.981087
0
LINE
8
Layer 1
10
192.456166
20
127.981087
11
190.298231
21
127.210736
0
LINE
8
Layer 1
10
190.298231
20
127.210736
11
187.924530
21
126.768572
0
LINE
8
Layer 1
10
187.924530
20
126.768572
11
187.712858
21
126.687434
0
LINE
8
Layer 1
10
187.712858
20
126.687434
11
188.199120
21
126.110976
0
LINE
8
Layer 1
10
188.199120
20
126.110976
11
194.659092
21
118.577014
0
LINE
8
Layer 1
10
194.659092
20
118.577014
11
199.703478
21
112.089189
0
LINE
8
Layer 1
10
199.703478
20
112.089189
11
201.639533
21
109.313630
0
LINE
8
Layer 1
10
201.639533
20
109.313630
11
203.155340
21
106.890870
0
LINE
8
Layer 1
10
203.155340
20
106.890870
11
204.228781
21
104.851330
0
LINE
8
Layer 1
10
204.228781
20
104.851330
11
204.837740
21
103.225430
0
LINE
8
Layer 1
10
204.837740
20
103.225430
11
204.924340
21
102.894900
0
LINE
8
Layer 1
10
204.924340
20
102.894900
11
204.944240
21
102.442570
0
LINE
8
Layer 1
10
204.944240
20
102.442570
11
204.964140
21
101.990240
0
LINE
8
Layer 1
10
204.964140
20
101.990240
11
204.905240
21
101.787770
0
LINE
8
Layer 1
10
204.905240
20
101.787770
11
204.392053
21
101.017260
0
LINE
8
Layer 1
10
204.392053
20
101.017260
11
203.400184
21
100.300774
0
LINE
8
Layer 1
10
203.400184
20
100.300774
11
202.080105
21
99.722578
0
LINE
8
Layer 1
10
202.080105
20
99.722578
11
200.582290
21
99.366940
0
LINE
8
Layer 1
10
200.582290
20
99.366940
11
200.252610
21
99.320540
0
LINE
8
Layer 1
10
200.252610
20
99.320540
11
199.350340
21
99.321400
0
LINE
8
Layer 1
10
199.350340
20
99.321400
11
198.448080
21
99.322260
0
LINE
8
Layer 1
10
198.448080
20
99.322260
11
197.996940
21
99.383160
0
LINE
8
Layer 1
10
197.996940
20
99.383160
11
197.233480
21
99.508170
0
LINE
8
Layer 1
10
197.233480
20
99.508170
11
196.927644
21
99.548818
0
LINE
8
Layer 1
10
196.927644
20
99.548818
11
197.063850
21
99.344350
0
LINE
8
Layer 1
10
197.063850
20
99.344350
11
202.724092
21
92.176311
0
LINE
8
Layer 1
10
202.724092
20
92.176311
11
205.030004
21
88.948605
0
LINE
8
Layer 1
10
205.030004
20
88.948605
11
206.975134
21
85.976665
0
LINE
8
Layer 1
10
206.975134
20
85.976665
11
208.551001
21
83.274161
0
LINE
8
Layer 1
10
208.551001
20
83.274161
11
209.749124
21
80.854761
0
LINE
8
Layer 1
10
209.749124
20
80.854761
11
210.561020
21
78.732135
0
LINE
8
Layer 1
10
210.561020
20
78.732135
11
210.978210
21
76.919950
0
LINE
8
Layer 1
10
210.978210
20
76.919950
11
211.035210
21
76.486170
0
LINE
8
Layer 1
10
211.035210
20
76.486170
11
211.017510
21
76.000330
0
LINE
8
Layer 1
10
211.017510
20
76.000330
11
210.791115
21
74.782423
0
LINE
8
Layer 1
10
210.791115
20
74.782423
11
210.183540
21
73.841134
0
LINE
8
Layer 1
10
210.183540
20
73.841134
11
209.152800
21
73.134225
0
LINE
8
Layer 1
10
209.152800
20
73.134225
11
207.656910
21
72.619460
0
LINE
8
Layer 1
10
207.656910
20
72.619460
11
205.299121
21
72.271733
0
LINE
8
Layer 1
10
205.299121
20
72.271733
11
202.325599
21
72.215928
0
LINE
8
Layer 1
10
202.325599
20
72.215928
11
198.904347
21
72.447428
0
LINE
8
Layer 1
10
198.904347
20
72.447428
11
195.203370
21
72.961620
0
LINE
8
Layer 1
10
195.203370
20
72.961620
11
194.620940
21
73.051520
0
LINE
8
Layer 1
10
194.620940
20
73.051520
11
194.950620
21
72.746640
0
LINE
8
Layer 1
10
194.950620
20
72.746640
11
195.917511
21
71.783321
0
LINE
8
Layer 1
10
195.917511
20
71.783321
11
196.513790
21
70.921500
0
LINE
8
Layer 1
10
196.513790
20
70.921500
11
196.643530
21
70.656100
0
LINE
8
Layer 1
10
196.643530
20
70.656100
11
196.643530
21
70.303510
0
LINE
8
Layer 1
10
196.643530
20
70.303510
11
196.643530
21
69.950910
0
LINE
8
Layer 1
10
196.643530
20
69.950910
11
196.538540
21
69.801410
0
LINE
8
Layer 1
10
196.538540
20
69.801410
11
196.294757
21
69.545164
0
LINE
8
Layer 1
10
196.294757
20
69.545164
11
195.886518
21
69.345819
0
LINE
8
Layer 1
10
195.886518
20
69.345819
11
194.092410
21
69.084086
0
LINE
8
Layer 1
10
194.092410
20
69.084086
11
183.203800
21
68.872240
0
LINE
8
Layer 1
10
183.203800
20
68.872240
11
179.538700
21
68.830240
0
LINE
8
Layer 1
10
179.538700
20
68.830240
11
181.828290
21
59.221630
0
LINE
8
Layer 1
10
181.828290
20
59.221630
11
184.179620
21
49.410800
0
LINE
8
Layer 1
10
184.179620
20
49.410800
11
184.229820
21
49.195250
0
LINE
8
Layer 1
10
184.229820
20
49.195250
11
184.037410
21
49.049980
0
LINE
8
Layer 1
10
184.037410
20
49.049980
11
182.805052
21
48.281160
0
LINE
8
Layer 1
10
182.805052
20
48.281160
11
181.296794
21
47.616426
0
LINE
8
Layer 1
10
181.296794
20
47.616426
11
179.541121
21
47.061022
0
LINE
8
Layer 1
10
179.541121
20
47.061022
11
177.566518
21
46.620190
0
LINE
8
Layer 1
10
177.566518
20
46.620190
11
173.074462
21
46.103211
0
LINE
8
Layer 1
10
173.074462
20
46.103211
11
168.048510
21
46.107430
0
LINE
8
Layer 1
10
168.048510
20
46.107430
11
168.048500
21
46.107380
 0 
ENDSEC
 0 
EOF