<?xml version="1.0" encoding="UTF-8" standalone="no"?>
<svg
   xmlns:svg="http://www.w3.org/2000/svg"
   xmlns="http://www.w3.org/2000/svg"
   width="800.0"
   height="240.0"

>
    <g transform="scale(9.925282730242477, -9.925282730242477)   translate(51.76981441709609,-4.509725091342779)" stroke-width="0.10075279739417255"  fill="none">
       <!-- hidden lines -->
       <g  stroke="rgb(160,160,160)" fill="none" stroke-dasharray="0.10075279739417255,0.10075279739417255" >
			<path d="M-15.573662880039286,-13.053399906247858 L-6.135079316379111,-12.381758213778037 " />
			<path d="M-6.135079316379114,-2.590617956669305 L-6.135079316379113,-12.381758213778038 " />
			<path d="M-2.831575069098051,-14.300734477977523 L-6.1350793163791115,-12.381758213778038 " />
			<path d="M8.022796029111149,-11.374295675073308 L8.306872856047555,-11.355993867032675 L8.59580782720286,-11.341165284366836 L8.888574611427313,-11.329862599953138 L9.184133266518481,-11.322125962261818 L9.481433933218806,-11.317982852743892 L9.779420564439713,-11.317447988213798 L10.077034676465608,-11.320523268573531 L10.373219108813087,-11.327197770063968 L10.666921779389858,-11.337447784067349 L10.957099421614608,-11.351236901323086 L11.242721290223145,-11.368516141257762 L11.52277282259734,-11.389224125969918 L11.796259242611399,-11.413287298251596 L12.06220909419418,-11.440620182872241 L12.319677692055908,-11.47112569019682 L12.567750477321926,-11.504695461059661 L12.80554626615385,-11.54121025166903 L13.032220379818671,-11.580540357175147 L13.246967645087384,-11.622546072397146 L13.44902525430542,-11.667078188072376 L13.637675474975547,-11.71397852086533 L13.812248199228485,-11.763080475253538 L13.972123324125214,-11.814209635294546 L14.116732954335873,-11.867184384171942 L14.245563419371063,-11.92181654931975 L14.303916223108502,-11.949693730532696 L14.358157098200087,-11.977912070833604 L14.40823786644856,-12.006446505937229 L14.45411404477493,-12.03527169079446 L14.495744884729522,-12.064362022104474 L14.533093408685854,-12.093691661056264 L14.56612644268515,-12.123234556279376 L14.594814645902332,-12.152964466983427 L14.619132536707335,-12.182854986265871 L14.639058515298569,-12.212879564567332 L14.65457488288844,-12.24301153325362 L14.665667857423891,-12.273224128303529 L14.672327585827986,-12.303490514081359 L14.67454815275168,-12.333783807173045 " />
			<path d="M4.6745481527516795,-12.33378380717305 L4.678266090072962,-12.29458859129278 L4.6894143728136415,-12.255451665554883 L4.707976421527128,-12.216431233414097 L4.7339246311999545,-12.177585325078804 L4.767220412305255,-12.138971711209951 L4.807814248192145,-12.100647817005987 L4.8556457687256405,-12.062670636801531 L4.910643840067612,-12.025096649306844 L4.972726670465243,-11.987981733614088 L5.041801931889676,-11.951381086095358 L5.117766897343938,-11.915349138316008 L5.200508593635962,-11.879939476085406 L5.289903969389479,-11.845204759765442 L5.3858200780429435,-11.811196645955382 L5.488114275564325,-11.777965710669447 L5.596634432587737,-11.745561374121445 L5.711219160656418,-11.714031827228268 L5.831698052235592,-11.68342395994156 L5.957891934138288,-11.653783291514168 L6.089613133987208,-11.625153902805039 L6.2266657593163846,-11.59757837072328 L6.368845988897539,-11.571097704908846 L6.667736162138734,-11.521576810786435 L6.984506306874888,-11.476885695841686 L7.317272753233717,-11.437290115254427 L7.6640567095269,-11.40302552367046 L8.02279602911114,-11.37429567507331 " />
			<path d="M9.013847303295467,-11.949988554333153 L9.24305202253215,-11.936736398050565 L9.4783821982584,-11.929120669208558 L9.716497117426893,-11.92724947958935 L9.954016535176242,-11.931149392329418 L10.18756866029685,-11.940765044833064 L10.413838020689942,-11.955959934691798 L10.62961252932868,-11.976518357452727 L10.831829082579779,-12.002148468727695 L11.017617043578475,-12.03248642717389 L11.103515949685962,-12.049288713262689 L11.184338993373176,-12.06710155953278 L11.259799081641226,-12.085861692649962 L11.329628171342401,-12.105502474405245 L11.393578221301093,-12.12595413842165 L11.451422073385357,-12.147144037972607 L11.502954259399433,-12.168996904031731 L11.547991730931042,-12.191435112637272 L11.58637450956098,-12.214378960621614 L11.61796625512535,-12.237746948726336 L11.64265475001194,-12.261456071097202 L11.660352297770435,-12.285422110130764 L11.670996034620565,-12.309559935625241 L11.67454815275168,-12.333783807173049 " />
			<path d="M11.67454815275168,-12.33378380717305 L11.672139065162025,-12.35373589039374 L11.664917606096074,-12.373639907298353 L11.652901172681242,-12.393447907366783 L11.63611871355814,-12.413112171391887 L11.614610659140768,-12.432585326439247 L11.588428824216097,-12.451820459972701 L11.557636283117722,-12.47077123287077 L11.522307217774253,-12.489391991061655 L11.482526738998565,-12.507637875507884 L11.43839068144839,-12.525464930275676 L11.337487377356771,-12.559691875490657 L11.220569059477153,-12.591743202513829 L11.088761715124775,-12.621310239544918 L10.943334721078969,-12.648108239854333 L10.785688618790884,-12.671879124049811 L10.617341626403675,-12.692393965522065 L10.43991501748186,-12.709455195133167 L10.255117507260605,-12.72289850391534 L10.064728796783937,-12.732594425456156 L9.870582433410801,-12.738449582730844 L9.67454815275168,-12.740407587374097 L9.47851387209256,-12.738449582730844 L9.284367508719424,-12.732594425456156 L9.093978798242754,-12.72289850391534 L8.9091812880215,-12.709455195133167 L8.731754679099684,-12.692393965522065 L8.563407686712475,-12.671879124049811 L8.40576158442439,-12.648108239854333 L8.260334590378585,-12.62131023954492 L8.128527246026206,-12.591743202513829 L8.01160892814659,-12.559691875490659 L7.91070562405497,-12.525464930275676 L7.866569566504793,-12.507637875507884 L7.826789087729106,-12.489391991061655 L7.791460022385639,-12.470771232870772 L7.760667481287262,-12.451820459972701 L7.734485646362592,-12.432585326439247 L7.712977591945219,-12.413112171391889 L7.696195132822117,-12.393447907366783 L7.684178699407285,-12.373639907298353 L7.676957240341334,-12.35373589039374 L7.6745481527516795,-12.333783807173054 " />
			<path d="M7.6745481527516795,-12.33378380717305 L7.676035327680193,-12.318105720820942 L7.680494640776464,-12.302450950525783 L7.687919460261859,-12.28684277766947 L7.698298744130989,-12.27130441433535 L7.711617056573109,-12.25585896878781 L7.7278545909278655,-12.240529411106225 L7.768986427678053,-12.210308944026568 L7.821449664406878,-12.180822718741974 L7.884932329105393,-12.152246074737992 L7.959056922868185,-12.124748942685983 L8.043382664686103,-12.098494833952408 L8.137408112545245,-12.073639868280456 L8.24057414524589,-12.050331845425847 L8.352267287210024,-12.028709366267368 L8.471823356506501,-12.008901008618405 L8.598531414400963,-11.991024562640504 L8.731637992944494,-11.975186330405602 L8.870351575461768,-11.961480493772013 L9.013847303295464,-11.949988554333153 " />
			<path d="M22.18067137460141,-10.366833136368577 L22.464748201537816,-10.348531328327944 L22.75368317269312,-10.333702745662105 L23.046449956917574,-10.322400061248407 L23.34200861200874,-10.314663423557088 L23.639309278709067,-10.310520314039161 L23.937295909929972,-10.309985449509067 L24.23491002195587,-10.313060729868802 L24.53109445430335,-10.319735231359237 L24.82479712488012,-10.329985245362618 L25.11497476710487,-10.343774362618355 L25.400596635713406,-10.361053602553032 L25.6806481680876,-10.381761587265187 L25.95413458810166,-10.405824759546865 L26.22008443968444,-10.43315764416751 L26.47755303754617,-10.463663151492089 L26.725625822812187,-10.49723292235493 L26.96342161164411,-10.5337477129643 L27.190095725308932,-10.573077818470416 L27.404842990577645,-10.615083533692415 L27.60690059979568,-10.659615649367645 L27.79555082046581,-10.7065159821606 L27.970123544718746,-10.755617936548807 L28.129998669615475,-10.806747096589815 L28.274608299826134,-10.859721845467211 L28.403438764861324,-10.91435401061502 L28.461791568598763,-10.942231191827965 L28.51603244369035,-10.970449532128873 L28.56611321193882,-10.998983967232498 L28.61198939026519,-11.027809152089729 L28.653620230219783,-11.056899483399743 L28.690968754176115,-11.086229122351533 L28.72400178817541,-11.115772017574646 L28.752689991392593,-11.145501928278696 L28.777007882197594,-11.17539244756114 L28.79693386078883,-11.205417025862602 L28.8124502283787,-11.23554899454889 L28.823543202914152,-11.265761589598798 L28.830202931318247,-11.296027975376628 L28.83242349824194,-11.326321268468314 " />
			<path d="M-25.484175621882468,2.4946691434593284 L-25.484175621882468,-7.296471113649405 " />
			<path d="M-31.619254938261584,-9.887089070318709 L-25.48417562188247,-7.296471113649403 " />
			<path d="M-12.742087810941234,1.2473345717296642 L-12.742087810941232,-8.543805685379068 " />
			<path d="M-25.484175621882468,-7.296471113649403 L-12.74208781094123,-8.543805685379068 " />
			<path d="M-9.438583563660174,-2.825692549033743 L-9.438583563660172,-10.462781949578554 " />
			<path d="M-12.742087810941232,-8.54380568537907 L-9.43858356366017,-10.462781949578554 " />
			<path d="M-9.438583563660172,-10.462781949578554 L-15.573662880039286,-9.862213452079086 " />
			<path d="M11.67454815275168,-12.333783807173049 L11.674548152751678,-2.5426435500643163 " />
			<path d="M7.674548152751679,-12.333783807173049 L7.674548152751678,-2.5426435500643167 " />

       </g>

       <!-- solid lines -->
       <g  stroke="rgb(0,0,0)" fill="none">
			<path d="M-12.270158632758228,-5.18123591333861 L-12.270158632758227,-14.972376170447344 " />
			<path d="M-12.270158632758228,-14.972376170447344 L-2.8315750690980526,-14.300734477977523 " />
			<path d="M-2.8315750690980526,-4.50959422086879 L-2.8315750690980517,-14.300734477977523 " />
			<path d="M-12.270158632758228,-5.18123591333861 L-2.8315750690980526,-4.50959422086879 " />
			<path d="M-15.573662880039286,-3.262259649139126 L-15.573662880039285,-13.053399906247858 " />
			<path d="M-15.573662880039286,-3.262259649139126 L-6.135079316379111,-2.5906179566693055 " />
			<path d="M-12.270158632758228,-5.18123591333861 L-15.57366288003929,-3.262259649139126 " />
			<path d="M-12.270158632758228,-14.972376170447344 L-15.57366288003929,-13.05339990624786 " />
			<path d="M-2.8315750690980526,-4.50959422086879 L-6.135079316379113,-2.5906179566693055 " />
			<path d="M14.67454815275168,-12.33378380717305 L14.6730422462327,-12.35873142495496 L14.668525433777543,-12.38366401522477 L14.66100043614513,-12.408566559522392 L14.650471786112664,-12.433424057486306 L14.63694582574523,-12.45822153588922 L14.620430702575584,-12.482944057657381 L14.600936364696386,-12.507576730868111 L14.578474554767832,-12.532104717720145 L14.553058802944323,-12.55651324347136 L14.524704418724399,-12.58078760533854 L14.459249831412723,-12.628875439172175 L14.382268478666784,-12.676252371417352 L14.293945815308113,-12.722804266894562 L14.194494618368896,-12.768418978010134 L14.084154474493456,-12.812986614929613 L13.963191202753041,-12.856399810311999 L13.831896214264408,-12.898553977967069 L13.690585810154905,-12.93934756481267 L13.539600419565364,-12.978682295524996 L13.379303779526476,-13.016463409292447 L13.210082058684417,-13.052599888102721 L13.032342926986772,-13.087004676013184 L12.846514573569905,-13.119594888876254 L12.653044675213845,-13.150292014014578 L12.45239931784969,-13.17902209936495 L12.245061873717788,-13.2057159316353 L12.031531836881669,-13.230309203045588 L11.812323619903092,-13.252742666250867 L11.587965314577131,-13.27296227707334 L11.358997419712782,-13.290919324699502 L11.125971539023997,-13.306570549028775 L10.889449052268004,-13.31987824489086 L10.649999762832323,-13.330810352880814 L10.408200525028487,-13.339340536592946 L10.164633854399481,-13.345448246067537 L9.919886524388769,-13.349118767297492 L9.674548152751681,-13.350343257675668 L9.429209781114592,-13.349118767297492 L9.18446245110388,-13.345448246067537 L8.940895780474873,-13.339340536592946 L8.699096542671038,-13.330810352880814 L8.459647253235357,-13.319878244890862 L8.223124766479366,-13.306570549028775 L7.9900988857905775,-13.290919324699503 L7.76113099092623,-13.27296227707334 L7.536772685600269,-13.252742666250867 L7.317564468621692,-13.23030920304559 L7.104034431785571,-13.205715931635302 L6.89669698765367,-13.179022099364952 L6.696051630289515,-13.15029201401458 L6.502581731933455,-13.119594888876254 L6.316753378516591,-13.087004676013185 L6.139014246818943,-13.052599888102723 L5.9697925259768825,-13.016463409292449 L5.809495885937993,-12.978682295524997 L5.658510495348454,-12.939347564812671 L5.517200091238953,-12.898553977967069 L5.3859051027503195,-12.856399810312 L5.264941831009906,-12.812986614929615 L5.1546016871344635,-12.768418978010134 L5.055150490195247,-12.722804266894563 L4.966827826836577,-12.676252371417355 L4.889846474090636,-12.628875439172178 L4.824391886778961,-12.580787605338541 L4.796037502559037,-12.556513243471361 L4.770621750735528,-12.532104717720145 L4.748159940806974,-12.507576730868113 L4.728665602927775,-12.482944057657381 L4.7121504797581295,-12.458221535889221 L4.698624519390695,-12.433424057486308 L4.688095869358229,-12.408566559522393 L4.680570871725817,-12.383664015224772 L4.676054059270658,-12.358731424954962 L4.6745481527516795,-12.333783807173061 " />
			<path d="M8.022796029111147,-1.5831554179645744 L8.306872856047553,-1.5648536099239407 L8.595807827202858,-1.5500250272581022 L8.88857461142731,-1.5387223428444046 L9.18413326651848,-1.5309857051530842 L9.481433933218804,-1.5268425956351583 L9.779420564439711,-1.5263077311050648 L10.077034676465606,-1.5293830114647982 L10.373219108813085,-1.536057512955235 L10.666921779389856,-1.5463075269586144 L10.957099421614606,-1.5600966442143513 L11.242721290223143,-1.577375884149029 L11.522772822597338,-1.5980838688611843 L11.796259242611399,-1.6221470411428616 L12.062209094194179,-1.6494799257635075 L12.319677692055906,-1.6799854330880848 L12.567750477321923,-1.7135552039509279 L12.80554626615385,-1.7500699945602967 L13.03222037981867,-1.789400100066414 L13.24696764508738,-1.8314058152884125 L13.449025254305418,-1.8759379309636421 L13.637675474975545,-1.922838263756596 L13.812248199228481,-1.9719402181448045 L13.97212332412521,-2.0230693781858125 L14.116732954335873,-2.0760441270632093 L14.245563419371061,-2.1306762922110165 L14.3039162231085,-2.1585534734239618 L14.358157098200085,-2.18677181372487 L14.408237866448559,-2.215306248828495 L14.454114044774927,-2.2441314336857268 L14.49574488472952,-2.273221764995739 L14.533093408685854,-2.30255140394753 L14.56612644268515,-2.3320942991706426 L14.59481464590233,-2.3618242098746927 L14.619132536707333,-2.391714729157138 L14.639058515298567,-2.421739307458599 L14.654574882888438,-2.4518712761448858 L14.66566785742389,-2.482083871194794 L14.672327585827984,-2.512350256972625 L14.674548152751678,-2.5426435500643114 " />
			<path d="M14.674548152751678,-2.542643550064316 L14.673042246232699,-2.567591167846227 L14.668525433777539,-2.5925237581160374 L14.661000436145128,-2.6174263024136586 L14.650471786112663,-2.642283800377572 L14.636945825745228,-2.6670812787804863 L14.620430702575582,-2.6918038005486475 L14.600936364696384,-2.716436473759378 L14.57847455476783,-2.7409644606114103 L14.55305880294432,-2.765372986362626 L14.524704418724397,-2.7896473482298054 L14.459249831412723,-2.837735182063442 L14.382268478666782,-2.8851121143086185 L14.293945815308112,-2.9316640097858273 L14.194494618368893,-2.977278720901399 L14.084154474493452,-3.0218463578208796 L13.963191202753038,-3.0652595532032656 L13.831896214264404,-3.107413720858334 L13.690585810154904,-3.1482073077039354 L13.539600419565364,-3.1875420384162627 L13.379303779526474,-3.2253231521837136 L13.210082058684417,-3.2614596309939876 L13.03234292698677,-3.2958644189044497 L12.846514573569904,-3.32845463176752 L12.653044675213843,-3.359151756905845 L12.45239931784969,-3.3878818422562165 L12.245061873717788,-3.414575674526567 L12.031531836881667,-3.439168945936854 L11.81232361990309,-3.4616024091421336 L11.58796531457713,-3.4818220199646053 L11.358997419712782,-3.4997790675907687 L11.125971539023993,-3.5154302919200413 L10.889449052268002,-3.5287379877821277 L10.649999762832321,-3.53967009577208 L10.408200525028485,-3.5482002794842114 L10.16463385439948,-3.554307988958803 L9.919886524388769,-3.557978510188758 L9.67454815275168,-3.559203000566934 L9.42920978111459,-3.557978510188758 L9.184462451103878,-3.554307988958803 L8.940895780474872,-3.548200279484212 L8.699096542671036,-3.5396700957720806 L8.459647253235355,-3.5287379877821277 L8.223124766479362,-3.5154302919200413 L7.990098885790576,-3.499779067590769 L7.761130990926228,-3.4818220199646057 L7.536772685600267,-3.4616024091421345 L7.31756446862169,-3.4391689459368546 L7.1040344317855695,-3.414575674526568 L6.896696987653669,-3.3878818422562174 L6.696051630289514,-3.3591517569058458 L6.502581731933454,-3.3284546317675208 L6.316753378516589,-3.295864418904451 L6.139014246818941,-3.261459630993989 L5.969792525976881,-3.225323152183714 L5.8094958859379915,-3.1875420384162636 L5.658510495348453,-3.1482073077039368 L5.517200091238951,-3.107413720858335 L5.385905102750318,-3.0652595532032665 L5.264941831009904,-3.0218463578208805 L5.154601687134462,-2.9772787209014004 L5.0551504901952455,-2.931664009785829 L4.9668278268365755,-2.8851121143086207 L4.889846474090635,-2.837735182063444 L4.824391886778959,-2.7896473482298076 L4.796037502559035,-2.7653729863626273 L4.770621750735526,-2.740964460611412 L4.748159940806972,-2.716436473759379 L4.728665602927773,-2.691803800548648 L4.712150479758128,-2.6670812787804867 L4.698624519390693,-2.6422838003775735 L4.688095869358227,-2.61742630241366 L4.680570871725815,-2.5925237581160387 L4.6760540592706565,-2.567591167846228 L4.674548152751678,-2.5426435500643265 " />
			<path d="M4.674548152751678,-2.542643550064317 L4.6782660900729605,-2.503448334184046 L4.68941437281364,-2.4643114084461493 L4.7079764215271265,-2.4252909763053636 L4.733924631199953,-2.3864450679700693 L4.767220412305253,-2.347831454101217 L4.807814248192143,-2.309507559897252 L4.855645768725639,-2.271530379692798 L4.9106438400676105,-2.23395639219811 L4.972726670465241,-2.1968414765053543 L5.041801931889674,-2.1602408289866237 L5.1177668973439365,-2.1242088812072755 L5.20050859363596,-2.0887992189766713 L5.289903969389477,-2.054064502656709 L5.385820078042942,-2.020056388846648 L5.488114275564323,-1.986825453560713 L5.596634432587735,-1.954421117012712 L5.711219160656416,-1.9228915701195346 L5.83169805223559,-1.892283702832827 L5.957891934138286,-1.862643034405434 L6.089613133987206,-1.834013645696305 L6.226665759316383,-1.8064381136145464 L6.3688459888975375,-1.7799574478001112 L6.667736162138732,-1.7304365536777018 L6.984506306874886,-1.6857454387329516 L7.317272753233715,-1.646149858145694 L7.664056709526898,-1.6118852665617254 L8.022796029111138,-1.583155417964575 " />
			<path d="M9.013847303295465,-2.1588482972244196 L9.243052022532149,-2.145596140941831 L9.478382198258398,-2.137980412099824 L9.716497117426892,-2.136109222480616 L9.95401653517624,-2.140009135220684 L10.187568660296849,-2.1496247877243304 L10.41383802068994,-2.164819677583064 L10.629612529328679,-2.185378100343993 L10.831829082579777,-2.211008211618961 L11.017617043578474,-2.241346170065156 L11.10351594968596,-2.258148456153955 L11.184338993373174,-2.275961302424047 L11.259799081641225,-2.2947214355412284 L11.3296281713424,-2.314362217296512 L11.393578221301091,-2.334813881312915 L11.451422073385356,-2.356003780863874 L11.50295425939943,-2.3778566469229965 L11.547991730931042,-2.400294855528538 L11.586374509560978,-2.423238703512881 L11.617966255125348,-2.446606691617602 L11.642654750011939,-2.470315813988467 L11.660352297770434,-2.49428185302203 L11.670996034620561,-2.5184196785165076 L11.674548152751678,-2.5426435500643145 " />
			<path d="M11.674548152751678,-2.5426435500643163 L11.672139065162023,-2.562595633285005 L11.664917606096072,-2.582499650189619 L11.65290117268124,-2.602307650258049 L11.636118713558139,-2.6219719142831543 L11.614610659140766,-2.641445069330512 L11.588428824216095,-2.6606802028639667 L11.55763628311772,-2.6796309757620373 L11.522307217774252,-2.698251733952921 L11.482526738998564,-2.7164976183991496 L11.438390681448388,-2.7343246731669417 L11.33748737735677,-2.768551618381924 L11.220569059477151,-2.800602945405095 L11.088761715124773,-2.830169982436185 L10.943334721078967,-2.856967982745598 L10.785688618790882,-2.8807388669410767 L10.617341626403674,-2.9012537084133316 L10.439915017481859,-2.918314938024432 L10.255117507260604,-2.9317582468066066 L10.064728796783935,-2.941454168347422 L9.8705824334108,-2.9473093256221112 L9.674548152751678,-2.949267330265364 L9.478513872092558,-2.9473093256221112 L9.284367508719422,-2.9414541683474225 L9.093978798242752,-2.9317582468066066 L8.909181288021498,-2.9183149380244324 L8.731754679099682,-2.901253708413332 L8.563407686712473,-2.8807388669410767 L8.405761584424388,-2.8569679827455983 L8.260334590378584,-2.8301699824361854 L8.128527246026204,-2.8006029454050956 L8.011608928146588,-2.7685516183819243 L7.910705624054968,-2.734324673166942 L7.866569566504792,-2.7164976183991505 L7.826789087729105,-2.698251733952922 L7.791460022385637,-2.6796309757620382 L7.7606674812872605,-2.6606802028639676 L7.73448564636259,-2.641445069330513 L7.712977591945217,-2.621971914283155 L7.696195132822115,-2.6023076502580493 L7.684178699407283,-2.5824996501896194 L7.676957240341332,-2.5625956332850057 L7.674548152751678,-2.5426435500643207 " />
			<path d="M7.674548152751678,-2.542643550064317 L7.676035327680191,-2.5269654637122083 L7.6804946407764625,-2.51131069341705 L7.687919460261857,-2.4957025205607355 L7.698298744130987,-2.4801641572266178 L7.7116170565731075,-2.464718711679077 L7.727854590927864,-2.449389153997491 L7.768986427678051,-2.419168686917834 L7.8214496644068765,-2.3896824616332397 L7.884932329105391,-2.3611058176292588 L7.959056922868183,-2.333608685577249 L8.043382664686101,-2.3073545768436747 L8.137408112545243,-2.282499611171721 L8.240574145245889,-2.259191588317112 L8.352267287210022,-2.2375691091586347 L8.4718233565065,-2.2177607515096707 L8.598531414400961,-2.1998843055317705 L8.731637992944492,-2.1840460732968676 L8.870351575461765,-2.1703402366632805 L9.013847303295462,-2.15884829722442 " />
			<path d="M28.83242349824194,-11.32632126846832 L28.828705560920657,-11.365516484348591 L28.81755727817998,-11.404653410086487 L28.79899522946649,-11.443673842227273 L28.773047019793665,-11.482519750562567 L28.739751238688363,-11.521133364431419 L28.699157402801475,-11.559457258635383 L28.65132588226798,-11.597434438839839 L28.59632781092601,-11.635008426334526 L28.534244980528378,-11.672123342027282 L28.465169719103944,-11.708723989546012 L28.389204753649683,-11.744755937325362 L28.30646305735766,-11.780165599555964 L28.217067681604142,-11.814900315875928 L28.121151572950676,-11.848908429685988 L28.018857375429295,-11.882139364971923 L27.910337218405882,-11.914543701519925 L27.7957524903372,-11.946073248413102 L27.67527359875803,-11.97668111569981 L27.54907971685533,-12.006321784127202 L27.41735851700641,-12.034951172836331 L27.280305891677237,-12.06252670491809 L27.13812566209608,-12.089007370732524 L26.839235488854886,-12.138528264854935 L26.522465344118732,-12.183219379799684 L26.189698897759904,-12.222814960386943 L25.842914941466724,-12.25707955197091 L25.484175621882514,-12.28580940056806 " />
			<path d="M25.484175621882468,-2.4946691434593284 L25.484175621882468,-12.285809400568061 " />
			<path d="M22.18067137460141,-0.5756928792598432 L22.464748201537816,-0.5573910712192096 L22.75368317269312,-0.5425624885533711 L23.046449956917574,-0.5312598041396734 L23.34200861200874,-0.5235231664483531 L23.639309278709067,-0.5193800569304272 L23.937295909929972,-0.5188451924003337 L24.23491002195587,-0.521920472760067 L24.53109445430335,-0.5285949742505038 L24.82479712488012,-0.5388449882538833 L25.11497476710487,-0.5526341055096202 L25.400596635713406,-0.5699133454442981 L25.6806481680876,-0.5906213301564531 L25.95413458810166,-0.6146845024381306 L26.22008443968444,-0.6420173870587764 L26.47755303754617,-0.6725228943833538 L26.725625822812187,-0.7060926652461967 L26.96342161164411,-0.7426074558555656 L27.190095725308932,-0.7819375613616828 L27.404842990577645,-0.8239432765836815 L27.60690059979568,-0.8684753922589111 L27.79555082046581,-0.9153757250518648 L27.970123544718746,-0.9644776794400733 L28.129998669615475,-1.0156068394810813 L28.274608299826134,-1.0685815883584782 L28.403438764861324,-1.1232137535062852 L28.461791568598763,-1.1510909347192309 L28.51603244369035,-1.1793092750201388 L28.56611321193882,-1.2078437101237642 L28.61198939026519,-1.2366688949809954 L28.653620230219783,-1.2657592262910082 L28.690968754176115,-1.2950888652427985 L28.72400178817541,-1.3246317604659112 L28.752689991392593,-1.3543616711699615 L28.777007882197594,-1.3842521904524072 L28.79693386078883,-1.414276768753868 L28.8124502283787,-1.4444087374401546 L28.823543202914152,-1.474621332490063 L28.830202931318247,-1.5048877182678941 L28.83242349824194,-1.5351810113595805 " />
			<path d="M28.83242349824194,-1.535181011359585 L28.828705560920657,-1.5743762272398563 L28.81755727817998,-1.613513152977753 L28.79899522946649,-1.6525335851185385 L28.773047019793665,-1.691379493453833 L28.739751238688363,-1.729993107322685 L28.699157402801475,-1.76831700152665 L28.65132588226798,-1.8062941817311042 L28.59632781092601,-1.843868169225792 L28.534244980528378,-1.8809830849185474 L28.465169719103944,-1.917583732437278 L28.389204753649683,-1.953615680216627 L28.30646305735766,-1.9890253424472304 L28.217067681604142,-2.023760058767193 L28.121151572950676,-2.057768172577254 L28.018857375429295,-2.090999107863189 L27.910337218405882,-2.12340344441119 L27.7957524903372,-2.154932991304368 L27.67527359875803,-2.185540858591075 L27.54907971685533,-2.2151815270184683 L27.41735851700641,-2.2438109157275976 L27.280305891677237,-2.271386447809356 L27.13812566209608,-2.2978671136237914 L26.839235488854886,-2.3473880077462006 L26.522465344118732,-2.392079122690951 L26.189698897759904,-2.4316747032782082 L25.842914941466724,-2.465939294862177 L25.484175621882514,-2.494669143459325 " />
			<path d="M22.18067137460141,-0.5756928792598432 L22.18067137460141,-10.366833136368577 " />
			<path d="M25.484175621882468,-12.285809400568063 L22.180671374601406,-10.366833136368578 " />
			<path d="M22.18067137460141,-0.5756928792598432 L25.48417562188247,-2.494669143459328 " />
			<path d="M-28.315750690980522,-2.014925077409462 L-28.315750690980522,-11.806065334518195 " />
			<path d="M-31.619254938261584,-0.09594881320997706 L-31.619254938261584,-9.88708907031871 " />
			<path d="M-28.315750690980522,-2.014925077409462 L-31.619254938261584,-0.09594881320997728 " />
			<path d="M-28.315750690980522,-11.806065334518195 L-31.619254938261584,-9.88708907031871 " />
			<path d="M-31.619254938261584,-0.09594881320997706 L-25.48417562188247,2.4946691434593284 " />
			<path d="M-25.484175621882468,2.4946691434593284 L-12.74208781094123,1.2473345717296642 " />
			<path d="M-9.438583563660174,-0.6716416924698206 L-9.438583563660174,-2.825692549033743 " />
			<path d="M-12.742087810941234,1.2473345717296642 L-9.438583563660174,-0.6716416924698203 " />
			<path d="M-22.18067137460141,0.5756928792598432 L-22.18067137460141,-9.21544737784889 " />
			<path d="M-9.438583563660174,-0.6716416924698206 L-22.18067137460141,0.5756928792598436 " />
			<path d="M-15.573662880039286,-9.862213452079086 L-22.18067137460141,-9.21544737784889 " />
			<path d="M-22.18067137460141,0.5756928792598432 L-28.315750690980522,-2.0149250774094623 " />
			<path d="M-22.18067137460141,-9.21544737784889 L-28.315750690980522,-11.806065334518195 " />
			<path d="M4.674548152751678,-2.542643550064317 L4.674548152751679,-12.33378380717305 " />
			<path d="M14.67454815275168,-2.542643550064316 L14.674548152751681,-12.33378380717305 " />
			<path d="M28.832423498241944,-1.5351810113595847 L28.832423498241944,-11.32632126846832 " />

       </g>
    </g>
    <g transform="translate(20,210.0)" stroke="rgb(0,0,255)">
        <line x1="30" y1="-30" x2="75" y2="-33" stroke-width="3" stroke="#000000" />
         <text x="80" y="-30" style="stroke:#000000">X </text>

        <line x1="30" y1="-30" x2="30" y2="-75" stroke-width="3" stroke="#000000" />
         <text x="25" y="-85" style="stroke:#000000">Y </text>

        <line x1="30" y1="-30" x2="58" y2="-15" stroke-width="3" stroke="#000000" />
         <text x="65" y="-5" style="stroke:#000000">Z </text>
        <!--
            <line x1="0" y1="0" x2="9.925282730242477" y2="0" stroke-width="3" />
            <text x="0" y="20" style="stroke:#000000">1  mm </text>
        -->
    </g>
</svg>
