<?xml version="1.0" encoding="UTF-8" standalone="no"?>
<svg
   xmlns:svg="http://www.w3.org/2000/svg"
   xmlns="http://www.w3.org/2000/svg"
   width="800.0"
   height="240.0"

>
    <g transform="scale(7.240702817083336, -7.240702817083336)   translate(27.62162804529561,-25.702651781096122)" stroke-width="0.13810814022647805"  fill="none">
       <!-- hidden lines -->
       <g  stroke="rgb(160,160,160)" fill="none" stroke-dasharray="0.13810814022647805,0.13810814022647805" >
			<path d="M9.438583563660174,0.6716416924698198 L12.742087810941236,-1.2473345717296649 " />
			<path d="M9.438583563660174,0.6716416924698198 L9.438583563660174,10.462781949578552 " />
			<path d="M0.0,0.0 L9.438583563660176,0.6716416924698198 " />
			<path d="M47.19291781830087,3.3582084623490984 L50.49642206558193,1.4392321981496137 " />
			<path d="M47.19291781830087,3.3582084623490984 L47.19291781830087,22.940488976566563 " />
			<path d="M18.877167127320348,1.3432833849396395 L47.19291781830087,3.358208462349099 " />

       </g>

       <!-- solid lines -->
       <g  stroke="rgb(0,0,0)" fill="none">
			<path d="M0.0,0.0 L3.3035042472810616,-1.9189762641994847 " />
			<path d="M3.3035042472810616,-1.9189762641994845 L3.3035042472810616,7.872163992909249 " />
			<path d="M0.0,9.791140257108733 L3.3035042472810616,7.872163992909249 " />
			<path d="M0.0,0.0 L0.0,9.791140257108733 " />
			<path d="M12.742087810941236,-1.2473345717296649 L12.742087810941236,8.543805685379068 " />
			<path d="M9.438583563660174,10.462781949578552 L12.742087810941236,8.543805685379068 " />
			<path d="M3.3035042472810616,-1.9189762641994845 L12.742087810941237,-1.2473345717296649 " />
			<path d="M0.0,9.791140257108733 L9.438583563660176,10.462781949578552 " />
			<path d="M3.3035042472810616,7.872163992909249 L12.742087810941237,8.543805685379068 " />
			<path d="M18.877167127320348,1.3432833849396395 L22.18067137460141,-0.5756928792598452 " />
			<path d="M22.18067137460141,-0.575692879259845 L22.18067137460141,19.006587634957622 " />
			<path d="M18.877167127320348,20.925563899157105 L22.18067137460141,19.00658763495762 " />
			<path d="M18.877167127320348,1.3432833849396395 L18.877167127320348,20.925563899157105 " />
			<path d="M50.49642206558193,1.439232198149614 L50.49642206558193,21.02151271236708 " />
			<path d="M47.19291781830087,22.940488976566563 L50.49642206558193,21.021512712367077 " />
			<path d="M22.18067137460141,-0.575692879259845 L50.49642206558194,1.4392321981496141 " />
			<path d="M18.877167127320348,20.925563899157105 L47.19291781830087,22.940488976566563 " />
			<path d="M22.18067137460141,19.00658763495762 L50.49642206558194,21.021512712367077 " />

       </g>
    </g>
    <g transform="translate(20,210.0)" stroke="rgb(0,0,255)">
        <line x1="30" y1="-30" x2="75" y2="-33" stroke-width="3" stroke="#000000" />
         <text x="80" y="-30" style="stroke:#000000">X </text>

        <line x1="30" y1="-30" x2="30" y2="-75" stroke-width="3" stroke="#000000" />
         <text x="25" y="-85" style="stroke:#000000">Y </text>

        <line x1="30" y1="-30" x2="58" y2="-15" stroke-width="3" stroke="#000000" />
         <text x="65" y="-5" style="stroke:#000000">Z </text>
        <!--
            <line x1="0" y1="0" x2="7.240702817083336" y2="0" stroke-width="3" />
            <text x="0" y="20" style="stroke:#000000">1  mm </text>
        -->
    </g>
</svg>
