<?xml version="1.0" encoding="UTF-8" standalone="no"?>
<svg
   xmlns:svg="http://www.w3.org/2000/svg"
   xmlns="http://www.w3.org/2000/svg"
   width="800.0"
   height="240.0"

>
    <g transform="scale(8.118018500663851, -8.118018500663851)   translate(24.636553856540857,-22.71757759234137)" stroke-width="0.12318276928270427"  fill="none">
       <!-- hidden lines -->
       <g  stroke="rgb(160,160,160)" fill="none" stroke-dasharray="0.12318276928270427,0.12318276928270427" >
			<path d="M9.438583563660174,0.6716416924698198 L12.742087810941236,-1.2473345717296649 " />
			<path d="M0.0,0.0 L9.438583563660176,0.6716416924698198 " />
			<path d="M18.877167127320348,11.134423642048372 L22.18067137460141,9.215447377848887 " />
			<path d="M9.438583563660174,0.6716416924698198 L18.877167127320348,11.134423642048372 " />
			<path d="M18.877167127320348,11.134423642048372 L9.438583563660174,20.253922206687285 " />

       </g>

       <!-- solid lines -->
       <g  stroke="rgb(0,0,0)" fill="none">
			<path d="M0.0,0.0 L3.3035042472810616,-1.9189762641994847 " />
			<path d="M3.3035042472810616,-1.9189762641994845 L12.742087810941237,-1.2473345717296649 " />
			<path d="M12.742087810941236,-1.2473345717296649 L22.18067137460141,9.215447377848887 " />
			<path d="M9.438583563660174,20.253922206687285 L12.742087810941236,18.3349459424878 " />
			<path d="M22.18067137460141,9.215447377848887 L12.742087810941236,18.3349459424878 " />
			<path d="M0.0,19.582280514217466 L3.3035042472810616,17.66330425001798 " />
			<path d="M9.438583563660174,20.253922206687285 L-1.7763568394002505e-15,19.582280514217466 " />
			<path d="M12.742087810941236,18.3349459424878 L3.30350424728106,17.66330425001798 " />
			<path d="M9.438583563660174,10.462781949578552 L12.742087810941236,8.543805685379068 " />
			<path d="M0.0,19.582280514217466 L9.438583563660174,10.462781949578552 " />
			<path d="M3.3035042472810616,17.66330425001798 L12.742087810941236,8.543805685379066 " />
			<path d="M9.438583563660174,10.462781949578552 L0.0,0.0 " />
			<path d="M12.742087810941236,8.543805685379068 L3.3035042472810616,-1.9189762641994843 " />

       </g>
    </g>
    <g transform="translate(20,210.0)" stroke="rgb(0,0,255)">
        <line x1="30" y1="-30" x2="75" y2="-33" stroke-width="3" stroke="#000000" />
         <text x="80" y="-30" style="stroke:#000000">X </text>

        <line x1="30" y1="-30" x2="30" y2="-75" stroke-width="3" stroke="#000000" />
         <text x="25" y="-85" style="stroke:#000000">Y </text>

        <line x1="30" y1="-30" x2="58" y2="-15" stroke-width="3" stroke="#000000" />
         <text x="65" y="-5" style="stroke:#000000">Z </text>
        <!--
            <line x1="0" y1="0" x2="8.118018500663851" y2="0" stroke-width="3" />
            <text x="0" y="20" style="stroke:#000000">1  mm </text>
        -->
    </g>
</svg>
