<?xml version="1.0" encoding="UTF-8" standalone="no"?>
<svg
   xmlns:svg="http://www.w3.org/2000/svg"
   xmlns="http://www.w3.org/2000/svg"
   width="800.0"
   height="240.0"

>
    <g transform="scale(10.442523252772283, -10.442523252772283)   translate(23.87175092975719,-10.180529119221834)" stroke-width="0.09576229573963552"  fill="none">
       <!-- hidden lines -->
       <g  stroke="rgb(160,160,160)" fill="none" stroke-dasharray="0.09576229573963552,0.09576229573963552" >
			<path d="M0.0,-4.8955701285543665 L47.19291781830087,-1.537361666205268 " />
			<path d="M-2.511472799872758,-4.323482898717109 L-2.3698231112912294,-4.402209872750258 L-2.2252586134472363,-4.475522264550975 L-2.077957116209933,-4.543329902140743 L-1.9280997958732289,-4.605549384218779 L-1.7758709723145365,-4.662104182743052 L-1.6214578822870171,-4.712924737057414 L-1.4650504491241523,-4.75794853944906 L-1.3068410491399078,-4.797120212031084 L-1.1470242750118071,-4.830391574855571 L-0.9857966964379454,-4.857721705173448 L-0.8233566183623304,-4.8790769877681965 L-0.659903837065922,-4.8944311563015335 L-0.49563939442337746,-4.903765325620199 L-0.3307653306277507,-4.907068014984108 L-0.16548443568729043,-4.904335162187308 L-3.552713678800501e-15,-4.895570128554367 " />
			<path d="M47.19291781830087,-1.537361666205269 L47.383144370342606,-1.5198466297898023 L47.573061724678524,-1.4944027136929567 L47.762361186178396,-1.4610712749198416 L47.95073506404627,-1.4199064909987196 L48.137877171946705,-1.3709752719198778 L48.323483325685636,-1.3143571513788967 L48.50725183763687,-1.2501441575011438 L48.6888840071107,-1.1784406632575686 L48.86808460586743,-1.0993632168149872 L49.04456235798672,-1.013040352096549 L49.21803041331281,-0.9196123798603719 L49.388206813705985,-0.8192311596358652 L49.55481495134245,-0.71205985288849 L49.71758401831778,-0.5982726578141357 L49.87624944682296,-0.47805452619419553 L50.030553339177786,-0.35160086277156877 L50.180244887022425,-0.21911720763623377 L50.32508077898589,-0.0808189021366319 L50.4648255961688,0.06306926114008293 L50.59925219479754,0.2123134037500125 L50.72814207542789,0.36667094154280244 L50.851285738098014,0.5258909789623454 L50.96848302285349,0.6897147168569875 L51.079543435091,0.8578758731363885 L51.18428645519168,1.0301011155912918 L51.28254183194103,1.2061105061726738 L51.37414985925833,1.3856179560081543 L51.458961635785826,1.5683316904160693 L51.536839306915695,1.7539547231613528 L51.60765628886145,1.9421853391823791 L51.67129747440953,2.13271758500413 L51.727659420016664,2.325241766040544 L51.776650513948894,2.5194449499777436 L51.818191125188974,2.715011475419931 L51.85221373287003,2.911623464971166 L51.878663036025245,3.1089613419190845 L51.89749604347507,3.3067043496807162 L51.90868214370584,3.5045310731660826 L51.9122031546263,3.7021199612121363 L51.90805335312109,3.8991498492378875 L51.89623948435326,4.095300481271179 L51.87678075080047,4.290253030498566 L51.84970878104301,4.483690617492245 L51.81506757835409,4.675298825271648 L51.772913449176116,4.864766210362527 L51.7233149115992,5.051784809022866 L51.66635258399057,5.236050637812762 L51.60211905395604,5.417264187694643 L51.5307187278464,5.595130910860723 L51.452267661053455,5.769361699496381 L51.36689336937145,5.939673355701263 L51.274734621730595,6.105789051804324 L51.17594121463951,6.2674387803245715 L51.12410628100445,6.346506502542352 L51.070673728703234,6.424359792846136 L51.015665272503234,6.500967011982045 L50.959103267612605,6.57629702709435 L50.90101070059526,6.650319224377734 L50.841411180029176,6.7230035215186135 L50.780328926912034,6.794320379920468 L50.717788764817826,6.864240816708198 L50.65381610980872,6.932736416506654 L50.588436960106065,6.999779342988521 L50.52167788552479,7.065342350186887 L50.45356601667556,7.129398793567889 L50.38412903393905,7.191922640858948 L50.31339515621667,7.252888482628165 L50.241393129462615,7.3122715426106195 L50.168152215001534,7.370047687777337 L50.09370217763692,7.426193438142848 L50.01807327355478,7.48068597630736 L49.94129623802769,7.533503156729658 L49.86340227292405,7.584623514726948 L49.78442303402779,7.634026275198032 L49.70439061817365,7.681691361066196 " />
			<path d="M1.3834159349764317,1.430798906364112 L1.3407277687499213,1.4739228756706002 L1.2966089507044312,1.5154740645124307 L1.2511065587544783,1.5554081348179372 L1.204269147186272,1.5936824740958626 L1.1561466948468362,1.630256240905921 L1.1067905518130303,1.6650904084395144 L1.0562533845973683,1.69814780616411 L1.0045891199491106,1.7293931594868392 " />
			<path d="M1.0045891199491035,1.7293931594868432 L0.9249586023597473,1.7728637699691816 L0.8430997784805004,1.812063396345138 L0.7592098533880751,1.8468976032812907 L0.6734909252599096,1.8772824721220143 L0.5861494985019549,1.9031448030568714 L0.49739598626147663,1.9244222914653675 L0.4074442035233514,1.9410636780142387 L0.31651085201104034,1.9530288721456754 L0.2248149981331583,1.9602890486589875 L0.13257754523330612,1.962826717153038 L0.040020701414565374,1.9606357641621515 L-0.052632555779282386,1.953721467883988 L-0.14515901653619034,1.9421004854639023 L-0.23733577650783544,1.9258008128664217 L-0.3289407738057142,1.904861717430517 L-0.41975332396768517,1.8793336432711412 L-0.5095546516061702,1.849278089754939 L-0.5981284174572196,1.8147674633428865 L-0.6852612395607516,1.7758849031567854 L-0.7707432073163862,1.7327240806898332 L-0.8543683871764639,1.6853889741437942 L-0.9359353187580012,1.6339936179364039 L-1.0152475001783985,1.578661827982467 L-1.0921138614456873,1.5195269034104752 L-1.166349224762877,1.4567313054333302 L-1.2377747506374868,1.3904263141468034 L-1.306218368721547,1.3207716640825358 L-1.3715151923441415,1.247935159393557 L-1.4335079157378363,1.172092269599389 L-1.4920471930020536,1.0934257068645994 L-1.5469919978904294,1.0121249858291923 L-1.5982099635553917,0.9283859670512443 L-1.6455777014314892,0.8424103851616631 L-1.688981098489255,0.7544053628677923 L-1.728315592143488,0.6645829119766674 L-1.7634864221536812,0.5731594226400009 L-1.7944088589097384,0.48035514205135826 L-1.8210084075530282,0.3863936438513744 L-1.843220987441024,0.29150128951926646 L-1.8609930865231838,0.19590668304820935 L-1.8742818902561664,0.09984012021829036 L-1.8830553847478175,0.0035330337938034306 L-1.8872924338814392,-0.09278256401854978 L-1.886982830234547,-0.18887464050738945 L-1.8821273196694444,-0.28451170144378246 L-1.872737599536375,-0.3794633487711152 L-1.858836290493582,-0.4735008356541943 L-1.8404568820121594,-0.5663976175504097 L-1.817643651696986,-0.657929897975374 L-1.7904515586180945,-0.747877167648261 L-1.7589461109094569,-0.8360227357179799 L-1.723203207954155,-0.9221542517904111 L-1.6833089575361169,-1.0060642174991061 L-1.639359468398923,-1.0875504863870282 L-1.5914606187114257,-1.1664167508950718 L-1.5397278009979656,-1.242473015284168 L-1.4842856441476742,-1.3155360533516616 L-1.4252677131725635,-1.3854298498392819 L-1.3628161874377123,-1.4519860244693161 L-1.2970815181387225,-1.5150442375874498 L-1.2282220658516134,-1.574452576435033 L-1.1564037190283218,-1.630067921120225 L-1.081799494356888,-1.681756289406351 L-1.004589119949118,-1.729393159486835 " />
			<path d="M-1.0045891199491033,-1.7293931594868435 L-0.9518528873105564,-1.758793127395014 L-0.8981009599900819,-1.7863163380333156 L-0.843390695114449,-1.8119334221798369 L-0.7877804724247097,-1.8356170445851068 L-0.7313296319808669,-1.8573419331407495 L-0.6740984108418121,-1.8770849058466208 L-0.616147878788103,-1.8948248955476479 L-0.5575398731561676,-1.9105429724139835 " />
			<path d="M9.438583563660174,2.629869743891567 L9.36249294284348,2.6228637293253803 L9.286526001109113,2.6126861628866425 L9.210806216509166,2.5993535873773963 L9.135456665362016,2.5828876738089472 L9.060599822201839,2.5633151861774097 L8.986357360706268,2.5406679379610178 L8.912849955925774,2.5149827404099168 L8.840197088136241,2.4863013427124874 L8.768516848633551,2.454670364135455 L8.697925747785836,2.4201412182480793 L8.628538525655399,2.3827700293536087 L8.560467965498129,2.3426175412638055 L8.49382471044354,2.299749018564855 L8.42871708365341,2.254234140535113 L8.365250912251337,2.206146887887137 L8.303529355309406,2.155565422518087 L8.243652736171553,2.102571960463953 L8.185718379386167,2.047252638264112 L8.129820452513002,1.9896973729534264 L8.076049813061505,1.9299997159094548 L8.024493860809367,1.868256700792339 L7.9752363957413195,1.8045686858245222 L7.928357481839128,1.739039190666666 L7.883933316944123,1.671774728154904 L7.842036108903851,1.6028846311729414 L7.80273395820411,1.532480874940389 L7.766090747277189,1.4606778950061967 L7.732166036666191,1.3875924012430314 L7.701014968214244,1.3133431881449185 L7.672688175435943,1.2380509417365078 L7.647231701216712,1.1618380434078075 L7.624686922973858,1.0848283709932425 L7.605090485400963,1.0071470974183627 L7.588474240904933,0.9289204872414882 L7.574865197832512,0.8502756914209949 L7.564285476570424,0.7713405406418259 L7.556752273590494,0.6922433375371712 L7.552277833498186,0.6131126481430255 L7.550869429130005,0.5340770929246049 L7.552529349732085,0.4552651377143042 L7.557254897239218,0.37680488490098785 L7.565038390660334,0.298823865210033 L7.575867178563317,0.22144883041256114 L7.589723659638885,0.14480554730080097 L7.606585311310074,0.06901859326444992 L7.626424726340842,-0.005788846199685671 L7.649209657384294,-0.07949517771564396 L7.674903069398107,-0.15198059766839778 L7.703463199841964,-0.22312728693483164 L7.734843626559142,-0.29281960238909366 L7.768993343231943,-0.360944264871046 L7.805856842288284,-0.4273905433122708 L7.845374205124718,-0.492050434720369 L7.887481199499227,-0.5548188397289949 L7.9321093839354795,-0.6155937334282809 L7.9791862189688505,-0.6742763311979857 L8.02863518505339,-0.7307712492738186 L8.080375906938094,-0.7849866597859482 L8.134324284310296,-0.8368344400176956 L8.190392628493852,-0.8862303156418067 L8.248489804979911,-0.9330939977014766 L8.308521381558608,-0.9773493131134855 L8.370389781810903,-1.01892432848132 L8.433994443711056,-1.0577514670170154 " />
			<path d="M8.433994443711072,-1.0577514670170238 L8.486730676349618,-1.087151434925194 L8.540482603670092,-1.114674645563496 L8.595192868545725,-1.1402917297100172 L8.650803091235463,-1.163975352115287 L8.707253931679308,-1.1857002406709296 L8.764485152818361,-1.205443213376801 L8.82243568487207,-1.223183203077828 L8.881043690504006,-1.2389012799441637 " />
			<path d="M39.13775018961713,4.11736567624339 L39.09506202339062,4.1604896455498785 L39.05094320534513,4.202040834391709 L39.005440813395175,4.241974904697215 L38.95860340182697,4.280249243975141 L38.910480949487535,4.3168230107852 L38.86112480645373,4.351657178318793 L38.810587639238065,4.384714576043389 L38.758923374589806,4.415959929366118 " />
			<path d="M38.7589233745898,4.415959929366123 L38.70226349915719,4.447450718979382 L38.644437700019594,4.476775675699669 L38.58551710112467,4.5038987307355765 L38.52557417298999,4.528786523566791 L38.46468264356651,4.5514084429765 L38.402917407555506,4.571736664702245 L38.340354434290354,4.589746185658902 L38.27707067429666,4.605414854691712 L38.21314396464542,4.618723399821507 L38.14865293321588,4.629655451948658 L38.083676901985626,4.638197564986557 L38.01829578946707,4.644339232399892 L37.95259001241005,4.648072900127358 L37.8866403868918,4.649393975872922 L37.82052802891562,4.6483008347542025 L37.7543342546407,4.644794821301026 " />
			<path d="M37.754334254640696,4.6447948213010255 L9.43858356366017,2.6298697438915664 " />
			<path d="M48.5763337532773,4.789007368713214 L48.533645587050785,4.832131338019702 L48.489526769005295,4.873682526861533 L48.44402437705535,4.913616597167038 L48.39718696548714,4.951890936444963 L48.3490645131477,4.988464703255021 L48.2997083701139,5.023298870788613 L48.24917120289824,5.056356268513209 L48.19750693824998,5.087601621835938 " />
			<path d="M48.19750693824997,5.087601621835942 L48.117876420660615,5.13107223231828 L48.03601759678137,5.170271858694236 L47.95212767168894,5.205106065630389 L47.86640874356078,5.2354909344711125 L47.77906731680282,5.26135326540597 L47.690313804562344,5.282630753814466 L47.600362021824225,5.299272140363337 L47.50942867031191,5.311237334494773 L47.417732816434025,5.318497511008086 L47.32549536353417,5.321035179502136 L47.23293851971543,5.31884422651125 L47.14028526252159,5.311929930233086 L47.04775880176468,5.300308947813001 L46.955582041793036,5.28400927521552 L46.86397704449516,5.263070179779615 L46.77316449433319,5.237542105620239 L46.6833631666947,5.207486552104037 L46.59478940084365,5.1729759256919845 L46.50765657874012,5.134093365505883 L46.422174610984484,5.090932543038932 L46.338549431124406,5.043597436492893 L46.25698249954287,4.9922020802855025 L46.17767031812247,4.936870290331566 L46.10080395685518,4.877735365759573 L46.026568593537995,4.814939767782429 L45.955143067663386,4.748634776495901 L45.886699449579325,4.678980126431634 L45.82140262595673,4.606143621742655 L45.759409902563036,4.530300731948487 L45.70087062529882,4.451634169213698 L45.64592582041044,4.3703334481782905 L45.59470785474548,4.286594429400343 L45.54734011686938,4.2006188475107615 L45.50393671981161,4.112613825216891 L45.46460222615738,4.022791374325766 L45.42943139614719,3.931367884989099 L45.39850895939113,3.8385636044004565 L45.37190941074784,3.744602106200473 L45.34969683085985,3.649709751868365 L45.33192473177769,3.554115145397308 L45.318635928044706,3.458048582567389 L45.30986243355305,3.3617414961429017 L45.30562538441943,3.2654258983305486 L45.305934988066326,3.169333821841709 L45.31079049863143,3.073696760905316 L45.32018021876449,2.9787451135779834 L45.334081527807285,2.884707626694904 L45.35246093628871,2.7918108447986887 L45.37527416660389,2.7002785643737246 L45.402466259682775,2.6103312947008375 L45.433971707391414,2.5221857266311183 L45.46971461034671,2.4360542105586873 L45.50960886076475,2.3521442448499923 L45.55355834990195,2.27065797596207 L45.60145719958945,2.1917917114540266 L45.653190017302904,2.1157354470649303 L45.708632174153195,2.042672408997437 L45.767650105128304,1.9727786125098166 L45.830101630863155,1.9062224378797823 L45.895836300162145,1.8431642247616487 L45.96469575244926,1.7837558859140654 L46.03651409927255,1.7281405412288735 L46.111118323943984,1.6764521729427475 L46.188328698351754,1.6288153028622634 " />
			<path d="M46.18832869835177,1.628815302862255 L46.24106493099031,1.5994153349540845 L46.29481685831079,1.5718921243157828 L46.34952712318642,1.5462750401692615 L46.40513734587616,1.5225914177639917 L46.46158818632,1.500866529208349 L46.518819407459056,1.4811235565024776 L46.576769939512765,1.4633835668014505 L46.635377945144704,1.447665489935115 " />
			<path d="M1.8304651817693687,1.2496490934369722 L1.0045891199491033,1.7293931594868432 " />
			<path d="M-0.17871305812883787,-2.2091372255367143 L-1.0045891199491033,-1.7293931594868432 " />
			<path d="M9.259870505531337,-1.537495533066895 L8.433994443711072,-1.0577514670170236 " />
			<path d="M39.58479943641007,3.9362158633162516 L38.758923374589806,4.415959929366123 " />
			<path d="M49.02338300007025,4.607857555786071 L48.19750693824998,5.087601621835942 " />
			<path d="M47.014204760172035,1.149071236812384 L46.18832869835177,1.6288153028622552 " />

       </g>

       <!-- solid lines -->
       <g  stroke="rgb(0,0,0)" fill="none">
			<path d="M0.8258760618202654,-5.375314194604238 L48.01879388012114,-2.0171057322551396 " />
			<path d="M-8.881784197001252e-16,4.8955701285543665 L-0.19022655204173544,4.878055092138901 L-0.3801439063776524,4.852611176042056 L-0.5694433678775217,4.819279737268941 L-0.7578172457453964,4.778114953347819 L-0.9449593536458365,4.729183734268975 L-1.1305655073847636,4.672565613727995 L-1.3143340193360005,4.608352619850242 L-1.4959661888098326,4.536649125606669 L-1.675166787566557,4.4575716791640865 L-1.8516445396858454,4.37124881444565 L-2.0251125950119366,4.277820842209472 L-2.1952889954051127,4.177439621984964 L-2.361897133041585,4.070268315237588 L-2.52466620001691,3.9564811201632333 L-2.683331628522092,3.836262988543293 L-2.8376355208769186,3.709809325120667 L-2.987327068721554,3.577325669985333 L-3.1321629606850188,3.4390273644857308 L-3.271907777867929,3.2951392012090164 L-3.40633437649667,3.145895058599088 L-3.535224257127019,2.991537520806298 L-3.658367919797137,2.832317483386756 L-3.7755652045526156,2.668493745492115 L-3.8866256167901265,2.5003325892127104 L-3.9913686368908095,2.3281073467578044 L-4.08962401364016,2.1520979561764233 L-4.181232040957463,1.9725905063409428 L-4.266043817484958,1.7898767719330286 L-4.343921488614824,1.604253739187746 L-4.414738470560577,1.41602312316672 L-4.478379656108656,1.2254908773449698 L-4.534741601715791,1.0329666963085573 L-4.5837326956480275,0.8387635123713575 L-4.625273306888102,0.6431969869291709 L-4.659295914569154,0.4465849973779379 L-4.6857452177243735,0.2492471204300153 L-4.704578225174201,0.05150411266837862 L-4.715764325404968,-0.1463226108169855 L-4.719285336325424,-0.34391149886303696 L-4.715135534820222,-0.5409413868887887 L-4.703321666052388,-0.7370920189220795 L-4.6838629324996015,-0.9320445681494673 L-4.656790962742143,-1.1254821551431464 L-4.6221497600532215,-1.3170903629225474 L-4.579995630875249,-1.5065577480134242 L-4.5303970932983315,-1.6935763466737637 L-4.473434765689701,-1.8778421754636592 L-4.409201235655168,-2.0590557253455435 L-4.3378009095455266,-2.2369224485116286 L-4.259349842752579,-2.4111532371472837 L-4.173975551070577,-2.5814648933521642 L-4.081816803429725,-2.747580589455226 L-3.9830233963386403,-2.909230317975472 L-3.9311884627035805,-2.9882980401932526 L-3.8777559104023664,-3.066151330497037 L-3.8227474542023625,-3.142758549632947 L-3.7661854493117355,-3.2180885647452513 L-3.7080928822943857,-3.292110762028635 L-3.6484933617283097,-3.3647950591695133 L-3.587411108611164,-3.436111917571367 L-3.5248709465169594,-3.5060323543590965 L-3.460898291507859,-3.5745279541575528 L-3.395519141805199,-3.6415708806394194 L-3.3287600672239184,-3.7071338878377857 L-3.260648198374695,-3.7711903312187887 L-3.1912112156381784,-3.833714178509849 L-3.1204773379158053,-3.894680020279066 L-3.0484753111617438,-3.954063080261521 L-2.9752343967006585,-4.011839225428241 L-2.9007843593360447,-4.067984975793751 L-2.825155455253915,-4.1224775139582635 L-2.7483784197268233,-4.175294694380559 L-2.670484454623175,-4.226415052377849 L-2.591505215726917,-4.275817812848932 L-2.5114727998727946,-4.323482898717088 " />
			<path d="M0.8258760618202645,4.415826062504495 L0.63564950977853,4.398311026089029 L0.445732155442613,4.3728671099921845 L0.2564326939427437,4.339535671219069 L0.06805881607486897,4.298370887297947 L-0.11908329182557109,4.249439668219104 L-0.3046894455644982,4.192821547678124 L-0.48845795751573506,4.128608553800371 L-0.6700901269895672,4.056905059556797 L-0.8492907257462916,3.9778276131142154 L-1.02576847786558,3.891504748395779 L-1.1992365331916712,3.798076776159601 L-1.3694129335848473,3.6976955559350926 L-1.5360210712213198,3.5905242491877165 L-1.6987901381966446,3.476737054113362 L-1.8574555667018267,3.356518922493422 L-2.011759459056653,3.230065259070796 L-2.1614510069012884,3.097581603935462 L-2.3062868988647534,2.9592832984358597 L-2.4460317160476635,2.8153951351591453 L-2.5804583146764046,2.666150992549217 L-2.7093481953067537,2.511793454756427 L-2.8324918579768714,2.352573417336885 L-2.94968914273235,2.188749679442244 L-3.060749554969861,2.0205885231628393 L-3.165492575070544,1.8483632807079333 L-3.2637479518198944,1.6723538901265522 L-3.3553559791371974,1.4928464402910717 L-3.4401677556646924,1.3101327058831576 L-3.5180454267945587,1.124509673137875 L-3.5888624087403116,0.9362790571168489 L-3.6525035942883903,0.7457468112950987 L-3.708865539895526,0.5532226302586862 L-3.757856633827762,0.35901944632148636 L-3.799397245067836,0.1634529208792998 L-3.8334198527488885,-0.033159068671933245 L-3.859869155904108,-0.23049694561985584 L-3.8787021633539354,-0.4282399533814925 L-3.8898882635847025,-0.6260666768668566 L-3.8934092745051583,-0.823655564912908 L-3.8892594729999566,-1.0206854529386598 L-3.877445604232123,-1.2168360849719506 L-3.857986870679336,-1.4117886341993384 L-3.8309149009218775,-1.6052262211930175 L-3.796273698232956,-1.7968344289724185 L-3.754119569054984,-1.9863018140632953 L-3.704521031478066,-2.1733204127236347 L-3.6475587038694357,-2.3575862415135305 L-3.5833251738349023,-2.5387997913954146 L-3.511924847725261,-2.7166665145614997 L-3.4334737809323137,-2.8908973031971548 L-3.3480994892503118,-3.0612089594020353 L-3.25594074160946,-3.227324655505097 L-3.157147334518375,-3.3889743840253432 L-3.105312400883315,-3.4680421062431237 L-3.051879848582101,-3.545895396546908 L-2.996871392382097,-3.622502615682818 L-2.94030938749147,-3.6978326307951224 L-2.8822168204741203,-3.771854828078506 L-2.8226172999080443,-3.8445391252193843 L-2.7615350467908986,-3.915855983621238 L-2.698994884696694,-3.9857764204089676 L-2.6350222296875936,-4.054272020207424 L-2.5696430799849335,-4.12131494668929 L-2.502884005403653,-4.186877953887657 L-2.4347721365544297,-4.25093439726866 L-2.365335153817913,-4.313458244559721 L-2.29460127609554,-4.374424086328937 L-2.2225992493414783,-4.433807146311392 L-2.149358334880393,-4.491583291478112 L-2.0749082975157793,-4.547729041843622 L-1.9992793934336497,-4.602221580008135 L-1.9225023579065579,-4.655038760430431 L-1.8446083928029098,-4.7061591184277205 L-1.7656291539066515,-4.755561878898804 L-1.6855967380525292,-4.803226964766959 " />
			<path d="M-1.6855967380524928,-4.8032269647669805 L-1.543947049470964,-4.881953938800129 L-1.399382551626971,-4.955266330600846 L-1.2520810543896674,-5.023073968190615 L-1.1022237340529635,-5.085293450268651 L-0.9499949104942711,-5.141848248792924 L-0.7955818204667517,-5.192668803107286 L-0.6391743873038869,-5.237692605498932 L-0.48096498731964243,-5.276864278080955 L-0.32114821319154174,-5.310135640905442 L-0.15992063461768002,-5.33746577122332 L0.002519443457934978,-5.358821053818068 L0.16597222475434337,-5.374175222351405 L0.33023666739688795,-5.383509391670071 L0.4951107311925147,-5.3868120810339795 L0.660391626132975,-5.384079228237179 L0.8258760618202619,-5.375314194604239 " />
			<path d="M49.704390618173626,7.681691361066207 L49.5627409295921,7.760418335099356 L49.41817643174811,7.8337307269000735 L49.27087493451081,7.901538364489841 L49.1210176141741,7.963757846567876 L48.968788790615406,8.020312645092151 L48.81437570058789,8.071133199406512 L48.65796826742503,8.116157001798157 L48.49975886744078,8.155328674380181 L48.33994209331268,8.188600037204669 L48.17871451473882,8.215930167522547 L48.0162744366632,8.237285450117293 L47.852821655366796,8.252639618650631 L47.688557212724255,8.261973787969298 L47.523683148928626,8.265276477333208 L47.35840225398817,8.262543624536406 L47.19291781830089,8.253778590903467 " />
			<path d="M48.01879388012114,-2.01710573225514 L48.20902043216287,-1.9995906958396734 L48.39893778649879,-1.9741467797428278 L48.58823724799866,-1.9408153409697126 L48.77661112586654,-1.8996505570485906 L48.96375323376697,-1.8507193379697489 L49.1493593875059,-1.7941012174287678 L49.33312789945714,-1.729888223551015 L49.51476006893097,-1.6581847293074397 L49.6939606676877,-1.5791072828648582 L49.87043841980699,-1.49278441814642 L50.04390647513308,-1.399356445910243 L50.21408287552625,-1.2989752256857363 L50.38069101316272,-1.1918039189383611 L50.54346008013805,-1.0780167238640068 L50.70212550864323,-0.9577985922440666 L50.85642940099805,-0.8313449288214398 L51.00612094884269,-0.6988612736861048 L51.15095684080616,-0.560562968186503 L51.29070165798907,-0.41667480490978814 L51.42512825661781,-0.26743066229985857 L51.55401813724816,-0.11307312450706863 L51.67716179991828,0.0461469129124743 L51.79435908467376,0.2099706508071164 L51.905419496911264,0.3781318070865174 L52.01016251701195,0.5503570495414207 L52.1084178937613,0.7263664401228027 L52.2000259210786,0.9058738899582832 L52.28483769760609,1.0885876243661983 L52.36271536873596,1.2742106571114817 L52.433532350681716,1.462441273132508 L52.497173536229795,1.652973518954259 L52.55353548183693,1.845497699990673 L52.60252657576916,2.039700883927873 L52.64406718700924,2.23526740937006 L52.678089794690294,2.4318793989212946 L52.70453909784551,2.6292172758692134 L52.72337210529534,2.826960283630845 L52.734558205526106,3.0247870071162115 L52.738079216446565,3.2223758951622647 L52.73392941494136,3.419405783188017 L52.72211554617353,3.6155564152213078 L52.70265681262074,3.8105089644486947 L52.67558484286328,4.003946551442374 L52.640943640174356,4.195554759221777 L52.59878951099638,4.385022144312656 L52.54919097341947,4.5720407429729955 L52.49222864581084,4.756306571762891 L52.427995115776305,4.937520121644772 L52.356594789666666,5.1153868448108515 L52.27814372287372,5.289617633446509 L52.192769431191714,5.4599292896513925 L52.10061068355086,5.626044985754453 L52.001817276459775,5.7876947142747 L51.94998234282472,5.866762436492481 L51.8965497905235,5.944615726796265 L51.8415413343235,6.021222945932174 L51.78497932943287,6.096552961044479 L51.726886762415525,6.170575158327862 L51.66728724184944,6.243259455468743 L51.6062049887323,6.314576313870598 L51.54366482663809,6.384496750658327 L51.47969217162899,6.452992350456784 L51.41431302192633,6.520035276938651 L51.347553947345055,6.585598284137016 L51.279442078495826,6.649654727518018 L51.210005095759314,6.7121785748090765 L51.13927121803694,6.773144416578294 L51.06726919128288,6.832527476560749 L50.9940282768218,6.890303621727466 L50.91957823945719,6.946449372092976 L50.84394933537505,7.000941910257489 L50.76717229984796,7.053759090679788 L50.689278334744316,7.104879448677077 L50.610299095848056,7.15428220914816 L50.530266679993915,7.201947295016326 " />
			<path d="M50.53026667999389,7.201947295016336 L50.38861699141237,7.280674269049485 L50.244052493568375,7.353986660850202 L50.096750996331075,7.42179429843997 L49.94689367599437,7.484013780518006 L49.79466485243567,7.540568579042279 L49.640251762408155,7.591389133356641 L49.483844329245294,7.636412935748286 L49.32563492926105,7.675584608330309 L49.165818155132946,7.708855971154797 L49.00459057655909,7.736186101472676 L48.84215049848347,7.757541384067422 L48.67869771718706,7.772895552600761 L48.51443327454452,7.7822297219194265 L48.34955921074889,7.785532411283336 L48.184278315808434,7.782799558486535 L48.01879388012116,7.774034524853596 " />
			<path d="M47.19291781830087,8.253778590903465 L0.0,4.8955701285543665 " />
			<path d="M1.887716712732035,0.1343283384939642 L1.885652611918803,0.2257310810112627 L1.879464823410819,0.31664017773441755 L1.8691668791318157,0.4068568217776174 L1.8547812994049075,0.49618372056292337 L1.83633954370345,0.5844255272745948 L1.8138819418530834,0.6713892680582753 L1.7874576058354188,0.7568847640308063 L1.7571243223862483,0.840725047177788 L1.7229484266231374,0.9227267692293679 L1.6850046569787782,1.0027106026201003 L1.6433759917573316,1.0805016326560226 L1.5981534676712008,1.1559297400313346 L1.5494359807550642,1.228829972858156 L1.4973300700925494,1.2990429073957865 L1.441949684828513,1.3664149966905967 L1.3834159349764374,1.4307989063641062 " />
			<path d="M-0.5575398731561667,-1.9105429724139835 L-0.4512204227769143,-1.9335718900007812 L-0.34335949870601934,-1.9499952772328293 L-0.23432557889443162,-1.9597570280075043 L-0.12449114851880116,-1.962823793918476 L-0.014231427485662085,-1.9591850981816012 L0.09607691140685626,-1.9488533714260523 L0.20605702927073288,-1.931863909228401 L0.3153332084971604,-1.9082747515347371 L0.42353213629509956,-1.8781664843827435 L0.5302841800144185,-1.8416419646010844 L0.6352246498968176,-1.7988259684266092 L0.7379950449406871,-1.7498647652397636 L0.8382442776237362,-1.6949256178744405 L0.9356298732994555,-1.6341962112093154 L1.0298191401699976,-1.5678840109927406 L1.1204903058385756,-1.496215555091597 L1.207333616558654,-1.4194356795853609 L1.290052395424639,-1.3378066823492296 L1.3683640558890464,-1.2516074269837039 L1.4420010671437367,-1.1611323901518023 L1.5107118680672473,-1.0666906555784332 L1.5742617266159733,-0.9686048581486536 L1.6324335417233047,-0.8672100817120179 L1.685028584967263,-0.7628527143583769 L1.7318671794729135,-0.6558892650757648 L1.7727893137302728,-0.546685145832952 L1.8076551882307652,-0.4356134232473491 L1.8363456930547903,-0.32305354410285303 L1.8587628147788564,-0.20939003907156328 L1.8748299713121803,-0.09501120906775895 L1.8844922735188867,0.019692201278148636 L1.8877167127320351,0.1343283384939572 " />
			<path d="M9.438583563660174,-1.286586358951927 L37.754334254640696,0.7283387184575321 " />
			<path d="M8.881043690504008,-1.2389012799441637 L8.949010929113596,-1.2544218979804445 L9.017665738267016,-1.2672374943368099 L9.086911697083822,-1.2773300704039943 L9.156651554455182,-1.2846854518643878 L9.226787365626274,-1.2892933085988743 L9.297220629752838,-1.2911471691947622 L9.367852428238727,-1.2902444300344302 L9.438583563660172,-1.286586358951927 " />
			<path d="M37.754334254640696,0.7283387184575321 L37.822722152423516,0.7344906102546034 L37.89102026460652,0.7432053579746849 L37.95913892346824,0.7544715201365095 L38.0269886968892,0.768274305539292 L38.09448050576621,0.7845955926819068 L38.16152574096314,0.8034139535543765 L38.228036379644784,0.824704681770434 L38.293925100840866,0.8484398250042204 L38.35910540008868,0.8745882216885399 L38.42349170300364,0.9031155419264836 L38.486999477628856,0.9339843325627117 L38.549545345416036,0.9671540663552276 L38.61104719069211,1.0025811951830748 L38.671424268467874,1.040219207220112 L38.730597310447045,1.080018687999796 L38.78848862909659,1.1219273852908058 L38.84502221964172,1.1658902776983313 L38.900123859851576,1.2118496469009616 L38.95372120748465,1.2597451534283346 L39.00574389526599,1.3095139158800582 L39.05612362327152,1.3610905934819 L39.104794248598104,1.414407471870858 L39.151691872201766,1.4693945519964842 L39.196754922789886,1.5259796420217464 L39.23992423765739,1.5840884521027727 L39.28114314036072,1.6436446919230399 L39.32035751512758,1.7045701708539587 L39.35751587790489,1.7667849006103538 L39.3925694439515,1.8302072002660639 L39.425472191887096,1.8947538034917897 L39.45618092411305,1.9603399678743982 L39.484655323526006,2.0268795861741555 L39.51085800644971,2.0942852993738263 L39.53475457171553,2.162468611371213 L39.55631364582735,2.2313400051645624 L39.5755069241514,2.3008090603782976 L39.59230920807707,2.3707845719747755 L39.606698438099826,2.4411746699962196 L39.61865572278288,2.5118869401796173 L39.62816536355949,2.5828285452862296 L39.635214875343415,2.6539063469864175 L39.63979500292044,2.725027028139769 L39.641899733099415,2.7960972153099855 L39.6415263026069,2.867023601353674 L39.638675201715024,2.937713067922111 L39.63335017359784,3.0080728077151297 L39.62555820941692,3.07801044632665 L39.61530953914279,3.1474341635218566 L39.602617618124086,3.216252813786813 L39.58749910942223,3.2843760459922473 L39.56997386193472,3.351714422014401 L39.55006488433573,3.418179534157199 L39.52779831486833,3.4836841212215908 L39.503203387027924,3.5481421830696633 L39.47631239118197,3.6114690935331306 L39.447160632176356,3.6735817115179494 L39.41578638298413,3.734398490159203 L39.38223083445738,3.7938395838829395 L39.346538041248316,3.851826953234415 L39.30875486397046,3.9082844673350916 L39.26893090767595,3.9631380038339046 L39.2271184567297,4.016315546221548 L39.18337240616592,4.067747278380034 L39.13775018961714,4.117365676243384 " />
			<path d="M49.080634531032906,3.4925368008430624 L49.07857043021967,3.583939543360361 L49.07238264171169,3.6748486400835167 L49.06208469743269,3.7650652841267176 L49.047699117705776,3.8543921829120236 L49.02925736200432,3.942633989623695 L49.00679976015395,4.029597730407376 L48.98037542413629,4.1150932263799085 L48.95004214068712,4.198933509526889 L48.915866244924004,4.28093523157847 L48.87792247527965,4.3609190649692025 L48.8362938100582,4.438710095005125 L48.791071285972066,4.514138202380437 L48.742353799055934,4.587038435207258 L48.690247888393415,4.657251369744889 L48.63486750312938,4.724623459039699 L48.576333753277304,4.789007368713209 " />
			<path d="M46.635377945144704,1.447665489935115 L46.74169739552396,1.4246365723483172 L46.84955831959485,1.4082131851162691 L46.958592239406435,1.3984514343415941 L47.06842666978207,1.3953846684306224 L47.17868639081521,1.3990233641674972 L47.288994729707724,1.4093550909230461 L47.3989748475716,1.4263445531206975 L47.50825102679803,1.4499337108143613 L47.61644995459597,1.480041977966355 L47.72320199831529,1.516566497748014 L47.82814246819769,1.5593824939224892 L47.93091286324156,1.6083436971093348 L48.03116209592461,1.663282844474658 L48.128547691600325,1.724012251139783 L48.22273695847087,1.7903244513563579 L48.31340812413944,1.8619929072575014 L48.40025143485953,1.9387727827637375 L48.48297021372551,2.020401779999869 L48.561281874189916,2.1066010353653946 L48.634918885444606,2.197076072197296 L48.70362968636812,2.291517806770665 L48.76717954491684,2.389603604200445 L48.82535136002417,2.4909983806370803 L48.87794640326813,2.5953557479907214 L48.924784997773784,2.702319197273334 L48.96570713203114,2.8115233165161464 L49.00057300653164,2.9225950391017492 L49.02926351135566,3.0351549182462456 L49.05168063307973,3.148818423277535 L49.06774778961305,3.2631972532813394 L49.07741009181976,3.377900663627247 L49.080634531032906,3.4925368008430557 " />
			<path d="M48.01879388012114,7.774034524853594 L0.8258760618202672,4.415826062504495 " />
			<path d="M2.7135927745523007,-0.34541572755590705 L2.7125454899601333,-0.4107104277123906 L2.709404798227715,-0.47608172608436256 L2.7041741841979112,-0.5414570881086731 L2.696859451645667,-0.6067639747132321 L2.687468716838267,-0.6719299228047777 L2.6760123995296983,-0.7368826256723402 L2.6625032113991223,-0.8015500132171871 L2.6469561419462746,-0.865860331920228 L2.6293884418594393,-0.9297422244581528 L2.6098196038744677,-0.9931248088799542 L2.5882713411460605,-1.0559377572559925 L2.56476756315533,-1.1181113737123265 L2.53933434918036,-1.179576671763734 L2.511999919359209,-1.2402654508596047 L2.4827946033774655,-1.300110372057781 L2.4517508068150877,-1.3590450327423744 L2.4189029751898827,-1.4170040403026578 L2.3842875557375147,-1.473923084691276 L2.347942956970446,-1.5297390097812662 L2.309909506060695,-1.5843898834427168 L2.2702294040936843,-1.637815066261305 L2.228946679242842,-1.6899552788224637 L2.186107137916903,-1.7407526674865244 L2.141758313934118,-1.7901508685818492 L2.0959494157797693,-1.8380950709447308 L2.048731272005511,-1.884532076736659 L2.0001562748311215,-1.9294103604714796 L1.950278322011239,-1.9726801261869475 L1.8991527570315943,-2.0142933626972375 L1.8468363077010874,-2.054203896865105 L1.7933870232078533,-2.0923674448345913 L1.7388642097091496,-2.12874166116742 L1.6833283645265436,-2.1632861858285706 L1.6268411090194053,-2.1959626889688897 L1.5694651202111976,-2.226734913455055 L1.5112640612444164,-2.255568715099696 L1.4523025107413665,-2.282432100547038 L1.39264589114913,-2.307295262772029 L1.3323603961482509,-2.330130614153567 L1.2715129172056727,-2.350912817085116 L1.210170969353434,-2.369618812088764 L1.1484026162754604,-2.386227843401512 L1.086276394785593,-2.400721482005418 L1.0238612387806363,-2.4130836460760308 L0.961226402752814,-2.4233006188264294 L0.8984413849465005,-2.431361063727073 L0.8355758502444862,-2.4372560370845626 L0.7726995528693481,-2.4409789979653715 L0.7098822589856914,-2.4425258154535188 L0.6471936692891375,-2.4418947732341447 L0.5847033416679546,-2.4390865714978966 L0.5224806140231483,-2.4341043261640123 L0.4605945273326425,-2.4269535654229633 L0.3991137490449195,-2.4176422236024973 L0.33810649688712113,-2.40618063236388 L0.2776404631721505,-2.39258150923811 L0.21778273968876172,-2.376859943514827 L0.15859974325797854,-2.359033379499561 L0.1001571420384415,-2.3391215971579165 L0.04251978266245493,-2.3171466901681543 L-0.01424838171641607,-2.2931330414065285 L-0.07008436238436788,-2.2671072958925804 L-0.12492620495825912,-2.2390983312244086 L-0.17871305812883054,-2.2091372255367188 " />
			<path d="M-0.17871305812883764,-2.2091372255367148 L-0.2559234325366222,-2.1615003554562224 L-0.33052765720805644,-2.109811987170096 L-0.4023460040313487,-2.0541966424849036 L-0.4712054563184567,-1.9947883036373215 L-0.5369401256174451,-1.931730090519189 L-0.5993916513522963,-1.8651739158891545 L-0.6584095823274074,-1.7952801194015344 L-0.7138517391776995,-1.72221708133404 L-0.7655845568911599,-1.6461608169449433 L-0.8134834065786576,-1.5672945524368997 L-0.857432895715851,-1.4858082835489779 L-0.8973271461338894,-1.4018983178402828 L-0.9330700490891912,-1.3157668017678519 L-0.9645754967978288,-1.2276212336981318 L-0.9917675898767209,-1.1376739640252442 L-1.014580820191894,-1.0461416836002817 L-1.0329602286733162,-0.9532449017040674 L-1.0468615377161097,-0.859207414820987 L-1.0562512578491787,-0.7642557674936541 L-1.0611067684142816,-0.6686187065572615 L-1.0614163720611738,-0.5725266300684215 L-1.0571793229275523,-0.47621103225606826 L-1.0484058284359012,-0.37990394583158155 L-1.0351170247029187,-0.28383738300166245 L-1.0173449256207587,-0.18824277653060534 L-0.9951323457327628,-0.09335042219849748 L-0.9685327970894733,0.0006110760014864103 L-0.9376103603334158,0.09341535659012895 L-0.9024395303232229,0.1848388459267955 L-0.8631050366689899,0.27466129681792045 L-0.819701639611224,0.3626663191117913 L-0.7723339017351267,0.4486419010013725 L-0.7211159360701642,0.5323809197793206 L-0.6661711311817884,0.6136816408147276 L-0.6076318539175716,0.6923482035495172 L-0.5456391305238766,0.7681910933436855 L-0.4803423069012822,0.841027598032664 L-0.4118986888172218,0.9106822480969319 L-0.3404731629426123,0.9769872393834587 L-0.2662377996254226,1.0397828373606037 L-0.18937143835813375,1.0989177619325956 L-0.11005925693773633,1.1542495518865326 L-0.028492325356199166,1.2056449080939229 L0.055132854503878614,1.2529800146399617 L0.14061482225951316,1.2961408371069143 L0.2277476443630454,1.3350233972930152 L0.31632141021409343,1.369534023705067 L0.40612273785257946,1.3995895772212696 L0.4969352880145522,1.4251176513806458 L0.5885402853124301,1.4460567468165508 L0.6807170452840743,1.462356419414031 L0.7732435060409825,1.4739774018341167 L0.8658967632348301,1.4808916981122806 L0.958453607053571,1.483082651103167 L1.0506910599534232,1.4805449826091164 L1.1423869138313043,1.4732848060958044 L1.2333202653436146,1.461319611964368 L1.3232720480817397,1.444678225415497 L1.412025560322218,1.4234007370070012 L1.4993669870801742,1.3975384060721434 L1.5850859152083414,1.3671535372314194 L1.668975840300766,1.3323193302952667 L1.750834664180012,1.2931197039193107 L1.830465181769354,1.2496490934369808 " />
			<path d="M1.8304651817693687,1.2496490934369724 L1.9292491948799086,1.1876629330051358 L2.0236411776997913,1.1190395781127125 L2.1132653983616017,1.044052187353385 L2.197765103306521,0.9629992516743813 L2.276803937359179,0.8762034062187751 L2.350067282605747,0.7840101460606466 L2.4172635107458107,0.686786450945176 L2.478125143932967,0.5849193245079625 L2.532409919483371,0.4788142537882764 L2.579901754214105,0.36889359516822456 L2.620411604572768,0.2555948931626801 L2.6537782191345114,0.13936913875211082 L2.67986878047116,0.020678974191100374 L2.698579433837425,-0.1000031485615937 L2.7098357005697626,-0.22219684846098292 L2.7135927745523003,-0.3454157275559024 " />
			<path d="M10.26445962548044,-1.7663304250017982 L38.58021031646096,0.248594652407661 " />
			<path d="M10.26445962548044,2.1501256778416957 L10.188369004663745,2.143119663275509 L10.112402062929378,2.1329420968367714 L10.036682278329431,2.1196095213275252 L9.961332727182281,2.103143607759076 L9.886475884022104,2.0835711201275386 L9.812233422526534,2.0609238719111467 L9.738726017746039,2.0352386743600457 L9.666073149956507,2.0065572766626163 L9.594392910453816,1.9749262980855835 L9.523801809606102,1.9403971521982082 L9.454414587475664,1.9030259633037374 L9.386344027318394,1.8628734752139342 L9.319700772263806,1.8200049525149835 L9.254593145473676,1.7744900744852419 L9.191126974071603,1.7264028218372658 L9.129405417129671,1.6758213564682156 L9.069528797991818,1.6228278944140817 L9.011594441206432,1.5675085722142408 L8.955696514333267,1.5099533069035553 L8.901925874881773,1.4502556498595838 L8.850369922629632,1.3885126347424679 L8.801112457561585,1.324824619774651 L8.754233543659392,1.2592951246167947 L8.709809378764389,1.1920306621050327 L8.667912170724115,1.1231405651230704 L8.628610020024375,1.0527368088905178 L8.591966809097455,0.9809338289563256 L8.558042098486457,0.9078483351931601 L8.526891030034509,0.8335991220950472 L8.498564237256208,0.7583068756866367 L8.473107763036976,0.6820939773579364 L8.450562984794123,0.6050843049433714 L8.430966547221228,0.5274030313684916 L8.414350302725198,0.4491764211916171 L8.400741259652778,0.3705316253711238 L8.39016153839069,0.29159647459195476 L8.38262833541076,0.21249927148730002 L8.378153895318452,0.13336858209315433 L8.37674549095027,0.05433302687473379 L8.37840541155235,-0.02447892833556692 L8.383130959059484,-0.10293918114888329 L8.3909144524806,-0.18092020083983812 L8.401743240383583,-0.25829523563731 L8.41559972145915,-0.33493851874907016 L8.432461373130339,-0.4107254727854212 L8.452300788161107,-0.4855329122495568 L8.475085719204559,-0.5592392437655151 L8.500779131218373,-0.631724663718269 L8.529339261662228,-0.7028713529847028 L8.560719688379407,-0.7725636684389647 L8.594869405052208,-0.8406883309209172 L8.63173290410855,-0.907134609362142 L8.671250266944984,-0.9717945007702402 L8.713357261319493,-1.0345629057788661 L8.757985445755745,-1.0953377994781521 L8.805062280789116,-1.1540203972478569 L8.854511246873656,-1.2105153153236898 L8.90625196875836,-1.2647307258358194 L8.960200346130561,-1.3165785060675668 L9.016268690314117,-1.3659743816916778 L9.074365866800177,-1.4128380637513478 L9.134397443378873,-1.4570933791633567 L9.196265843631169,-1.4986683945311912 L9.259870505531321,-1.5374955330668865 " />
			<path d="M9.259870505531335,-1.537495533066895 L9.316530380963947,-1.5689863226801546 L9.374356180101545,-1.598311279400441 L9.433276778996467,-1.6254343344363489 L9.493219707131148,-1.6503221272675634 L9.554111236554625,-1.6729440466772725 L9.615876472565633,-1.6932722684030173 L9.67843944583078,-1.711281789359675 L9.741723205824476,-1.7269504583924846 L9.805649915475717,-1.7402590035222796 L9.870140946905261,-1.7511910556494306 L9.935116978135508,-1.7597331686873299 L10.000498090654071,-1.765874836100665 L10.066203867711089,-1.769608503828131 L10.132153493229339,-1.7709295795736946 L10.198265851205523,-1.7698364384549747 L10.264459625480438,-1.7663304250017982 " />
			<path d="M38.58021031646096,0.248594652407661 L38.656300937277656,0.25560066697384753 L38.73226787901203,0.26577823341258533 L38.807987663611975,0.27911080892183193 L38.88333721475912,0.29557672249028055 L38.9581940579193,0.3151492101218176 L39.032436519414865,0.33779645833821004 L39.105943924195365,0.36348165588931103 L39.178596791984894,0.39216305358674086 L39.250277031487585,0.42379403216377365 L39.320868132335306,0.45832317805114897 L39.39025535446574,0.49569436694561997 L39.45832591462301,0.5358468550354227 L39.5249691696776,0.5787153777343725 L39.59007679646773,0.6242302557641144 L39.6535429678698,0.6723175084120903 L39.71526452481173,0.7228989737811409 L39.77514114394958,0.775892435835275 L39.83307550073497,0.8312117580351157 L39.888973427608136,0.8887670233458016 L39.942744067059635,0.9484646803897736 L39.99430001931177,1.0102076955068895 L40.04355748437982,1.0738957104747069 L40.09043639828201,1.1394252056325633 L40.134860563177014,1.206689668144324 L40.17675777121729,1.2755797651262855 L40.21605992191703,1.3459835213588383 L40.25270313284395,1.4177865012930302 L40.286627843454944,1.4908719950561964 L40.31777891190689,1.5651212081543096 L40.34610570468519,1.6404134545627203 L40.371562178904426,1.7166263528914207 L40.39410695714728,1.7936360253059862 L40.41370339472017,1.8713172988808662 L40.4303196392162,1.949543909057741 L40.44392868228863,2.028188704878235 L40.45450840355071,2.1071238556574023 L40.46204160653064,2.186221058762055 L40.46651604662295,2.2653517481562018 L40.467924450991134,2.344387303374623 L40.466264530389054,2.4231992585849236 L40.46153898288192,2.50165951139824 L40.453755489460804,2.5796405310891948 L40.44292670155782,2.6570155658866668 L40.42907022048225,2.7336588489984277 L40.41220856881106,2.8094458030347793 L40.392369153780294,2.884253242498915 L40.36958422273684,2.9579595740148736 L40.34389081072303,3.0304449939676257 L40.315330680279175,3.1015916832340578 L40.283950253562,3.171283998688321 L40.2498005368892,3.239408661170274 L40.21293703783285,3.3058549396114985 L40.17341967499642,3.370514831019597 L40.13131268062191,3.433283236028223 L40.086684496185654,3.4940581297275086 L40.03960766115229,3.552740727497214 L39.99015869506775,3.6092356455730474 L39.93841797318304,3.663451056085177 L39.88446959581084,3.7152988363169244 L39.828401251627284,3.7646947119410346 L39.770304075141226,3.811558394000703 L39.71027249856253,3.855813709412713 L39.64840409831023,3.897388724780548 L39.58479943641007,3.936215863316247 " />
			<path d="M39.584799436410066,3.936215863316251 L39.52813956097746,3.967706652929511 L39.47031376183986,3.9970316096497975 L39.41139316294494,4.024154664685705 L39.35145023481026,4.0490424575169195 L39.29055870538678,4.071664376926629 L39.22879346937577,4.091992598652373 L39.16623049611062,4.110002119609032 L39.10294673611693,4.125670788641841 L39.039020026465685,4.138979333771636 L38.974528995036145,4.149911385898787 L38.90955296380589,4.158453498936686 L38.844171851287335,4.164595166350021 L38.778466074230316,4.168328834077488 L38.712516448712066,4.169649909823051 L38.646404090735885,4.168556768704331 L38.58021031646097,4.165050755251155 " />
			<path d="M38.58021031646096,4.165050755251154 L10.264459625480438,2.150125677841695 " />
			<path d="M49.906510592853174,3.0127927347931913 L49.905463308261005,2.947498034636708 L49.902322616528586,2.882126736264736 L49.89709200249878,2.8167513742404253 L49.88977726994654,2.751444487635866 L49.88038653513914,2.686278539544321 L49.86893021783057,2.6213258366767582 L49.8554210297,2.5566584491319113 L49.83987396024715,2.49234813042887 L49.82230626016031,2.428466237890946 L49.80273742217534,2.365083653469144 L49.78118915944693,2.3022707050931057 L49.7576853814562,2.240097088636772 L49.732252167481235,2.1786317905853645 L49.70491773766008,2.1179430114894937 L49.675712421678334,2.0580980902913177 L49.64466862511596,1.9991634296067242 L49.61182079349076,1.9412044220464406 L49.577205374038385,1.8842853776578226 L49.54086077527132,1.8284694525678322 L49.50282732436157,1.7738185789063816 L49.463147222394554,1.7203933960877935 L49.421864497543716,1.6682531835266348 L49.379024956217776,1.617455794862574 L49.33467613223499,1.5680575937672492 L49.28886723408064,1.5201133914043676 L49.24164909030638,1.4736763856124395 L49.19307409313199,1.4287981018776188 L49.143196140312114,1.3855283361621509 L49.092070575332464,1.343915099651861 L49.03975412600196,1.3040045654839933 L48.986304841508726,1.2658410175145072 L48.93178202801002,1.2294668011816785 L48.876246182827416,1.1949222765205278 L48.81975892732028,1.1622457733802087 L48.76238293851207,1.1314735488940433 L48.70418187954529,1.1026397472494025 L48.64522032904224,1.0757763618020608 L48.58556370945,1.0509131995770695 L48.52527821444912,1.0280778481955313 L48.46443073550655,1.0072956452639823 L48.403088787654305,0.9885896502603346 L48.34132043457633,0.9719806189475864 L48.27919421308646,0.9574869803436803 L48.21677905708151,0.9451248162730677 L48.154144221053684,0.934907843522669 L48.09135920324737,0.9268473986220258 L48.02849366854536,0.920952425264536 L47.96561737117022,0.9172294643837271 L47.902800077286564,0.9156826468955799 L47.84011148759001,0.9163136891149537 L47.777621159968824,0.919121890851202 L47.71539843232402,0.9241041361850861 L47.653512345633516,0.9312548969261352 L47.59203156734579,0.9405662387466012 L47.53102431518799,0.9520278299852185 L47.470558281473025,0.9656269531109882 L47.410700557989635,0.9813485188342714 L47.35151756155885,0.9991750828495378 L47.29307496033931,1.019086865191182 L47.23543760096333,1.0410617721809443 L47.17866943658446,1.0650754209425701 L47.122833455916506,1.091101166456518 L47.06799161334261,1.11911013112469 L47.01420476017204,1.1490712368123797 " />
			<path d="M47.014204760172035,1.1490712368123837 L46.93699438576425,1.1967081068928762 L46.86239016109282,1.2483964751790027 L46.790571814269526,1.304011819864195 L46.72171236198241,1.363420158711777 L46.65597769268343,1.4264783718299094 L46.59352616694858,1.493034546459944 L46.53450823597346,1.562928342947564 L46.47906607912317,1.6359913810150584 L46.427333261409714,1.712047645404155 L46.379434411722215,1.7909139099121987 L46.335484922585024,1.8724001788001206 L46.29559067216698,1.9563101445088156 L46.25984776921168,2.0424416605812468 L46.22834232150304,2.130587228650967 L46.201150228424154,2.220534498323854 L46.178336998108975,2.3120667787488167 L46.15995758962755,2.4049635606450313 L46.14605628058476,2.4990010475281115 L46.136666560451694,2.5939526948554446 L46.13181104988659,2.689589755791837 L46.131501446239696,2.7856818322806767 L46.13573849537332,2.88199743009303 L46.144511989864974,2.978304516517517 L46.15780079359795,3.074371079347436 L46.175572892680115,3.169965685818493 L46.19778547256811,3.264858040150601 L46.2243850212114,3.358819538350585 L46.255307457967454,3.451623818939227 L46.29047828797765,3.543047308275894 L46.32981278163188,3.632869759167019 L46.373216178689646,3.72087478146089 L46.42058391656575,3.806850363350471 L46.47180188223071,3.890589382128419 L46.526746687119086,3.971890103163826 L46.5852859643833,4.050556665898616 L46.647278687776996,4.1263995556927835 L46.71257551139959,4.199236060381763 L46.78101912948365,4.26889071044603 L46.85244465535826,4.335195701732557 L46.92668001867545,4.397991299709702 L47.00354637994274,4.457126224281694 L47.08285856136314,4.512458014235631 L47.16442549294467,4.563853370443021 L47.24805067280475,4.61118847698906 L47.333532640560385,4.654349299456013 L47.42066546266392,4.693231859642114 L47.509239228514964,4.727742486054165 L47.599040556153454,4.757798039570368 L47.689853106315425,4.7833261137297445 L47.7814581036133,4.804265209165649 L47.87363486358495,4.820564881763129 L47.966161324341854,4.832185864183215 L48.0588145815357,4.8391001604613795 L48.15137142535444,4.841291113452265 L48.24360887825429,4.838753444958215 L48.33530473213218,4.831493268444903 L48.426238083644485,4.8195280743134665 L48.51618986638261,4.8028866877645955 L48.60494337862309,4.781609199356099 L48.69228480538105,4.755746868421242 L48.778003733509216,4.725361999580517 L48.86189365860164,4.690527792644366 L48.94375248248088,4.651328166268409 L49.023383000070226,4.6078575557860795 " />
			<path d="M49.02338300007024,4.607857555786071 L49.12216701318078,4.545871395354235 L49.216558996000664,4.477248040461811 L49.306183216662475,4.402260649702484 L49.39068292160739,4.32120771402348 L49.46972175566005,4.234411868567873 L49.54298510090662,4.142218608409745 L49.61018132904668,4.044994913294275 L49.67104296223384,3.943127786857061 L49.72532773778424,3.837022716137375 L49.772819572514976,3.727102057517323 L49.81332942287364,3.6138033555117786 L49.846696037435386,3.4975776011012094 L49.87278659877203,3.378887436540199 L49.8914972521383,3.2582053137875047 L49.90275351887063,3.1360116138881153 L49.906510592853174,3.012792734793196 " />
			<path d="M1.4448663937151565e-16,4.8955701285543665 L0.8258760618202655,4.415826062504495 " />
			<path d="M47.19291781830087,8.253778590903465 L48.01879388012114,7.774034524853594 " />
			<path d="M9.438583563660174,-1.286586358951927 L10.26445962548044,-1.7663304250017982 " />
			<path d="M37.754334254640696,0.7283387184575323 L38.58021031646096,0.2485946524076611 " />
			<path d="M-1.6855967380524932,-4.80322696476698 L-2.5114727998727586,-4.323482898717108 " />
			<path d="M50.53026667999389,7.201947295016335 L49.704390618173626,7.681691361066206 " />

       </g>
    </g>
    <g transform="translate(20,210.0)" stroke="rgb(0,0,255)">
        <line x1="30" y1="-30" x2="75" y2="-33" stroke-width="3" stroke="#000000" />
         <text x="80" y="-30" style="stroke:#000000">X </text>

        <line x1="30" y1="-30" x2="30" y2="-75" stroke-width="3" stroke="#000000" />
         <text x="25" y="-85" style="stroke:#000000">Y </text>

        <line x1="30" y1="-30" x2="58" y2="-15" stroke-width="3" stroke="#000000" />
         <text x="65" y="-5" style="stroke:#000000">Z </text>
        <!--
            <line x1="0" y1="0" x2="10.442523252772283" y2="0" stroke-width="3" />
            <text x="0" y="20" style="stroke:#000000">1  mm </text>
        -->
    </g>
</svg>
