<?xml version="1.0" encoding="UTF-8" standalone="no"?>
<svg
   xmlns:svg="http://www.w3.org/2000/svg"
   xmlns="http://www.w3.org/2000/svg"
   width="800.0"
   height="240.0"

>
    <g transform="scale(12.495107675921624, -12.495107675921624)   translate(20.725556408537134,-9.19426797463001)" stroke-width="0.08003132313353524"  fill="none">
       <!-- hidden lines -->
       <g  stroke="rgb(160,160,160)" fill="none" stroke-dasharray="0.08003132313353524,0.08003132313353524" >
			<path d="M0.0,-4.8955701285543665 L37.7543342546407,-2.2090033586750875 " />
			<path d="M-2.511472799872758,-4.323482898717109 L-2.3698231112912294,-4.402209872750258 L-2.2252586134472363,-4.475522264550975 L-2.077957116209933,-4.543329902140743 L-1.9280997958732289,-4.605549384218779 L-1.7758709723145365,-4.662104182743052 L-1.6214578822870171,-4.712924737057414 L-1.4650504491241523,-4.75794853944906 L-1.3068410491399078,-4.797120212031084 L-1.1470242750118071,-4.830391574855571 L-0.9857966964379454,-4.857721705173448 L-0.8233566183623304,-4.8790769877681965 L-0.659903837065922,-4.8944311563015335 L-0.49563939442337746,-4.903765325620199 L-0.3307653306277507,-4.907068014984108 L-0.16548443568729043,-4.904335162187308 L-3.552713678800501e-15,-4.895570128554367 " />
			<path d="M37.754334254640696,-2.2090033586750883 L37.94456080668243,-2.1914883222596218 L38.13447816101835,-2.166044406162776 L38.32377762251822,-2.132712967389661 L38.512151500386096,-2.091548183468539 L38.69929360828653,-2.042616964389697 L38.88489976202546,-1.9859988438487162 L39.0686682739767,-1.9217858499709632 L39.25030044345053,-1.850082355727388 L39.42950104220726,-1.7710049092848066 L39.605978794326546,-1.6846820445663684 L39.779446849652636,-1.5912540723301913 L39.94962325004581,-1.4908728521056847 L40.11623138768228,-1.3837015453583095 L40.279000454657606,-1.2699143502839552 L40.437665883162786,-1.149696218664015 L40.59196977551761,-1.0232425552413882 L40.74166132336225,-0.8907589001060532 L40.88649721532572,-0.7524605946064513 L41.02624203250863,-0.6085724313297365 L41.16066863113737,-0.4593282887198069 L41.289558511767716,-0.304970750927017 L41.41270217443784,-0.14575071350747404 L41.52989945919332,0.01807302438716807 L41.64095987143082,0.18623418066656905 L41.74570289153151,0.3584594231214724 L41.84395826828086,0.5344688137028544 L41.93556629559816,0.7139762635383349 L42.02037807212565,0.8966899979462499 L42.09825574325552,1.0823130306915334 L42.169072725201275,1.2705436467125597 L42.232713910749354,1.4610758925343106 L42.28907585635649,1.6536000735707246 L42.33806695028872,1.8478032575079244 L42.3796075615288,2.0433697829501116 L42.41363016920985,2.2399817725013467 L42.44007947236507,2.437319649449265 L42.4589124798149,2.635062657210897 L42.470098580045665,2.832889380696263 L42.47361959096612,3.030478268742317 L42.469469789460916,3.227508156768068 L42.457655920693085,3.4236587888013594 L42.4381971871403,3.618611338028747 L42.41112521738284,3.8120489250224256 L42.376484014693915,4.003657132801829 L42.33432988551594,4.1931245178927075 L42.28473134793903,4.380143116553047 L42.2277690203304,4.564408945342943 L42.163535490295864,4.745622495224824 L42.092135164186224,4.923489218390904 L42.01368409739328,5.097720007026561 L41.92830980571127,5.268031663231444 L41.83615105807042,5.434147359334505 L41.737357650979334,5.595797087854752 L41.68552271734428,5.674864810072533 L41.63209016504306,5.752718100376317 L41.57708170884306,5.829325319512225 L41.52051970395243,5.904655334624531 L41.462427136935084,5.978677531907914 L41.402827616369,6.051361829048794 L41.34174536325186,6.122678687450649 L41.27920520115765,6.192599124238378 L41.21523254614855,6.261094724036835 L41.14985339644589,6.328137650518702 L41.083094321864614,6.393700657717067 L41.014982453015385,6.457757101098069 L40.94554547027887,6.520280948389129 L40.8748115925565,6.581246790158346 L40.80280956580244,6.6406298501408 L40.72956865134136,6.6984059953075175 L40.65511861397675,6.754551745673028 L40.57948970989461,6.80904428383754 L40.502712674367515,6.861861464259839 L40.424818709263874,6.912981822257128 L40.345839470367615,6.9623845827282125 L40.26580705451347,7.010049668596377 " />
			<path d="M-4.440892098500626e-16,1.958228051421747 L-0.07609062081669415,1.9512220368555604 L-0.15205756255106084,1.9410444704168226 L-0.2277773471510085,1.9277118949075764 L-0.3031268982981584,1.9112459813391274 L-0.37798374145833447,1.89167349370759 L-0.4522262029539055,1.869026245491198 L-0.5257336077344005,1.843341047940097 L-0.598386475523933,1.8146596502426675 L-0.6700667150266227,1.783028671665635 L-0.7406578158743381,1.7484995257782596 L-0.8100450380047749,1.7111283368837888 L-0.8781155981620448,1.6709758487939856 L-0.9447588532166343,1.628107326095035 L-1.0098664800067638,1.5825924480652933 L-1.0733326514088366,1.5345051954173172 L-1.1350542083507673,1.483923730048267 L-1.1949308274886217,1.4309302679941331 L-1.2528651842740073,1.3756109457942922 L-1.3087631111471716,1.3180556804836068 L-1.3625337505986677,1.2583580234396352 L-1.4140897028508077,1.1966150083225193 L-1.4633471679188548,1.1329269933547024 L-1.5102260818210465,1.0673974981968462 L-1.5546502467160506,1.0001330356850842 L-1.5965474547563236,0.9312429387031217 L-1.635849605456064,0.8608391824705692 L-1.672492816382985,0.7890362025363771 L-1.706417526993983,0.7159507087732115 L-1.73756859544593,0.6417014956750986 L-1.765895388224231,0.566409249266688 L-1.7913518624434623,0.49019635093798786 L-1.8138966406863166,0.4131866785234228 L-1.833493078259211,0.335505404948543 L-1.8501093227552405,0.2572787947716685 L-1.8637183658276615,0.17863399895117515 L-1.8742980870897497,0.09969884817200614 L-1.8818312900696799,0.020601645067351404 L-1.8863057301619874,-0.05852904432679429 L-1.8877141345301696,-0.13756459954521483 L-1.8860542139280887,-0.21637655475551554 L-1.8813286664209552,-0.2948368075688319 L-1.8735451729998407,-0.37281782725978674 L-1.862716385096857,-0.4501928620572586 L-1.8488599040212885,-0.5268361451690188 L-1.8319982523501,-0.6026230992053698 L-1.8121588373193322,-0.6774305386695054 L-1.7893739062758804,-0.7511368701854637 L-1.7636804942620667,-0.8236222901382175 L-1.7351203638182107,-0.8947689794046514 L-1.703739937101032,-0.9644612948589134 L-1.6695902204282307,-1.0325859573408658 L-1.6327267213718903,-1.0990322357820905 L-1.5932093585354563,-1.1636921271901888 L-1.5511023641609465,-1.2264605321988147 L-1.506474179724694,-1.2872354258981007 L-1.459397344691324,-1.3459180236678054 L-1.4099483786067837,-1.4024129417436384 L-1.3582076567220795,-1.456628352255768 L-1.3042592793498782,-1.5084761324875153 L-1.2481909351663223,-1.5578720081116264 L-1.1900937586802633,-1.6047356901712964 L-1.130062182101566,-1.6489910055833052 L-1.06819378184927,-1.6905660209511397 L-1.004589119949118,-1.729393159486835 " />
			<path d="M-1.0045891199491033,-1.7293931594868435 L-0.9518528873105564,-1.758793127395014 L-0.8981009599900819,-1.7863163380333156 L-0.843390695114449,-1.8119334221798369 L-0.7877804724247097,-1.8356170445851068 L-0.7313296319808669,-1.8573419331407495 L-0.6740984108418121,-1.8770849058466208 L-0.616147878788103,-1.8948248955476479 L-0.5575398731561676,-1.9105429724139835 " />
			<path d="M20.260583062296778,2.7740822913037526 L20.21789489607027,2.8172062606102406 L20.17377607802478,2.8587574494520718 L20.128273686074827,2.898691519757577 L20.08143627450662,2.9369658590355026 L20.033313822167184,2.973539625845561 L19.98395767913338,3.008373793379154 L19.933420511917717,3.0414311911037495 L19.881756247269458,3.0726765444264785 " />
			<path d="M19.88175624726945,3.072676544426483 L19.82509637183684,3.1041673340397424 L19.767270572699243,3.133492290760029 L19.70834997380432,3.1606153457959367 L19.64840704566964,3.1855031386271513 L19.587515516246164,3.2081250580368605 L19.525750280235155,3.228453279762605 L19.46318730697001,3.2464628007192626 L19.39990354697631,3.2621314697520725 L19.33597683732507,3.275440014881868 L19.271485805895527,3.286372067009019 L19.20650977466528,3.2949141800469177 L19.14112866214672,3.301055847460253 L19.0754228850897,3.304789515187719 L19.00947325957145,3.306110590933283 L18.943360901595266,3.305017449814563 L18.87716712732036,3.3015114363613867 " />
			<path d="M18.877167127320348,3.301511436361386 L-3.552713678800501e-15,1.9582280514217467 " />
			<path d="M29.699166625956952,3.4457239837735725 L29.656478459730444,3.48884795308006 L29.612359641684954,3.530399141921891 L29.566857249735,3.5703332122273963 L29.520019838166792,3.6086075515053224 L29.471897385827358,3.6451813183153807 L29.422541242793553,3.6800154858489735 L29.37200407557789,3.7130728835735693 L29.32033981092963,3.7443182368962984 " />
			<path d="M29.320339810929624,3.7443182368963024 L29.24070929334027,3.787788847378641 L29.158850469461022,3.8269884737545974 L29.074960544368597,3.86182268069075 L28.98924161624043,3.8922075495314736 L28.901900189482475,3.9180698804663305 L28.813146677242,3.9393473688748264 L28.723194894503873,3.955988755423698 L28.63226154299156,3.9679539495551346 L28.54056568911368,3.9752141260684466 L28.44832823621383,3.977751794562497 L28.355771392395088,3.9755608415716104 L28.26311813520124,3.9686465452934474 L28.17059167444433,3.9570255628733615 L28.07841491447269,3.940725890275881 L27.986809917174806,3.9197867948399763 L27.895997367012836,3.8942587206806003 L27.806196039374353,3.864203167164398 L27.717622273523304,3.8296925407523457 L27.63048945141977,3.7908099805662445 L27.545007483664136,3.7476491580992923 L27.461382303804058,3.7003140515532533 L27.37981537222252,3.6489186953458628 L27.300503190802125,3.593586905391926 L27.223636829534836,3.5344519808199344 L27.149401466217647,3.4716563828427893 L27.077975940343034,3.4053513915562625 L27.009532322258977,3.335696741491995 L26.94423549863638,3.262860236803016 L26.882242775242688,3.1870173470088483 L26.823703497978467,3.1083507842740588 L26.768758693090092,3.0270500632386517 L26.71754072742513,2.9433110444607036 L26.670172989549034,2.8573354625711223 L26.626769592491268,2.769330440277251 L26.587435098837034,2.6795079893861264 L26.55226426882684,2.58808450004946 L26.521341832070785,2.4952802194608172 L26.494742283427495,2.4013187212608336 L26.472529703539497,2.3064263669287257 L26.45475760445734,2.2108317604576686 L26.441468800724355,2.1147651976277495 L26.432695306232706,2.0184581112032625 L26.428458257099084,1.9221425133909094 L26.428767860745975,1.8260504369020696 L26.43362337131108,1.7304133759656768 L26.443013091444147,1.635461728638344 L26.45691440048694,1.5414242417552648 L26.475293808968363,1.4485274598590494 L26.498107039283536,1.356995179434085 L26.525299132362427,1.2670479097611982 L26.556804580071066,1.1789023416914792 L26.592547483026365,1.092770825619048 L26.632441733444406,1.008860859910353 L26.6763912225816,0.9273745910224309 L26.724290072269095,0.8485083265143873 L26.776022889982556,0.772452062125291 L26.831465046832847,0.6993890240577976 L26.89048297780796,0.6294952275701773 L26.95293450354281,0.562939052940143 L27.0186691728418,0.49988083982200937 L27.087528625128908,0.44047250097442614 L27.1593469719522,0.3848571562892342 L27.233951196623636,0.33316878800310823 L27.311161571031406,0.2855319179226241 " />
			<path d="M27.31116157103142,0.2855319179226157 L27.363897803669968,0.256131950014445 L27.41764973099044,0.2286087393761429 L27.472359995866075,0.2029916552296216 L27.527970218555815,0.17930803282435148 L27.58442105899966,0.15758314426870834 L27.641652280138715,0.13784017156283745 L27.699602812192424,0.12010018186180993 L27.75821081782436,0.10438210499547451 " />
			<path d="M39.13775018961713,4.117365676243391 L39.09506202339062,4.1604896455498785 L39.05094320534513,4.20204083439171 L39.005440813395175,4.241974904697216 L38.95860340182697,4.280249243975141 L38.910480949487535,4.3168230107852 L38.86112480645373,4.351657178318793 L38.810587639238065,4.384714576043389 L38.758923374589806,4.415959929366118 " />
			<path d="M38.7589233745898,4.415959929366123 L38.67929285700044,4.45943053984846 L38.597434033121196,4.498630166224417 L38.51354410802877,4.5334643731605695 L38.42782517990061,4.563849242001293 L38.34048375314265,4.58971157293615 L38.25173024090217,4.610989061344647 L38.16177845816405,4.627630447893518 L38.07084510665174,4.639595642024954 L37.97914925277385,4.646855818538267 L37.886911799874,4.649393487032317 L37.79435495605526,4.647202534041431 L37.70170169886141,4.640288237763267 L37.609175238104505,4.628667255343181 L37.51699847813286,4.6123675827457005 L37.425393480834984,4.591428487309796 L37.33458093067301,4.56590041315042 L37.24477960303452,4.535844859634218 L37.15620583718348,4.501334233222165 L37.069073015079944,4.462451673036064 L36.98359104732431,4.419290850569112 L36.89996586746423,4.371955744023073 L36.8183989358827,4.320560387815683 L36.7390867544623,4.265228597861746 L36.66222039319501,4.206093673289754 L36.58798502987782,4.143298075312609 L36.51655950400321,4.076993084026082 L36.44811588591915,4.007338433961815 L36.382819062296555,3.934501929272836 L36.32082633890286,3.8586590394786677 L36.262287061638645,3.779992476743878 L36.207342256750266,3.698691755708471 L36.156124291085305,3.6149527369305234 L36.108756553209204,3.528977155040942 L36.06535315615144,3.4409721327470715 L36.02601866249721,3.3511496818559463 L35.99084783248701,3.2597261925192798 L35.959925395730956,3.166921911930637 L35.933325847087666,3.0729604137306534 L35.911113267199674,2.9780680593985456 L35.893341168117516,2.8824734529274885 L35.88005236438453,2.7864068900975694 L35.871278869892876,2.6900998036730823 L35.867041820759255,2.593784205860729 L35.86735142440615,2.4976921293718894 L35.87220693497125,2.4020550684354967 L35.88159665510432,2.307103421108164 L35.89549796414711,2.2130659342250847 L35.913877372628534,2.1201691523288693 L35.93669060294371,2.028636871903905 L35.9638826960226,1.938689602231018 L35.99538814373124,1.850544034161299 L36.03113104668654,1.764412518088868 L36.071025297104576,1.6805025523801729 L36.114974786241774,1.5990162834922508 L36.16287363592927,1.5201500189842072 L36.21460645364273,1.444093754595111 L36.27004861049302,1.3710307165276174 L36.32906654146813,1.3011369200399971 L36.39151806720298,1.2345807454099629 L36.45725273650197,1.1715225322918292 L36.526112188789085,1.112114193444246 L36.59793053561238,1.056498848759054 L36.67253476028381,1.004810480472928 L36.74974513469158,0.957173610392444 " />
			<path d="M36.749745134691594,0.9571736103924355 L36.80248136733014,0.9277736424842646 L36.856233294650615,0.9002504318459623 L36.91094355952625,0.874633347699441 L36.96655378221599,0.8509497252941709 L37.02300462265983,0.8292248367385278 L37.08023584379889,0.8094818640326564 L37.1381863758526,0.7917418743316291 L37.19679438148454,0.7760237974652937 " />
			<path d="M-0.17871305812883787,-2.2091372255367143 L-1.0045891199491033,-1.7293931594868432 " />
			<path d="M20.707632309089718,2.592932478376612 L19.88175624726945,3.072676544426483 " />
			<path d="M30.14621587274989,3.2645741708464313 L29.320339810929624,3.7443182368963024 " />
			<path d="M28.137037632851687,-0.1942121481272553 L27.311161571031423,0.2855319179226159 " />
			<path d="M39.58479943641007,3.9362158633162516 L38.758923374589806,4.415959929366123 " />
			<path d="M37.57562119651186,0.4774295443425641 L36.749745134691594,0.9571736103924353 " />

       </g>

       <!-- solid lines -->
       <g  stroke="rgb(0,0,0)" fill="none">
			<path d="M0.8258760618202654,-5.375314194604238 L38.58021031646097,-2.688747424724959 " />
			<path d="M-8.881784197001252e-16,4.8955701285543665 L-0.19022655204173544,4.878055092138901 L-0.3801439063776524,4.852611176042056 L-0.5694433678775217,4.819279737268941 L-0.7578172457453964,4.778114953347819 L-0.9449593536458365,4.729183734268975 L-1.1305655073847636,4.672565613727995 L-1.3143340193360005,4.608352619850242 L-1.4959661888098326,4.536649125606669 L-1.675166787566557,4.4575716791640865 L-1.8516445396858454,4.37124881444565 L-2.0251125950119366,4.277820842209472 L-2.1952889954051127,4.177439621984964 L-2.361897133041585,4.070268315237588 L-2.52466620001691,3.9564811201632333 L-2.683331628522092,3.836262988543293 L-2.8376355208769186,3.709809325120667 L-2.987327068721554,3.577325669985333 L-3.1321629606850188,3.4390273644857308 L-3.271907777867929,3.2951392012090164 L-3.40633437649667,3.145895058599088 L-3.535224257127019,2.991537520806298 L-3.658367919797137,2.832317483386756 L-3.7755652045526156,2.668493745492115 L-3.8866256167901265,2.5003325892127104 L-3.9913686368908095,2.3281073467578044 L-4.08962401364016,2.1520979561764233 L-4.181232040957463,1.9725905063409428 L-4.266043817484958,1.7898767719330286 L-4.343921488614824,1.604253739187746 L-4.414738470560577,1.41602312316672 L-4.478379656108656,1.2254908773449698 L-4.534741601715791,1.0329666963085573 L-4.5837326956480275,0.8387635123713575 L-4.625273306888102,0.6431969869291709 L-4.659295914569154,0.4465849973779379 L-4.6857452177243735,0.2492471204300153 L-4.704578225174201,0.05150411266837862 L-4.715764325404968,-0.1463226108169855 L-4.719285336325424,-0.34391149886303696 L-4.715135534820222,-0.5409413868887887 L-4.703321666052388,-0.7370920189220795 L-4.6838629324996015,-0.9320445681494673 L-4.656790962742143,-1.1254821551431464 L-4.6221497600532215,-1.3170903629225474 L-4.579995630875249,-1.5065577480134242 L-4.5303970932983315,-1.6935763466737637 L-4.473434765689701,-1.8778421754636592 L-4.409201235655168,-2.0590557253455435 L-4.3378009095455266,-2.2369224485116286 L-4.259349842752579,-2.4111532371472837 L-4.173975551070577,-2.5814648933521642 L-4.081816803429725,-2.747580589455226 L-3.9830233963386403,-2.909230317975472 L-3.9311884627035805,-2.9882980401932526 L-3.8777559104023664,-3.066151330497037 L-3.8227474542023625,-3.142758549632947 L-3.7661854493117355,-3.2180885647452513 L-3.7080928822943857,-3.292110762028635 L-3.6484933617283097,-3.3647950591695133 L-3.587411108611164,-3.436111917571367 L-3.5248709465169594,-3.5060323543590965 L-3.460898291507859,-3.5745279541575528 L-3.395519141805199,-3.6415708806394194 L-3.3287600672239184,-3.7071338878377857 L-3.260648198374695,-3.7711903312187887 L-3.1912112156381784,-3.833714178509849 L-3.1204773379158053,-3.894680020279066 L-3.0484753111617438,-3.954063080261521 L-2.9752343967006585,-4.011839225428241 L-2.9007843593360447,-4.067984975793751 L-2.825155455253915,-4.1224775139582635 L-2.7483784197268233,-4.175294694380559 L-2.670484454623175,-4.226415052377849 L-2.591505215726917,-4.275817812848932 L-2.5114727998727946,-4.323482898717088 " />
			<path d="M0.8258760618202645,4.415826062504495 L0.63564950977853,4.398311026089029 L0.445732155442613,4.3728671099921845 L0.2564326939427437,4.339535671219069 L0.06805881607486897,4.298370887297947 L-0.11908329182557109,4.249439668219104 L-0.3046894455644982,4.192821547678124 L-0.48845795751573506,4.128608553800371 L-0.6700901269895672,4.056905059556797 L-0.8492907257462916,3.9778276131142154 L-1.02576847786558,3.891504748395779 L-1.1992365331916712,3.798076776159601 L-1.3694129335848473,3.6976955559350926 L-1.5360210712213198,3.5905242491877165 L-1.6987901381966446,3.476737054113362 L-1.8574555667018267,3.356518922493422 L-2.011759459056653,3.230065259070796 L-2.1614510069012884,3.097581603935462 L-2.3062868988647534,2.9592832984358597 L-2.4460317160476635,2.8153951351591453 L-2.5804583146764046,2.666150992549217 L-2.7093481953067537,2.511793454756427 L-2.8324918579768714,2.352573417336885 L-2.94968914273235,2.188749679442244 L-3.060749554969861,2.0205885231628393 L-3.165492575070544,1.8483632807079333 L-3.2637479518198944,1.6723538901265522 L-3.3553559791371974,1.4928464402910717 L-3.4401677556646924,1.3101327058831576 L-3.5180454267945587,1.124509673137875 L-3.5888624087403116,0.9362790571168489 L-3.6525035942883903,0.7457468112950987 L-3.708865539895526,0.5532226302586862 L-3.757856633827762,0.35901944632148636 L-3.799397245067836,0.1634529208792998 L-3.8334198527488885,-0.033159068671933245 L-3.859869155904108,-0.23049694561985584 L-3.8787021633539354,-0.4282399533814925 L-3.8898882635847025,-0.6260666768668566 L-3.8934092745051583,-0.823655564912908 L-3.8892594729999566,-1.0206854529386598 L-3.877445604232123,-1.2168360849719506 L-3.857986870679336,-1.4117886341993384 L-3.8309149009218775,-1.6052262211930175 L-3.796273698232956,-1.7968344289724185 L-3.754119569054984,-1.9863018140632953 L-3.704521031478066,-2.1733204127236347 L-3.6475587038694357,-2.3575862415135305 L-3.5833251738349023,-2.5387997913954146 L-3.511924847725261,-2.7166665145614997 L-3.4334737809323137,-2.8908973031971548 L-3.3480994892503118,-3.0612089594020353 L-3.25594074160946,-3.227324655505097 L-3.157147334518375,-3.3889743840253432 L-3.105312400883315,-3.4680421062431237 L-3.051879848582101,-3.545895396546908 L-2.996871392382097,-3.622502615682818 L-2.94030938749147,-3.6978326307951224 L-2.8822168204741203,-3.771854828078506 L-2.8226172999080443,-3.8445391252193843 L-2.7615350467908986,-3.915855983621238 L-2.698994884696694,-3.9857764204089676 L-2.6350222296875936,-4.054272020207424 L-2.5696430799849335,-4.12131494668929 L-2.502884005403653,-4.186877953887657 L-2.4347721365544297,-4.25093439726866 L-2.365335153817913,-4.313458244559721 L-2.29460127609554,-4.374424086328937 L-2.2225992493414783,-4.433807146311392 L-2.149358334880393,-4.491583291478112 L-2.0749082975157793,-4.547729041843622 L-1.9992793934336497,-4.602221580008135 L-1.9225023579065579,-4.655038760430431 L-1.8446083928029098,-4.7061591184277205 L-1.7656291539066515,-4.755561878898804 L-1.6855967380525292,-4.803226964766959 " />
			<path d="M-1.6855967380524928,-4.8032269647669805 L-1.543947049470964,-4.881953938800129 L-1.399382551626971,-4.955266330600846 L-1.2520810543896674,-5.023073968190615 L-1.1022237340529635,-5.085293450268651 L-0.9499949104942711,-5.141848248792924 L-0.7955818204667517,-5.192668803107286 L-0.6391743873038869,-5.237692605498932 L-0.48096498731964243,-5.276864278080955 L-0.32114821319154174,-5.310135640905442 L-0.15992063461768002,-5.33746577122332 L0.002519443457934978,-5.358821053818068 L0.16597222475434337,-5.374175222351405 L0.33023666739688795,-5.383509391670071 L0.4951107311925147,-5.3868120810339795 L0.660391626132975,-5.384079228237179 L0.8258760618202619,-5.375314194604239 " />
			<path d="M40.26580705451345,7.010049668596388 L40.12415736593193,7.088776642629536 L39.979592868087934,7.162089034430254 L39.83229137085063,7.229896672020022 L39.682434050513926,7.292116154098057 L39.53020522695523,7.3486709526223315 L39.375792136927714,7.399491506936693 L39.21938470376485,7.444515309328338 L39.06117530378061,7.4836869819103615 L38.901358529652505,7.516958344734849 L38.74013095107865,7.544288475052728 L38.57769087300303,7.565643757647473 L38.41423809170662,7.580997926180812 L38.24997364906408,7.590332095499479 L38.08509958526845,7.593634784863388 L37.91981869032799,7.590901932066586 L37.75433425464072,7.582136898433648 " />
			<path d="M38.58021031646096,-2.6887474247249594 L38.7704368685027,-2.671232388309493 L38.96035422283862,-2.6457884722126472 L39.14965368433849,-2.612457033439532 L39.33802756220636,-2.57129224951841 L39.5251696701068,-2.5223610304395683 L39.71077582384573,-2.4657429098985872 L39.894544335796965,-2.4015299160208343 L40.076176505270794,-2.329826421777259 L40.255377104027524,-2.2507489753346777 L40.43185485614681,-2.1644261106162395 L40.6053229114729,-2.0709981383800624 L40.77549931186608,-1.9706169181555557 L40.942107449502544,-1.8634456114081805 L41.10487651647787,-1.7496584163338262 L41.263541944983054,-1.629440284713886 L41.41784583733788,-1.5029866212912593 L41.56753738518252,-1.3705029661559243 L41.712373277145986,-1.2322046606563224 L41.852118094328894,-1.0883164973796076 L41.98654469295764,-0.939072354769678 L42.11543457358798,-0.784714816976888 L42.23857823625811,-0.6254947795573451 L42.355775521013584,-0.461671041662703 L42.46683593325109,-0.293509885383302 L42.571578953351775,-0.12128464292839869 L42.669834330101125,0.0547247476529833 L42.761442357418424,0.2342321974884638 L42.84625413394592,0.41694593189637885 L42.92413180507579,0.6025689646416623 L42.99494878702154,0.7907995806626886 L43.05858997256962,0.9813318264844395 L43.11495191817676,1.1738560075208535 L43.16394301210899,1.3680591914580533 L43.20548362334907,1.5636257169002405 L43.23950623103012,1.7602377064514754 L43.26595553418534,1.957575583399394 L43.284788541635166,2.1553185911610258 L43.29597464186593,2.353145314646392 L43.29949565278639,2.5507342026924453 L43.29534585128118,2.7477640907181975 L43.28353198251335,2.9439147227514884 L43.264073248960564,3.1388672719788753 L43.237001279203106,3.332304858972555 L43.20236007651418,3.523913066751957 L43.16020594733621,3.713380451842837 L43.1106074097593,3.900399050503176 L43.053645082150666,4.084664879293071 L42.98941155211613,4.265878429174952 L42.91801122600649,4.443745152341032 L42.83956015921355,4.61797594097669 L42.75418586753154,4.788287597181573 L42.66202711989069,4.954403293284634 L42.5632337127996,5.1160530218048805 L42.511398779164544,5.195120744022661 L42.45796622686333,5.272974034326445 L42.40295777066333,5.349581253462355 L42.3463957657727,5.424911268574659 L42.28830319875535,5.498933465858043 L42.22870367818927,5.571617762998923 L42.16762142507213,5.642934621400778 L42.10508126297792,5.712855058188508 L42.041108607968816,5.781350657986964 L41.97572945826616,5.848393584468831 L41.90897038368488,5.913956591667197 L41.84085851483565,5.978013035048199 L41.77142153209914,6.040536882339257 L41.700687654376765,6.1015027241084745 L41.62868562762271,6.1608857840909295 L41.55544471316163,6.218661929257647 L41.480994675797014,6.274807679623157 L41.40536577171488,6.32930021778767 L41.32858873618778,6.382117398209968 L41.25069477108414,6.433237756207258 L41.17171553218788,6.482640516678341 L41.09168311633374,6.530305602546506 " />
			<path d="M41.09168311633372,6.530305602546517 L40.950033427752196,6.609032576579666 L40.8054689299082,6.682344968380383 L40.6581674326709,6.75015260597015 L40.50831011233419,6.812372088048186 L40.3560812887755,6.86892688657246 L40.20166819874798,6.919747440886821 L40.04526076558512,6.9647712432784665 L39.887051365600875,7.00394291586049 L39.72723459147277,7.037214278684978 L39.566007012898915,7.064544409002856 L39.403566934823296,7.085899691597603 L39.24011415352689,7.101253860130941 L39.07584971088435,7.110588029449607 L38.91097564708872,7.113890718813517 L38.74569475214826,7.111157866016716 L38.580210316460985,7.102392832383776 " />
			<path d="M37.754334254640696,7.582136898433646 L-7.105427357601002e-15,4.8955701285543665 " />
			<path d="M0.0,-1.9582280514217467 L18.87716712732035,-0.6149446664821072 " />
			<path d="M-0.5575398731561667,-1.9105429724139835 L-0.4895726345465781,-1.9260635904502643 L-0.42091782539315714,-1.9388791868066297 L-0.35167186657635197,-1.948971762873814 L-0.2819320092049913,-1.9563271443342076 L-0.21179619803389982,-1.9609350010686941 L-0.14136293390733712,-1.962788861664582 L-0.07073113542144593,-1.96188612250425 L-1.4432899320127035e-15,-1.9582280514217467 " />
			<path d="M18.877167127320348,-0.6149446664821074 L18.94555502510317,-0.6087927746850361 L19.01385313728617,-0.6000780269649544 L19.081971796147887,-0.58881186480313 L19.149821569568854,-0.5750090794003471 L19.217313378445862,-0.5586877922577327 L19.284358613642794,-0.539869431385263 L19.350869252324436,-0.5185787031692055 L19.41675797352052,-0.49484355993541906 L19.48193827276833,-0.4686951632510994 L19.546324575683293,-0.44016784301315615 L19.609832350308512,-0.40929905237692776 L19.67237821809569,-0.3761293185844117 L19.733880063371767,-0.3407021897565641 L19.79425714114753,-0.3030641777195271 L19.853430183126697,-0.2632646969398431 L19.911321501776243,-0.22135599964883323 L19.967855092321372,-0.17739310724130775 L20.022956732531227,-0.13143373803867742 L20.076554080164296,-0.08353823151130424 L20.12857676794564,-0.03376946905958067 L20.17895649595117,0.017807208542261144 L20.22762712127776,0.0711240869312193 L20.27452474488142,0.12611116705684533 L20.319587795469538,0.18269625708210757 L20.362757110337046,0.24080506716313388 L20.40397601304037,0.30036130698340147 L20.443190387807235,0.36128678591432073 L20.48034875058454,0.42350151567071526 L20.515402316631157,0.48692381532642504 L20.54830506456675,0.5514704185521514 L20.5790137967927,0.6170565829347605 L20.607488196205658,0.683596201234518 L20.633690879129357,0.7510019144341885 L20.657587444395183,0.8191852264315749 L20.679146518507004,0.8880566202249243 L20.698339796831053,0.9575256754386597 L20.71514208075672,1.0275011870351376 L20.72953131077948,1.0978912850565816 L20.74148859546253,1.1686035552399794 L20.750998236239138,1.2395451603465917 L20.758047748023063,1.3106229620467795 L20.76262787560009,1.381743643200131 L20.764732605779066,1.4528138303703475 L20.76435917528655,1.5237402164140366 L20.761508074394676,1.5944296829824731 L20.756183046277492,1.6647894227754918 L20.748391082096575,1.7347270613870127 L20.73814241182244,1.8041507785822188 L20.725450490803734,1.872969428847175 L20.710331982101884,1.9410926610526098 L20.692806734614376,2.008431037074763 L20.67289775701538,2.0748961492175626 L20.65063118754798,2.140400736281954 L20.626036259707575,2.204858798130027 L20.599145263861622,2.2681857085934944 L20.56999350485601,2.330298326578313 L20.538619255663782,2.3911151052195647 L20.50506370713703,2.4505561989433016 L20.469370913927964,2.508543568294777 L20.43158773665011,2.5650010823954545 L20.3917637803556,2.6198546188942675 L20.34995132940935,2.6730321612819106 L20.30620527884557,2.7244638934403977 L20.260583062296785,2.7740822913037464 " />
			<path d="M30.20346740371256,2.1492534159034236 L30.201403302899326,2.240656158420722 L30.195215514391343,2.3315652551438766 L30.184917570112336,2.4217818991870765 L30.17053199038543,2.5111087979723825 L30.15209023468397,2.599350604684054 L30.129632632833605,2.6863143454677343 L30.10320829681594,2.771809841440265 L30.07287501336677,2.855650124587248 L30.03869911760366,2.9376518466388286 L30.0007553479593,3.017635680029561 L29.959126682737853,3.0954267100654835 L29.91390415865172,3.1708548174407953 L29.865186671735586,3.243755050267616 L29.81308076107307,3.313967984805247 L29.757700375809033,3.381340074100057 L29.69916662595696,3.4457239837735663 " />
			<path d="M27.75821081782436,0.10438210499547429 L27.864530268203612,0.08135318740867703 L27.972391192274507,0.06492980017662942 L28.081425112086094,0.05516804940195463 L28.191259542461726,0.052101283490983086 L28.301519263494864,0.055739979227857894 L28.411827602387383,0.06607170598340728 L28.52180772025126,0.08306116818105913 L28.631083899477687,0.1066503258747229 L28.739282827275627,0.13675859302671678 L28.846034870994945,0.17328311280837583 L28.950975340877342,0.21609910898285145 L29.05374573592121,0.26506031216969705 L29.153994968604263,0.3199994595350204 L29.25138056427998,0.38072886620014557 L29.34556983115052,0.44704106641672015 L29.4362409968191,0.5187095223178637 L29.52308430753918,0.5954893978241 L29.605803086405164,0.6771183950602311 L29.684114746869568,0.7633176504257566 L29.75775175812426,0.8537926872576582 L29.82646255904777,0.9482344218310272 L29.890012417596495,1.0463202192608068 L29.948184232703827,1.1477149956974422 L30.000779275947785,1.2520723630510835 L30.047617870453436,1.359035812333696 L30.088540004710797,1.4682399315765085 L30.123405879211287,1.5793116541621108 L30.152096384035314,1.691871533306607 L30.17451350575938,1.8055350383378963 L30.190580662292703,1.9199138683417 L30.20024296449941,2.034617278687608 L30.20346740371256,2.1492534159034165 " />
			<path d="M39.64205096737273,2.820895108373243 L39.6399868665595,2.9122978508905417 L39.63379907805152,3.0032069476136964 L39.623501133772514,3.0934235916568964 L39.6091155540456,3.1827504904422024 L39.59067379834415,3.2709922971538736 L39.56821619649378,3.357956037937554 L39.54179186047612,3.4434515339100855 L39.51145857702694,3.527291817057067 L39.47728268126383,3.6092935391086467 L39.43933891161947,3.6892773724993795 L39.39771024639803,3.7670684025353016 L39.3524877223119,3.842496509910614 L39.30377023539576,3.915396742737435 L39.25166432473325,3.9856096772750655 L39.19628393946921,4.052981766569876 L39.13775018961714,4.117365676243384 " />
			<path d="M37.19679438148454,0.7760237974652935 L37.30311383186379,0.7529948798784964 L37.41097475593468,0.7365714926464488 L37.52000867574627,0.7268097418717743 L37.6298431061219,0.723742975960803 L37.74010282715504,0.7273816716976782 L37.85041116604756,0.7377133984532274 L37.960391283911434,0.7547028606508794 L38.06966746313786,0.7782920183445432 L38.177866390935804,0.8084002854965373 L38.28461843465512,0.8449248052781966 L38.389558904537516,0.8877408014526722 L38.492329299581385,0.9367020046395176 L38.59257853226444,0.9916411520048409 L38.68996412794016,1.0523705586699663 L38.784153394810694,1.118682758886541 L38.874824560479276,1.1903512147876847 L38.96166787119935,1.2671310902939212 L39.044386650065334,1.348760087530052 L39.12269831052974,1.4349593428955778 L39.19633532178443,1.5254343797274794 L39.26504612270794,1.6198761143008484 L39.32859598125667,1.7179619117306282 L39.386767796364005,1.8193566881672636 L39.43936283960796,1.9237140555209042 L39.48620143411361,2.030677504803516 L39.52712356837097,2.1398816240463283 L39.561989442871464,2.2509533466319307 L39.590679947695484,2.363513225776427 L39.61309706941955,2.477176730807716 L39.62916422595288,2.59155556081152 L39.63882652815958,2.7062589711574274 L39.64205096737273,2.8208951083732363 " />
			<path d="M38.58021031646096,7.102392832383774 L0.8258760618202601,4.415826062504495 " />
			<path d="M0.8258760618202654,-2.437972117471618 L19.703043189140615,-1.0946887325319785 " />
			<path d="M0.825876061820265,1.4784839853718759 L0.7497854410035713,1.4714779708056893 L0.6738184992692046,1.4613004043669515 L0.5980987146692569,1.4479678288577054 L0.522749163522107,1.4315019152892563 L0.44789232036193094,1.411929427657719 L0.37364985886635993,1.3892821794413268 L0.30014245408586493,1.3635969818902258 L0.22748958629633242,1.3349155841927964 L0.15580934679364267,1.3032846056157639 L0.0852182459459273,1.2687554597283885 L0.015831023815490508,1.2313842708339178 L-0.05223953634177936,1.1912317827441146 L-0.11888279139636893,1.1483632600451639 L-0.18399041818649842,1.1028483820154222 L-0.2474565895885712,1.0547611293674461 L-0.3091781465305019,1.004179663998396 L-0.36905476566835627,0.9511862019442621 L-0.4269891224537419,0.8958668797444211 L-0.4828870493269062,0.8383116144337357 L-0.5366576887784023,0.7786139573897641 L-0.5882136410305423,0.7168709422726482 L-0.6374711060985894,0.6531829273048313 L-0.684350020000781,0.5876534321469751 L-0.7287741848957852,0.5203889696352131 L-0.7706713929360582,0.45149887265325056 L-0.8099735436357987,0.3810951164206981 L-0.8466167545627197,0.30929213648650594 L-0.8805414651737176,0.2362066427233404 L-0.9116925336256645,0.16195742962522747 L-0.9400193264039656,0.08666518321681688 L-0.9654758006231969,0.010452284888116725 L-0.9880205788660512,-0.06655738752644835 L-1.0076170164389455,-0.14423866110132816 L-1.0242332609349751,-0.22246527127820265 L-1.037842304007396,-0.301110067098696 L-1.0484220252694842,-0.380045217877865 L-1.0559552282494145,-0.45914242098251973 L-1.060429668341722,-0.5382731103766654 L-1.0618380727099042,-0.6173086655950859 L-1.0601781521078233,-0.6961206208053867 L-1.0554526046006898,-0.774580873618703 L-1.0476691111795753,-0.8525618933096579 L-1.0368403232765917,-0.9299369281071297 L-1.0229838422010231,-1.00658021121889 L-1.0061221905298345,-1.082367165255241 L-0.9862827754990668,-1.1571746047193765 L-0.963497844455615,-1.2308809362353348 L-0.9378044324418013,-1.3033663561880886 L-0.9092443019979453,-1.3745130454545225 L-0.8778638752807666,-1.4442053609087846 L-0.8437141586079653,-1.5123300233907369 L-0.8068506595516249,-1.5787763018319616 L-0.7673332967151909,-1.6434361932400599 L-0.7252263023406811,-1.7062045982486858 L-0.6805981179044287,-1.7669794919479718 L-0.6335212828710586,-1.8256620897176765 L-0.5840723167865183,-1.8821570077935095 L-0.5323315949018141,-1.936372418305639 L-0.47838321752961277,-1.9882201985373864 L-0.4223148733460569,-2.0376160741614977 L-0.36421769685999794,-2.0844797562211674 L-0.30418612028130054,-2.1287350716331765 L-0.24231772002900454,-2.170310087001011 L-0.17871305812885252,-2.2091372255367063 " />
			<path d="M-0.17871305812883787,-2.2091372255367148 L-0.12205318269622645,-2.2406280151499742 L-0.06422738355862911,-2.2699529718702607 L-0.00530678466370782,-2.2970760269061685 L0.0546361434709739,-2.321963819737383 L0.11552767289445076,-2.3445857391470923 L0.17729290890545868,-2.364913960872837 L0.2398558821706046,-2.382923481829495 L0.30313964216430234,-2.3985921508623043 L0.36706635181554265,-2.411900695992099 L0.4315573832450873,-2.42283274811925 L0.4965334144753333,-2.4313748611571495 L0.5619145269938964,-2.4375165285704847 L0.6276203040509143,-2.441250196297951 L0.6935699295691653,-2.4425712720435144 L0.759682287545349,-2.4414781309247946 L0.825876061820264,-2.437972117471618 " />
			<path d="M19.703043189140615,-1.0946887325319785 L19.77913380995731,-1.087682717965792 L19.855100751691676,-1.0775051515270542 L19.930820536291623,-1.0641725760178076 L20.006170087438775,-1.047706662449359 L20.08102693059895,-1.0281341748178219 L20.15526939209452,-1.0054869266014295 L20.228776796875017,-0.9798017290503285 L20.30142966466455,-0.9511203313528986 L20.37310990416724,-0.9194893527758659 L20.443701005014955,-0.8849602068884905 L20.513088227145392,-0.8475890179940195 L20.58115878730266,-0.8074365299042168 L20.64780204235725,-0.764568007205267 L20.71290966914738,-0.7190531291755251 L20.776375840549452,-0.6709658765275492 L20.83809739749138,-0.6203844111584986 L20.897974016629238,-0.5673909491043645 L20.955908373414623,-0.5120716269045238 L21.011806300287788,-0.4545163615938379 L21.065576939739284,-0.3948187045498659 L21.117132891991425,-0.33307568943275 L21.16639035705947,-0.2693876744649326 L21.213269270961664,-0.20385817930707617 L21.257693435856666,-0.1365937167953155 L21.299590643896938,-0.06770361981335415 L21.338892794596678,0.00270013641919864 L21.3755360055236,0.0745031163533908 L21.409460716134596,0.14758861011655677 L21.440611784586544,0.22183782321467005 L21.468938577364845,0.29713006962308075 L21.49439505158408,0.3733429679517811 L21.51693982982693,0.4503526403663467 L21.536536267399825,0.5280339139412267 L21.553152511895856,0.6062605241181016 L21.566761554968277,0.6849053199385954 L21.577341276230364,0.7638404707177626 L21.584874479210296,0.8429376738224155 L21.5893489193026,0.922068363216562 L21.590757323670786,1.0011039184349837 L21.589097403068703,1.0799158736452843 L21.58437185556157,1.1583761264586006 L21.576588362140456,1.2363571461495553 L21.56575957423747,1.3137321809470273 L21.551903093161904,1.390375464058788 L21.535041441490716,1.46616241809514 L21.515202026459946,1.5409698575592756 L21.492417095416496,1.614676189075234 L21.466723683402684,1.6871616090279864 L21.438163552958827,1.7583082982944183 L21.40678312624165,1.8280006137486815 L21.372633409568845,1.8961252762306344 L21.335769910512504,1.962571554671859 L21.296252547676072,2.0272314460799574 L21.254145553301562,2.0899998510885833 L21.20951736886531,2.150774744787869 L21.162440533831937,2.2094573425575748 L21.112991567747397,2.265952260633408 L21.061250845862695,2.320167671145538 L21.007302468490494,2.372015451377285 L20.951234124306936,2.421411327001395 L20.893136947820878,2.4682750090610637 L20.833105371242183,2.5125303244730732 L20.771236970989886,2.554105339840908 L20.707632309089725,2.592932478376608 " />
			<path d="M20.707632309089718,2.5929324783766114 L20.650972433657106,2.6244232679898714 L20.59314663451951,2.6537482247101583 L20.534226035624588,2.6808712797460656 L20.474283107489907,2.70575907257728 L20.41339157806643,2.728380991986989 L20.35162634205542,2.748709213712734 L20.289063368790277,2.766718734669392 L20.22577960879658,2.7823874037022014 L20.161852899145337,2.7956959488319963 L20.097361867715794,2.8066280009591473 L20.03238583648555,2.8151701139970466 L19.967004723966987,2.8213117814103814 L19.901298946909968,2.825045449137848 L19.835349321391718,2.8263665248834116 L19.769236963415533,2.8252733837646917 L19.703043189140626,2.821767370311516 " />
			<path d="M19.703043189140615,2.821767370311515 L0.8258760618202636,1.4784839853718756 " />
			<path d="M31.029343465532826,1.669509349853552 L31.028296180940657,1.6042146496970686 L31.025155489208238,1.5388433513250965 L31.019924875178436,1.473467989300786 L31.01261014262619,1.408161102696227 L31.00321940781879,1.3429951546046817 L30.991763090510222,1.278042451737119 L30.978253902379645,1.213375064192272 L30.9627068329268,1.149064745489231 L30.945139132839962,1.0851828529513066 L30.925570294854992,1.021800268529505 L30.904022032126583,0.9589873201534667 L30.880518254135854,0.8968137036971326 L30.855085040160883,0.8353484056457253 L30.827750610339734,0.7746596265498545 L30.79854529435799,0.7148147053516782 L30.76750149779561,0.6558800446670848 L30.734653666170406,0.5979210371068013 L30.700038246718037,0.5410019927181832 L30.66369364795097,0.48518606762819294 L30.62566019704122,0.43053519396674234 L30.58598009507421,0.37711001114815423 L30.544697370223368,0.3249697985869955 L30.50185782889743,0.2741724099229348 L30.45750900491464,0.2247742088276099 L30.411700106760293,0.17683000646472835 L30.364481962986034,0.13039300067280024 L30.315906965811646,0.08551471693797952 L30.266029012991762,0.042244951222511595 L30.21490344801212,0.000631714712221676 L30.16258699868161,-0.03927881945564593 L30.10913771418838,-0.07744236742513211 L30.054614900689675,-0.11381658375796078 L29.999079055507067,-0.14836110841911143 L29.942591799999928,-0.18103761155943054 L29.88521581119172,-0.211809836045596 L29.82701475222494,-0.24064363769023678 L29.76805320172189,-0.26750702313757846 L29.708396582129655,-0.29237018536256976 L29.648111087128775,-0.315205536744108 L29.587263608186195,-0.335987739675657 L29.525921660333957,-0.35469373467930465 L29.464153307255984,-0.3713027659920529 L29.402027085766118,-0.385796404595959 L29.33961192976116,-0.3981585686665716 L29.276977093733336,-0.4083755414169703 L29.214192075927023,-0.41643598631761347 L29.15132654122501,-0.42233095967510326 L29.088450243849874,-0.4260539205559122 L29.025632949966216,-0.4276007380440594 L28.96294436026966,-0.4269696958246856 L28.90045403264848,-0.4241614940884373 L28.83823130500367,-0.41917924875455315 L28.776345218313168,-0.4120284880135041 L28.714864440025444,-0.4027171461930381 L28.653857187867644,-0.39125555495442077 L28.593391154152673,-0.37765643182865105 L28.533533430669287,-0.36193486610536785 L28.474350434238502,-0.34410830209010146 L28.415907833018966,-0.3241965197484573 L28.35827047364298,-0.30222161275869497 L28.30150230926411,-0.27820796399706915 L28.245666328596155,-0.2521822184831213 L28.190824486022265,-0.22417325381494924 L28.137037632851694,-0.19421214812725962 " />
			<path d="M28.137037632851687,-0.19421214812725562 L28.059827258443903,-0.14657527804676307 L27.985223033772467,-0.09488690976063663 L27.913404686949175,-0.03927156507544427 L27.844545234662068,0.02013677377213763 L27.778810565363077,0.08319498689027016 L27.716359039628227,0.14975116152030465 L27.657341108653117,0.21964495800792472 L27.601898951802823,0.2927079960754191 L27.550166134089363,0.3687642604645158 L27.502267284401867,0.4476305249725594 L27.458317795264673,0.5291167938604813 L27.418423544846636,0.6130267595691763 L27.382680641891334,0.6991582756416074 L27.351175194182694,0.7873038437113273 L27.323983101103803,0.8772511133842149 L27.30116987078863,0.9687833938091774 L27.282790462307208,1.061680175705392 L27.268889153264414,1.1557176625884722 L27.259499433131346,1.2506693099158053 L27.254643922566242,1.3463063708521976 L27.25433431891935,1.4423984473410376 L27.258571368052973,1.538714045153391 L27.267344862544622,1.6350211315778775 L27.280633666277605,1.7310876944077966 L27.298405765359764,1.8266823008788537 L27.320618345247762,1.9215746552109616 L27.34721789389105,2.0155361534109457 L27.378140330647106,2.1083404339995884 L27.4133111606573,2.1997639233362545 L27.452645654311535,2.2895863742273797 L27.4960490513693,2.3775913965212503 L27.5434167892454,2.4635669784108316 L27.59463475491036,2.5473059971887797 L27.649579559798735,2.628606718224187 L27.70811883706295,2.7072732809589763 L27.770111560456648,2.7831161707531447 L27.83540838407924,2.855952675442123 L27.9038520021633,2.925607325506391 L27.97527752803791,2.991912316792918 L28.0495128913551,3.054707914770063 L28.12637925262239,3.1138428393420545 L28.205691434042787,3.1691746292959917 L28.287258365624325,3.2205699855033822 L28.370883545484403,3.267905092049421 L28.456365513240037,3.3110659145163734 L28.543498335343568,3.349948474702474 L28.632072101194616,3.384459101114526 L28.721873428833103,3.414514654630729 L28.812685978995077,3.4400427287901048 L28.904290976292955,3.46098182422601 L28.9964677362646,3.4772814968234904 L29.088994197021506,3.488902479243576 L29.181647454215355,3.4958167755217397 L29.274204298034096,3.498007728512626 L29.366441750933948,3.4954700600185755 L29.458137604811828,3.4882098835052635 L29.549070956324137,3.4762446893738272 L29.639022739062263,3.459603302824956 L29.727776251302743,3.4383258144164603 L29.815117678060698,3.4124634834816026 L29.900836606188864,3.3820786146408786 L29.98472653128129,3.347244407704726 L30.066585355160537,3.30804478132877 L30.146215872749877,3.2645741708464397 " />
			<path d="M30.14621587274989,3.2645741708464318 L30.244999885860434,3.202588010414595 L30.339391868680316,3.1339646555221714 L30.429016089342124,3.058977264762844 L30.513515794287045,2.9779243290838404 L30.592554628339702,2.8911284836282345 L30.66581797358627,2.7989352234701057 L30.733014201726334,2.701711528354635 L30.79387583491349,2.5998444019174216 L30.848160610463896,2.4937393311977356 L30.895652445194628,2.383818672577684 L30.93616229555329,2.2705199705721393 L30.969528910115034,2.15429421616157 L30.995619471451683,2.0356040516005596 L31.01433012481795,1.9149219288478654 L31.025586391550288,1.7927282289484763 L31.029343465532826,1.669509349853557 " />
			<path d="M40.467927029193,2.341151042323372 L40.46687974460083,2.2758563421668887 L40.46373905286841,2.2104850437949164 L40.45850843883861,2.145109681770606 L40.45119370628637,2.0798027951660467 L40.441802971478964,2.0146368470745015 L40.43034665417039,1.9496841442069388 L40.41683746603982,1.885016756662092 L40.40129039658697,1.820706437959051 L40.383722696500136,1.7568245454211264 L40.36415385851517,1.6934419609993248 L40.34260559578676,1.6306290126232865 L40.319101817796025,1.5684553961669525 L40.29366860382106,1.506990098115545 L40.26633417399991,1.4463013190196743 L40.23712885801816,1.386456397821498 L40.20608506145579,1.3275217371369048 L40.17323722983058,1.2695627295766212 L40.13862181037821,1.2126436851880031 L40.102277211611145,1.1568277600980128 L40.064243760701395,1.1021768864365622 L40.02456365873438,1.048751703617974 L39.98328093388354,0.9966114910568153 L39.9404413925576,0.9458141023927547 L39.896092568574815,0.8964159012974298 L39.85028367042047,0.8484716989345482 L39.80306552664621,0.8020346931426201 L39.754490529471816,0.7571564094077994 L39.70461257665194,0.7138866436923315 L39.65348701167229,0.6722734071820415 L39.601170562341785,0.6323628730141739 L39.54772127784855,0.5941993250446878 L39.493198464349845,0.5578251087118591 L39.43766261916724,0.5232805840507084 L39.381175363660105,0.4906040809103893 L39.323799374851895,0.45983185642422386 L39.265598315885114,0.4309980547795831 L39.206636765382065,0.4041346693322414 L39.146980145789826,0.3792715071072501 L39.08669465078895,0.35643615572571186 L39.02584717184637,0.3356539527941629 L38.96450522399413,0.3169479577905152 L38.90273687091616,0.30033892647776694 L38.84061064942629,0.2858452878738609 L38.778195493421336,0.27348312380324824 L38.71556065739351,0.26326615105284956 L38.6527756395872,0.2552057061522064 L38.589910104885185,0.2493107327947166 L38.527033807510044,0.24558777191390768 L38.46421651362639,0.24404095442576046 L38.401527923929834,0.24467199664513428 L38.33903759630865,0.24748019838138258 L38.27681486866385,0.2524624437152667 L38.21492878197334,0.25961320445631575 L38.15344800368562,0.26892454627678175 L38.09244075152782,0.2803861375153991 L38.03197471781285,0.2939852606411688 L37.97211699432946,0.309706826364452 L37.912933997898676,0.3275333903797184 L37.85449139667914,0.34744517272136255 L37.796854037303156,0.3694200797111249 L37.74008587292428,0.3934337284727507 L37.68424989225633,0.4194594739866986 L37.62940804968244,0.4474684386548706 L37.57562119651187,0.47742954434256024 " />
			<path d="M37.57562119651186,0.47742954434256424 L37.49841082210408,0.5250664144230568 L37.423806597432645,0.5767547827091832 L37.35198825060935,0.6323701273943756 L37.28312879832224,0.6917784662419575 L37.217394129023255,0.75483667936009 L37.154942603288404,0.8213928539901245 L37.09592467231329,0.8912866504777446 L37.040482515463,0.964349688545239 L36.98874969774954,1.0404059529343357 L36.94085084806204,1.1192722174423793 L36.89690135892485,1.2007584863303011 L36.85700710850681,1.2846684520389962 L36.82126420555151,1.3707999681114273 L36.78975875784287,1.4589455361811472 L36.76256666476398,1.5488928058540348 L36.7397534344488,1.6404250862789973 L36.72137402596738,1.7333218681752118 L36.707472716924585,1.827359355058292 L36.69808299679152,1.9223110023856251 L36.69322748622642,2.0179480633220175 L36.69291788257952,2.1140401398108573 L36.69715493171314,2.210355737623211 L36.7059284262048,2.3066628240476974 L36.719217229937776,2.4027293868776165 L36.73698932901994,2.4983239933486736 L36.75920190890793,2.5932163476807815 L36.78580145755122,2.6871778458807656 L36.81672389430728,2.779982126469408 L36.851894724317475,2.871405615806075 L36.891229217971706,2.9612280666971995 L36.93463261502947,3.0492330889910706 L36.98200035290557,3.1352086708806515 L37.03321831857053,3.2189476896585996 L37.08816312345891,3.3002484106940067 L37.14670240072313,3.378914973428796 L37.20869512411682,3.4547578632229645 L37.27399194773942,3.5275943679119433 L37.34243556582348,3.597249017976211 L37.41386109169809,3.6635540092627377 L37.488096455015274,3.7263496072398827 L37.564962816282566,3.785484531811875 L37.644274997702965,3.8408163217658116 L37.7258419292845,3.8922116779732017 L37.80946710914458,3.9395467845192407 L37.89494907690021,3.9827076069861933 L37.982081899003745,4.0215901671722944 L38.07065566485479,4.056100793584346 L38.16045699249328,4.086156347100548 L38.25126954265525,4.111684421259925 L38.34287453995313,4.13262351669583 L38.43505129992477,4.14892318929331 L38.52757776068168,4.160544171713395 L38.620231017875525,4.16745846799156 L38.71278786169427,4.169649420982446 L38.80502531459412,4.167111752488395 L38.896721168472006,4.159851575975083 L38.98765451998431,4.147886381843647 L39.07760630272244,4.131244995294776 L39.16635981496292,4.10996750688628 L39.253701241720876,4.084105175951422 L39.33942016984904,4.053720307110698 L39.42331009494146,4.018886100174546 L39.50516891882071,3.9796864737985898 L39.58479943641005,3.93621586331626 " />
			<path d="M39.584799436410066,3.936215863316251 L39.683583449520604,3.874229702884415 L39.77797543234049,3.8056063479919917 L39.8675996530023,3.730618957232664 L39.95209935794722,3.6495660215536603 L40.03113819199988,3.562770176098054 L40.104401537246446,3.4705769159399256 L40.17159776538651,3.373353220824455 L40.23245939857367,3.2714860943872415 L40.28674417412407,3.1653810236675555 L40.3342360088548,3.0554603650475034 L40.37474585921347,2.942161663041959 L40.40811247377521,2.82593590863139 L40.43420303511186,2.7072457440703794 L40.45291368847813,2.5865636213176852 L40.46416995521046,2.464369921418296 L40.467927029193,2.341151042323377 " />
			<path d="M1.4448663937151565e-16,4.8955701285543665 L0.8258760618202655,4.415826062504495 " />
			<path d="M37.754334254640696,7.582136898433646 L38.58021031646096,7.102392832383774 " />
			<path d="M-1.7338396724581876e-16,-1.9582280514217467 L0.8258760618202652,-2.437972117471618 " />
			<path d="M18.877167127320348,-0.6149446664821072 L19.703043189140615,-1.0946887325319783 " />
			<path d="M-1.6855967380524932,-4.80322696476698 L-2.5114727998727586,-4.323482898717108 " />
			<path d="M41.09168311633372,6.530305602546515 L40.26580705451345,7.010049668596387 " />

       </g>
    </g>
    <g transform="translate(20,210.0)" stroke="rgb(0,0,255)">
        <line x1="30" y1="-30" x2="75" y2="-33" stroke-width="3" stroke="#000000" />
         <text x="80" y="-30" style="stroke:#000000">X </text>

        <line x1="30" y1="-30" x2="30" y2="-75" stroke-width="3" stroke="#000000" />
         <text x="25" y="-85" style="stroke:#000000">Y </text>

        <line x1="30" y1="-30" x2="58" y2="-15" stroke-width="3" stroke="#000000" />
         <text x="65" y="-5" style="stroke:#000000">Z </text>
        <!--
            <line x1="0" y1="0" x2="12.495107675921624" y2="0" stroke-width="3" />
            <text x="0" y="20" style="stroke:#000000">1  mm </text>
        -->
    </g>
</svg>
