<?xml version="1.0" encoding="UTF-8" standalone="no"?>
<svg
   xmlns:svg="http://www.w3.org/2000/svg"
   xmlns="http://www.w3.org/2000/svg"
   width="800.0"
   height="240.0"

>
    <g transform="scale(10.619431909169462, -10.619431909169462)   translate(23.833399160204404,-17.816839709701785)" stroke-width="0.09416699580102202"  fill="none">
       <!-- hidden lines -->
       <g  stroke="rgb(160,160,160)" fill="none" stroke-dasharray="0.09416699580102202,0.09416699580102202" >
			<path d="M-0.8258760618202653,2.9275291303270548 L-1.6517521236405308,3.4072731963769263 " />
			<path d="M20.410936956415128,4.758618393944062 L20.111048961194065,4.776188212492876 L19.806353718407806,4.789919969362335 " />
			<path d="M19.806353718407795,4.789919969362335 L20.410936956415124,4.438722938384149 " />
			<path d="M-1.6517521236405308,3.407273196376926 L-0.8258760618202653,3.466041844468035 " />
			<path d="M-0.825876061820265,12.718669387435789 L-1.6517521236405304,13.19841345348566 " />
			<path d="M-1.6517521236405308,3.407273196376926 L-1.6517521236405304,13.198413453485658 " />
			<path d="M17.225415003679817,14.003184124284317 L17.225415003679817,14.541696838425299 " />
			<path d="M-1.6517521236405301,13.198413453485658 L17.22541500367982,14.541696838425297 " />
			<path d="M17.225415003679817,2.3027715170393823 L-1.6517521236405344,0.9594881320997428 " />
			<path d="M-1.6517521236405306,0.9594881320997428 L-1.6517521236405306,2.183380664238334 " />
			<path d="M-4.011398014555574,2.0154702411208794 L-1.6517521236405304,2.183380664238334 " />
			<path d="M-4.011398014555574,2.0154702411208794 L-4.011398014555574,3.0546186413443244 " />
			<path d="M19.58506089459486,3.694574472295429 L19.58506089459486,15.933499793681346 " />
			<path d="M17.22541500367982,3.526664049177974 L19.58506089459486,3.694574472295429 " />
			<path d="M17.225415003679817,2.3027715170393823 L17.225415003679817,3.526664049177974 " />
			<path d="M18.051291065500084,14.061952772375427 L17.225415003679817,14.541696838425299 " />
			<path d="M-1.6517521236405306,0.9594881320997429 L-2.0104914432247827,0.9307582835025917 L-2.357275399517966,0.8964936919186232 L-2.690041845876795,0.8568981113313656 L-3.006811990612948,0.8122069963866154 L-3.3057021638541424,0.7626861022642059 L-3.4478823934352976,0.7362054364497705 L-3.5849350187644724,0.7086299043680124 L-3.7166562186133922,0.6800005156588835 L-3.8428501005160887,0.6503598472314903 L-3.9633289920952635,0.6197519799447827 L-4.077913720163943,0.5882224330516052 L-4.186433877187356,0.5558180965036044 L-4.288728074708738,0.5225871612176691 L-4.384644183362202,0.48857904740760805 L-4.474039559115718,0.4538443310876458 L-4.556781255407741,0.4184346688570423 L-4.632746220862004,0.38240272107769346 L-4.701821482286437,0.34580207355896264 L-4.763904312684067,0.3086871578662075 L-4.818902384026039,0.2711131703715198 L-4.866733904559535,0.23313599016706532 L-4.907327740446425,0.19481209596310034 L-4.940623521551725,0.15619848209424836 L-4.966571731224551,0.11735257375895355 L-4.985133779938039,0.07833214161816793 L-4.996282062678717,0.03919521588027148 L-5.0,4.293784040128985e-15 " />
			<path d="M-3.790105190742638,3.1108157381877852 L-3.790105190742638,1.8869232060491934 " />
			<path d="M-3.7901051907426435,1.886923206049192 L-3.568700836408854,1.93590152141349 L-3.332014757216642,1.9818309049761047 L-3.081060479293816,2.024514680065413 L-2.816912627385644,2.0637700682035502 L-2.540702323146713,2.099428971791912 L-2.2536123415043505,2.131338693930879 L-1.9568720458348052,2.159362592291382 L-1.651752123640544,2.1833806642383333 " />
			<path d="M-3.790105190742638,1.8869232060491932 L-4.011398014555574,2.0154702411208794 " />
			<path d="M19.8063537184078,3.5660274372237426 L19.58506089459486,3.694574472295429 " />
			<path d="M19.806353718407795,4.789919969362334 L19.806353718407795,3.5660274372237426 " />
			<path d="M23.877167127320348,1.3432833849396395 L23.874946560396655,1.3735766780313303 L23.86828683199256,1.4038430638091615 L23.85719385745711,1.4340556588590698 L23.841677489867237,1.4641876275453567 L23.821751511276005,1.4942122058468175 L23.797433620471,1.5241027251292631 L23.768745417253818,1.553832635833313 L23.735712383254523,1.583375531056426 L23.69836385929819,1.6127051700082164 L23.656733019343598,1.6417955013182286 L23.61085684101723,1.67062068617546 L23.560776072768757,1.6991551212790854 L23.50653519767717,1.7273734615799936 L23.44818239393973,1.7552506427929393 L23.319351928904542,1.8098828079407465 L23.174742298693882,1.8628575568181436 L23.01486717379715,1.9139867168591516 L22.840294449544214,1.9630886712473603 L22.651644228874087,2.009989004040314 L22.449586619656053,2.0545211197155435 L22.234839354387336,2.0965268349375425 L22.00816524072252,2.13585694044366 L21.770369451890595,2.1723717310530284 L21.522296666624577,2.2059415019158712 L21.26482806876285,2.236447009240449 L20.998878217180067,2.263779893861095 L20.725391797166004,2.287843066142772 L20.44534026479181,2.3085510508549274 L20.159718396183276,2.3258302907896056 L19.869540753958525,2.3396194080453423 L19.575838083381754,2.3498694220487217 L19.279653651034273,2.3565439235391583 L18.98203953900838,2.359619203898892 L18.684052907787475,2.359084339368798 L18.386752241087148,2.3549412298508723 L18.09119358599598,2.347204592159552 L17.798426801771527,2.3359019077458543 L17.50949183061622,2.321073325080016 L17.225415003679824,2.302771517039383 " />
			<path d="M17.225415003679814,3.5266640491779735 L17.537607982049114,3.546573445639977 L17.855537158331327,3.562288911524835 L18.177841110984236,3.573743150794946 L18.503139685001578,3.5808871146392693 L18.830039901948666,3.5836902115078626 L19.1571419249099,3.582140438109594 L19.483045052805345,3.5762444308120807 L19.80635371840778,3.5660274372237435 " />
			<path d="M1.887716712732035,0.13432833849396397 L1.8226308004734249,0.1674106405947657 L1.7435502732203703,0.19920752193976296 L1.6510823310334521,0.22947483812388386 L1.5459369658923396,0.2579801891257955 L1.4289215101998531,0.28450470373337455 L1.300934437881919,0.30884472009159725 L1.1629584656801233,0.3308133494691839 L1.0160530076068628,0.3502419112370049 L0.8613460404996763,0.3669812280401258 L0.7000254431330587,0.3809027712188375 L0.5333298753882285,0.39189964768384056 L0.3625392675128602,0.39988742066811167 L0.18896499249662463,0.4048047580535121 L0.013939797021494463,0.40661390329412567 L-0.16119243170050385,0.40530096532045823 L-0.335086984629313,0.40087602519854265 L-0.5064086559090694,0.3933730587249931 L-0.6738419949125025,0.38284967555234395 L-0.836101406599751,0.3693866768477333 L-0.9919410226385127,0.35308743488133937 L-1.1401642674926025,0.33407709930824414 L-1.2796330460280954,0.31250163623809063 L-1.4092764820923207,0.2885267074707976 L-1.5280991409687117,0.26233639850383944 L-1.6351886725734446,0.23413180507777043 L-1.729722816707496,0.20412948911284898 L-1.8109757165760385,0.17255981589246744 L-1.8783234920983958,0.13966518526090857 L-1.906617075496138,0.12279959520285137 L-1.9312490302152896,0.10569817041673439 L-1.9521720509668299,0.08839375392502195 L-1.9693459554122015,0.07091957859261716 L-1.9827377613328723,0.053309203303658244 L-1.992321749972178,0.0355964485121982 L-1.9980795154277964,0.017815331290545057 L-2.0,1.7175136160515941e-15 " />
			<path d="M-2.0,-8.825871650569188e-17 L-1.9975909124103448,-0.019952083220688793 L-1.9903694533443936,-0.039856100125302586 L-1.9783530199295618,-0.05966410019373245 L-1.9615705608064609,-0.07932836421883765 L-1.940062506389088,-0.09880151926619561 L-1.9138806714644176,-0.11803665279965048 L-1.8830881303660412,-0.13698742569772127 L-1.8477590650225733,-0.15560818388860467 L-1.8079785862468865,-0.17385406833483324 L-1.76384252869671,-0.19168112310262533 L-1.6629392246050905,-0.22590806831760732 L-1.5460209067254738,-0.25795939534077866 L-1.4142135623730954,-0.2875264323718686 L-1.2687865683272903,-0.3143244326812815 L-1.1111404660392044,-0.3380953168767601 L-0.9427934736519957,-0.35861015834901516 L-0.7653668647301807,-0.3756713879601156 L-0.5805693545089265,-0.38911469674228993 L-0.39018064403225733,-0.3988106182831056 L-0.1960342806591209,-0.40466577555779465 L-3.7603915929779083e-16,-0.4066237802010472 L0.19603428065912018,-0.40466577555779465 L0.3901806440322566,-0.39881061828310566 L0.5805693545089259,-0.38911469674229 L0.76536686473018,-0.3756713879601157 L0.9427934736519952,-0.35861015834901516 L1.1111404660392037,-0.3380953168767602 L1.2687865683272899,-0.31432443268128163 L1.4142135623730947,-0.2875264323718688 L1.5460209067254744,-0.25795939534077866 L1.6629392246050905,-0.22590806831760732 L1.7638425286967097,-0.1916811231026255 L1.8079785862468862,-0.17385406833483344 L1.847759065022573,-0.15560818388860487 L1.883088130366041,-0.13698742569772146 L1.9138806714644172,-0.11803665279965087 L1.9400625063890875,-0.0988015192661962 L1.9615705608064606,-0.07932836421883789 L1.978353019929562,-0.059664100193732326 L1.9903694533443939,-0.039856100125302454 L1.9975909124103448,-0.019952083220688664 L2.0,-3.753660232952649e-15 " />
			<path d="M2.0,-4.2521465661995795e-17 L1.9982291686631282,0.017107447613415785 L1.992919810496136,0.03418460082250388 L1.984081327476845,0.05120121886921703 L1.9717293710679553,0.06812716819307053 L1.9558858145009481,0.08493247579259541 L1.9365787140422794,0.10158738230246867 L1.9138422593104656,0.1180623946923299 L1.8877167127320353,0.1343283384939636 " />
			<path d="M11.326300276392208,0.8059700309637837 L11.261214364133599,0.8390523330645855 L11.182133836880544,0.8708492144095827 L11.089665894693626,0.9011165305937037 L10.984520529552514,0.9296218815956152 L10.867505073860027,0.9561463962031943 L10.739518001542093,0.980486412561417 L10.601542029340298,1.0024550419390037 L10.454636571267036,1.0218836037068246 L10.29992960415985,1.0386229205099455 L10.138609006793233,1.0525444636886572 L9.971913439048402,1.0635413401536602 L9.801122831173034,1.0715291131379314 L9.627548556156798,1.0764464505233318 L9.452523360681669,1.0782555957639455 L9.27739113195967,1.076942657790278 L9.10349657903086,1.0725177176683625 L8.932174907751104,1.065014751194813 L8.764741568747672,1.0544913680221637 L8.602482157060424,1.041028369317553 L8.446642541021662,1.0247291273511592 L8.298419296167571,1.005718791778064 L8.158950517632078,0.9841433287079104 L8.029307081567854,0.9601683999406174 L7.910484422691463,0.9339780909736592 L7.80339489108673,0.9057734975475902 L7.708860746952678,0.8757711815826688 L7.6276078470841355,0.8442015083622871 L7.560260071561778,0.8113068777307283 L7.531966488164036,0.7944412876726711 L7.507334533444885,0.7773398628865541 L7.486411512693344,0.7600354463948417 L7.469237608247973,0.742561271062437 L7.4558458023273015,0.724950895773478 L7.446261813687996,0.707238140982018 L7.440504048232378,0.6894570237603648 L7.438583563660174,0.6716416924698214 " />
			<path d="M7.438583563660174,0.6716416924698196 L7.440992651249829,0.651689609249131 L7.448214110315781,0.6317855923445171 L7.460230543730612,0.6119775922760873 L7.477013002853713,0.592313328250982 L7.498521057271086,0.5728401732036241 L7.524702892195757,0.5536050396701693 L7.555495433294133,0.5346542667720985 L7.590824498637601,0.5160335085812151 L7.630604977413288,0.4977876241349865 L7.674741034963464,0.47996056936719445 L7.775644339055083,0.4457336241522124 L7.8925626569347,0.4136822971290411 L8.024370001287078,0.38411526009795116 L8.169796995332884,0.35731725978853823 L8.32744309762097,0.33354637559305966 L8.495790090008178,0.3130315341208046 L8.673216698929993,0.29597030450970413 L8.858014209151248,0.2825269957275298 L9.048402919627916,0.27283107418671415 L9.242549283001052,0.2669759169120251 L9.438583563660174,0.2650179122687725 L9.634617844319294,0.2669759169120251 L9.82876420769243,0.2728310741867141 L10.0191529181691,0.28252699572752976 L10.203950428390353,0.2959703045097041 L10.38137703731217,0.3130315341208046 L10.549724029699378,0.33354637559305955 L10.707370131987464,0.3573172597885381 L10.852797126033268,0.38411526009795094 L10.984604470385648,0.4136822971290411 L11.101522788265264,0.4457336241522124 L11.202426092356884,0.4799605693671942 L11.24656214990706,0.49778762413498634 L11.286342628682746,0.5160335085812149 L11.321671694026215,0.5346542667720983 L11.352464235124591,0.5536050396701688 L11.378646070049262,0.5728401732036236 L11.400154124466635,0.5923133282509818 L11.416936583589736,0.6119775922760874 L11.428953017004568,0.6317855923445173 L11.43617447607052,0.6516896092491311 L11.438583563660174,0.671641692469816 " />
			<path d="M11.438583563660174,0.6716416924698198 L11.436812732323302,0.6887491400832355 L11.43150337415631,0.7058262932923236 L11.42266489113702,0.7228429113390368 L11.410312934728129,0.7397688606628903 L11.394469378161123,0.7565741682624152 L11.375162277702454,0.7732290747722884 L11.35242582297064,0.7897040871621497 L11.32630027639221,0.8059700309637834 " />
			<path d="M20.764883840052384,1.4776117234336035 L20.699797927793774,1.5106940255344052 L20.62071740054072,1.5424909068794024 L20.5282494583538,1.5727582230635233 L20.423104093212686,1.601263574065435 L20.3060886375202,1.627788088673014 L20.17810156520227,1.6521281050312369 L20.04012559300047,1.6740967344088233 L19.893220134927212,1.6935252961766443 L19.738513167820024,1.7102646129797652 L19.577192570453406,1.724186156158477 L19.410497002708578,1.73518303262348 L19.23970639483321,1.7431708056077513 L19.066132119816974,1.7480881429931516 L18.89110692434184,1.7498972882337651 L18.715974695619845,1.7485843502600977 L18.542080142691034,1.744159410138182 L18.37075847141128,1.7366564436646326 L18.203325132407844,1.7261330604919833 L18.041065720720596,1.7126700617873727 L17.885226104681834,1.6963708198209788 L17.737002859827747,1.6773604842478838 L17.597534081292252,1.65578502117773 L17.467890645228028,1.631810092410437 L17.349067986351635,1.6056197834434789 L17.241978454746903,1.57741519001741 L17.14744431061285,1.5474128740524884 L17.06619141074431,1.515843200832107 L16.998843635221952,1.482948570200548 L16.970550051824212,1.4660829801424908 L16.945918097105057,1.4489815553563739 L16.924995076353518,1.4316771388646614 L16.907821171908147,1.4142029635322566 L16.894429365987477,1.3965925882432977 L16.88484537734817,1.3788798334518377 L16.87908761189255,1.3610987162301846 L16.877167127320348,1.3432833849396413 " />
			<path d="M16.877167127320348,1.3432833849396395 L16.879576214910003,1.3233313017189507 L16.886797673975956,1.303427284814337 L16.898814107390788,1.2836192847459071 L16.915596566513887,1.263955020720802 L16.93710462093126,1.244481865673444 L16.96328645585593,1.225246732139989 L16.994078996954308,1.2062959592419182 L17.029408062297776,1.1876752010510347 L17.069188541073462,1.1694293166048062 L17.113324598623638,1.151602261837014 L17.21422790271526,1.1173753166220322 L17.331146220594874,1.085323989598861 L17.462953564947252,1.055756952567771 L17.60838055899306,1.028958952258358 L17.766026661281145,1.0051880680628793 L17.934373653668352,0.9846732265906244 L18.11180026259017,0.9676119969795238 L18.29659777281142,0.9541686881973496 L18.486986483288092,0.9444727666565339 L18.681132846661228,0.9386176093818448 L18.877167127320348,0.9366596047385922 L19.073201407979468,0.9386176093818448 L19.267347771352604,0.9444727666565338 L19.457736481829272,0.9541686881973495 L19.642533992050527,0.9676119969795238 L19.819960600972344,0.9846732265906244 L19.98830759335955,1.0051880680628793 L20.145953695647638,1.0289589522583578 L20.291380689693444,1.0557569525677706 L20.423188034045822,1.085323989598861 L20.540106351925438,1.1173753166220322 L20.641009656017058,1.151602261837014 L20.685145713567234,1.169429316604806 L20.72492619234292,1.1876752010510345 L20.76025525768639,1.206295959241918 L20.791047798784767,1.2252467321399887 L20.817229633709434,1.2444818656734433 L20.83873768812681,1.2639550207208017 L20.85552014724991,1.2836192847459071 L20.86753658066474,1.3034272848143371 L20.874758039730693,1.3233313017189507 L20.877167127320348,1.3432833849396357 " />
			<path d="M20.877167127320348,1.3432833849396395 L20.875396295983478,1.3603908325530554 L20.870086937816485,1.3774679857621435 L20.86124845479719,1.3944846038088565 L20.848896498388303,1.4114105531327101 L20.833052941821297,1.4282158607322348 L20.81374584136263,1.4448707672421082 L20.791009386630815,1.4613457796319693 L20.764883840052384,1.477611723433603 " />
			<path d="M-2.0,2.4477850642771832 L-2.0,5.551115123125783e-17 " />
			<path d="M2.0,2.4477850642771832 L2.0,-5.551115123125783e-17 " />
			<path d="M7.438583563660175,3.119426756747003 L7.438583563660175,0.6716416924698199 " />
			<path d="M11.438583563660174,3.1194267567470026 L11.438583563660174,0.6716416924698196 " />
			<path d="M16.877167127320348,3.7910684492168225 L16.877167127320348,1.3432833849396393 " />
			<path d="M20.87716712732035,3.791068449216823 L20.87716712732035,1.3432833849396395 " />

       </g>

       <!-- solid lines -->
       <g  stroke="rgb(0,0,0)" fill="none">
			<path d="M-3.185521952735309,2.7596187072096 L-0.8258760618202658,2.9275291303270548 " />
			<path d="M-3.790105190742638,3.1108157381877843 L-3.185521952735309,2.7596187072095995 " />
			<path d="M-3.790105190742639,3.110815738187785 L-3.9311411872114594,3.075953957553722 L-4.064426085132041,3.039853605531644 L-4.18969708438361,3.0025858618052172 L-4.306707185986941,2.964224207824366 L-4.41522567911648,2.9248442819206373 L-4.515038595996843,2.8845237301698066 L-4.605949133786745,2.8433420532957743 L-4.6877780426185485,2.801380449917626 L-4.760363979028296,2.758721656448921 L-4.823563824079386,2.715449783964887 L-4.877252965552649,2.671650152359167 L-4.921325543646383,2.6274091221171223 L-4.955694659701954,2.5828139240373815 L-4.969218491260133,2.560410967362204 L-4.980292547543363,2.5379524872373778 L-4.98891136915208,2.5154495554701533 L-4.995070707092984,2.492913265781998 L-4.998767524873752,2.4703547283395033 L-5.0,2.447785064277188 " />
			<path d="M-5.0,2.4477850642771837 L-4.997779433076307,2.417491771185493 L-4.9911197046722116,2.3872253854076613 L-4.9800267301367604,2.357012790357753 L-4.964510362546889,2.3268808216714665 L-4.944584383955656,2.2968562433700055 L-4.920266493150653,2.26696572408756 L-4.891578289933471,2.2372358133835095 L-4.858545255934176,2.2076929181603973 L-4.821196731977843,2.1783632792086065 L-4.779565892023251,2.149272947898594 L-4.733689713696881,2.1204477630413625 L-4.683608945448407,2.0919133279377373 L-4.629368070356823,2.063694987636829 L-4.5710152666193835,2.0358178064238834 L-4.442184801584196,1.9811856412760764 L-4.297575171373534,1.9282108923986794 L-4.137700046476805,1.8770817323576714 L-3.963127322223868,1.827979777969463 L-3.7744771015537397,1.7810794451765086 L-3.5724194923357016,1.736547329501279 L-3.3576722270669896,1.6945416142792802 L-3.13099811340217,1.6552115087731631 L-2.8932023245702454,1.6186967181637943 L-2.6451295393042296,1.5851269473009517 L-2.3876609414425025,1.554621439976374 L-2.1217110898597213,1.527288555355728 L-1.8482246698456604,1.5032253830740507 L-1.5681731374714658,1.4825173983618956 L-1.2825512688629306,1.4652381584272176 L-0.9923736266381823,1.4514490411714807 L-0.6986709560614117,1.441199027168101 L-0.40248652371393157,1.4345245256776642 L-0.10487241168803763,1.4314492453179308 L0.19311421953286728,1.4319841098480244 L0.4904148862331933,1.4361272193659502 L0.7859735413243615,1.4438638570572706 L1.0787403255488142,1.4551665414709678 L1.367675296704124,1.4699951241368066 L1.6517521236404862,1.488296932177437 " />
			<path d="M1.6517521236405308,1.4882969321774406 L20.528919250960882,2.83158031711708 " />
			<path d="M20.528919250960875,2.83158031711708 L20.887658570545128,2.860310165714231 L21.234442526838308,2.8945747572981992 L21.56720897319714,2.934170337885457 L21.883979117933297,2.9788614528302073 L22.182869291174487,3.0283823469526165 L22.325049520755645,3.0548630127670524 L22.46210214608482,3.0824385448488103 L22.59382334593374,3.1110679335579396 L22.720017227836436,3.1407086019853327 L22.84049611941561,3.17131646927204 L22.95508084748429,3.2028460161652177 L23.063601004507703,3.2352503527132184 L23.165895202029084,3.2684812879991534 L23.26181131068255,3.302489401809215 L23.351206686436065,3.337224118129177 L23.43394838272809,3.372633780359781 L23.50991334818235,3.40866572813913 L23.578988609606785,3.44526637565786 L23.641071440004417,3.4823812913506154 L23.696069511346387,3.5199552788453032 L23.743901031879883,3.557932459049757 L23.784494867766774,3.5962563532537226 L23.817790648872073,3.6348699671225746 L23.8437388585449,3.673715875457869 L23.862300907258387,3.712736307598655 L23.873449189999064,3.751873233336551 L23.877167127320348,3.7910684492168136 " />
			<path d="M23.877167127320348,3.791068449216823 L23.873297703737062,3.831053888836274 L23.86169542196275,3.8709774402145047 L23.842378239654497,3.910777310899022 L23.81537605535662,3.950391899866531 L23.780730662224606,3.989759892867114 L23.738495683338954,4.028820357324554 L23.688736488708997,4.067512836645912 L23.631530094095204,4.105777443794397 L23.56696504180656,4.143554953980685 L23.49514126365745,4.180786896329243 L23.41616992629628,4.217415644377762 L23.330173259145123,4.253384505269632 L23.23728436521677,4.288637807501412 L23.13764701510193,4.323120987089486 L23.03141542444553,4.356780672022523 L22.91875401525644,4.389564764869049 L22.79983716142012,4.421422523412256 L22.67484891880804,4.452304639187259 L22.54398274040164,4.482163313799225 L22.407441176871707,4.510952332904269 L22.26543556307666,4.538627137738605 L22.118185690964886,4.56514489408524 L21.808872571347973,4.614546942194505 L21.481416058600956,4.658852743659103 L21.13784267699689,4.697788103956675 L20.780278692987338,4.731112064518215 L20.41093695641514,4.758618393944061 " />
			<path d="M18.051291065500084,4.2708125152666945 L20.410936956415128,4.438722938384149 " />
			<path d="M18.051291065500084,4.270812515266694 L17.225415003679817,4.750556581316565 " />
			<path d="M-0.8258760618202653,3.466041844468035 L17.22541500367982,4.750556581316565 " />
			<path d="M20.764883840052384,3.925396787710787 L20.699797927793774,3.9584790898115885 L20.62071740054072,3.990275971156586 L20.5282494583538,4.020543287340707 L20.423104093212686,4.049048638342619 L20.3060886375202,4.075573152950198 L20.17810156520227,4.0999131693084205 L20.04012559300047,4.121881798686007 L19.893220134927212,4.1413103604538275 L19.738513167820024,4.158049677256948 L19.577192570453406,4.17197122043566 L19.410497002708578,4.182968096900663 L19.23970639483321,4.1909558698849345 L19.066132119816974,4.195873207270335 L18.89110692434184,4.197682352510949 L18.715974695619845,4.196369414537282 L18.542080142691034,4.191944474415366 L18.37075847141128,4.184441507941816 L18.203325132407844,4.173918124769167 L18.041065720720596,4.160455126064556 L17.885226104681834,4.144155884098162 L17.737002859827747,4.125145548525067 L17.597534081292252,4.103570085454914 L17.467890645228028,4.0795951566876205 L17.349067986351635,4.053404847720662 L17.241978454746903,4.025200254294593 L17.14744431061285,3.995197938329672 L17.06619141074431,3.9636282651092904 L16.998843635221952,3.9307336344777317 L16.970550051824212,3.9138680444196745 L16.945918097105057,3.8967666196335573 L16.924995076353518,3.879462203141845 L16.907821171908147,3.8619880278094403 L16.894429365987477,3.8443776525204814 L16.88484537734817,3.826664897729021 L16.87908761189255,3.808883780507368 L16.877167127320348,3.7910684492168247 " />
			<path d="M16.877167127320348,3.791068449216823 L16.879576214910003,3.771116365996134 L16.886797673975956,3.7512123490915203 L16.898814107390788,3.7314043490230904 L16.915596566513887,3.7117400849979854 L16.93710462093126,3.692266929950627 L16.96328645585593,3.6730317964171726 L16.994078996954308,3.654081023519102 L17.029408062297776,3.635460265328218 L17.069188541073462,3.6172143808819897 L17.113324598623638,3.5993873261141975 L17.21422790271526,3.565160380899216 L17.331146220594874,3.533109053876044 L17.462953564947252,3.5035420168449543 L17.60838055899306,3.4767440165355414 L17.766026661281145,3.452973132340063 L17.934373653668352,3.4324582908678076 L18.11180026259017,3.4153970612567073 L18.29659777281142,3.401953752474533 L18.486986483288092,3.3922578309337172 L18.681132846661228,3.3864026736590285 L18.877167127320348,3.384444669015776 L19.073201407979468,3.3864026736590285 L19.267347771352604,3.3922578309337172 L19.457736481829272,3.401953752474533 L19.642533992050527,3.4153970612567073 L19.819960600972344,3.4324582908678076 L19.98830759335955,3.4529731323400625 L20.145953695647638,3.4767440165355414 L20.291380689693444,3.5035420168449543 L20.423188034045822,3.533109053876044 L20.540106351925438,3.565160380899216 L20.641009656017058,3.5993873261141975 L20.685145713567234,3.6172143808819897 L20.72492619234292,3.635460265328218 L20.76025525768639,3.6540810235191015 L20.791047798784767,3.673031796417172 L20.817229633709434,3.6922669299506268 L20.83873768812681,3.711740084997985 L20.85552014724991,3.731404349023091 L20.86753658066474,3.7512123490915203 L20.874758039730693,3.7711163659961344 L20.877167127320348,3.7910684492168194 " />
			<path d="M20.877167127320348,3.791068449216823 L20.875396295983478,3.808175896830239 L20.870086937816485,3.825253050039327 L20.86124845479719,3.84226966808604 L20.848896498388303,3.8591956174098936 L20.833052941821297,3.8760009250094183 L20.81374584136263,3.8926558315192916 L20.791009386630815,3.909130843909153 L20.764883840052384,3.9253967877107865 " />
			<path d="M1.887716712732035,2.582113402771147 L1.8226308004734249,2.6151957048719487 L1.7435502732203703,2.646992586216946 L1.6510823310334521,2.677259902401067 L1.5459369658923396,2.7057652534029786 L1.4289215101998531,2.732289768010558 L1.300934437881919,2.7566297843687804 L1.1629584656801233,2.778598413746367 L1.0160530076068628,2.798026975514188 L0.8613460404996764,2.814766292317309 L0.7000254431330588,2.8286878354960208 L0.5333298753882286,2.8396847119610236 L0.3625392675128603,2.847672484945295 L0.1889649924966247,2.852589822330695 L0.013939797021494555,2.854398967571309 L-0.16119243170050376,2.8530860295976415 L-0.3350869846293129,2.848661089475726 L-0.5064086559090692,2.8411581230021765 L-0.6738419949125024,2.8306347398295273 L-0.8361014065997509,2.8171717411249166 L-0.9919410226385126,2.8008724991585225 L-1.1401642674926025,2.7818621635854273 L-1.2796330460280954,2.760286700515274 L-1.4092764820923207,2.736311771747981 L-1.5280991409687117,2.710121462781023 L-1.6351886725734446,2.6819168693549535 L-1.729722816707496,2.651914553390032 L-1.8109757165760385,2.6203448801696507 L-1.8783234920983958,2.587450249538092 L-1.906617075496138,2.570584659480035 L-1.9312490302152896,2.5534832346939176 L-1.9521720509668299,2.536178818202205 L-1.9693459554122015,2.5187046428698006 L-1.9827377613328723,2.5010942675808416 L-1.992321749972178,2.4833815127893812 L-1.9980795154277964,2.465600395567728 L-2.0,2.447785064277185 " />
			<path d="M-2.0,2.4477850642771832 L-1.9975909124103448,2.4278329810564943 L-1.9903694533443936,2.4079289641518806 L-1.9783530199295618,2.3881209640834506 L-1.9615705608064609,2.3684567000583456 L-1.940062506389088,2.3489835450109875 L-1.9138806714644176,2.329748411477533 L-1.8830881303660412,2.310797638579462 L-1.8477590650225733,2.2921768803885785 L-1.8079785862468865,2.27393099594235 L-1.76384252869671,2.256103941174558 L-1.6629392246050905,2.221876995959576 L-1.5460209067254738,2.1898256689364044 L-1.4142135623730954,2.1602586319053145 L-1.2687865683272903,2.1334606315959017 L-1.1111404660392044,2.1096897474004233 L-0.9427934736519956,2.089174905928168 L-0.7653668647301806,2.0721136763170676 L-0.5805693545089264,2.0586703675348934 L-0.3901806440322572,2.0489744459940775 L-0.19603428065912082,2.0431192887193887 L-2.8434849736583004e-16,2.041161284076136 L0.19603428065912026,2.0431192887193887 L0.3901806440322567,2.0489744459940775 L0.580569354508926,2.0586703675348934 L0.7653668647301801,2.0721136763170676 L0.9427934736519953,2.089174905928168 L1.1111404660392037,2.109689747400423 L1.2687865683272899,2.1334606315959017 L1.4142135623730947,2.1602586319053145 L1.5460209067254744,2.1898256689364044 L1.6629392246050905,2.221876995959576 L1.7638425286967097,2.256103941174558 L1.8079785862468862,2.27393099594235 L1.847759065022573,2.2921768803885785 L1.883088130366041,2.3107976385794617 L1.9138806714644172,2.3297484114775324 L1.9400625063890875,2.348983545010987 L1.9615705608064606,2.368456700058345 L1.978353019929562,2.388120964083451 L1.9903694533443939,2.4079289641518806 L1.9975909124103448,2.4278329810564947 L2.0,2.4477850642771797 " />
			<path d="M2.0,2.4477850642771832 L1.9982291686631282,2.464892511890599 L1.992919810496136,2.481969665099687 L1.984081327476845,2.4989862831464005 L1.9717293710679553,2.515912232470254 L1.9558858145009481,2.5327175400697786 L1.9365787140422794,2.549372446579652 L1.9138422593104656,2.5658474589695133 L1.8877167127320353,2.5821134027711468 " />
			<path d="M11.326300276392208,3.253755095240967 L11.261214364133599,3.2868373973417686 L11.182133836880544,3.318634278686766 L11.089665894693626,3.348901594870887 L10.984520529552514,3.3774069458727984 L10.867505073860027,3.4039314604803774 L10.739518001542093,3.4282714768386002 L10.601542029340298,3.450240106216187 L10.454636571267036,3.469668667984008 L10.29992960415985,3.486407984787129 L10.138609006793233,3.5003295279658406 L9.971913439048402,3.511326404430844 L9.801122831173034,3.5193141774151147 L9.627548556156798,3.5242315148005154 L9.452523360681669,3.526040660041129 L9.27739113195967,3.5247277220674613 L9.10349657903086,3.5203027819455457 L8.932174907751104,3.5127998154719964 L8.764741568747672,3.502276432299347 L8.602482157060424,3.4888134335947365 L8.446642541021662,3.4725141916283424 L8.298419296167571,3.453503856055247 L8.158950517632078,3.431928392985094 L8.029307081567854,3.4079534642178007 L7.910484422691463,3.3817631552508427 L7.80339489108673,3.3535585618247734 L7.708860746952678,3.323556245859852 L7.6276078470841355,3.2919865726394706 L7.560260071561778,3.259091942007912 L7.531966488164036,3.2422263519498546 L7.507334533444885,3.2251249271637374 L7.486411512693344,3.207820510672025 L7.469237608247973,3.1903463353396204 L7.4558458023273015,3.1727359600506615 L7.446261813687996,3.155023205259201 L7.440504048232378,3.137242088037548 L7.438583563660174,3.119426756747005 " />
			<path d="M7.438583563660174,3.119426756747003 L7.440992651249829,3.099474673526314 L7.448214110315781,3.0795706566217005 L7.460230543730612,3.0597626565532705 L7.477013002853713,3.0400983925281655 L7.498521057271086,3.0206252374808074 L7.524702892195757,3.0013901039473527 L7.555495433294133,2.9824393310492816 L7.590824498637601,2.9638185728583983 L7.630604977413288,2.94557268841217 L7.674741034963464,2.9277456336443777 L7.775644339055083,2.893518688429396 L7.8925626569347,2.8614673614062243 L8.024370001287078,2.8319003243751344 L8.169796995332884,2.8051023240657216 L8.32744309762097,2.781331439870243 L8.495790090008178,2.7608165983979878 L8.673216698929993,2.7437553687868874 L8.858014209151248,2.7303120600047133 L9.048402919627916,2.7206161384638974 L9.242549283001052,2.7147609811892086 L9.438583563660174,2.712802976545956 L9.634617844319294,2.7147609811892086 L9.82876420769243,2.7206161384638974 L10.0191529181691,2.7303120600047133 L10.203950428390353,2.7437553687868874 L10.38137703731217,2.7608165983979878 L10.549724029699378,2.781331439870243 L10.707370131987464,2.8051023240657216 L10.852797126033268,2.8319003243751344 L10.984604470385648,2.8614673614062243 L11.101522788265264,2.893518688429396 L11.202426092356884,2.9277456336443777 L11.24656214990706,2.94557268841217 L11.286342628682746,2.9638185728583983 L11.321671694026215,2.9824393310492816 L11.352464235124591,3.0013901039473523 L11.378646070049262,3.020625237480807 L11.400154124466635,3.040098392528165 L11.416936583589736,3.059762656553271 L11.428953017004568,3.0795706566217005 L11.43617447607052,3.0994746735263146 L11.438583563660174,3.1194267567469995 " />
			<path d="M11.438583563660174,3.119426756747003 L11.436812732323302,3.136534204360419 L11.43150337415631,3.153611357569507 L11.42266489113702,3.1706279756162203 L11.410312934728129,3.1875539249400737 L11.394469378161123,3.2043592325395984 L11.375162277702454,3.2210141390494718 L11.35242582297064,3.237489151439333 L11.32630027639221,3.2537550952409666 " />
			<path d="M-0.8258760618202653,2.9275291303270548 L-0.825876061820265,12.718669387435789 " />
			<path d="M17.225415003679817,4.750556581316565 L17.225415003679817,14.003184124284317 " />
			<path d="M-4.011398014555574,3.0546186413443244 L-4.011398014555573,14.254395562506797 " />
			<path d="M-4.011398014555573,14.254395562506796 L19.58506089459486,15.933499793681344 " />
			<path d="M18.051291065500084,4.270812515266694 L18.051291065500084,14.061952772375427 " />
			<path d="M20.410936956415128,4.438722938384149 L20.410936956415128,15.453755727631474 " />
			<path d="M-3.1855219527353085,13.774651496456926 L20.410936956415128,15.453755727631474 " />
			<path d="M-3.185521952735309,2.7596187072096 L-3.1855219527353085,13.774651496456926 " />
			<path d="M-0.825876061820265,12.718669387435789 L18.051291065500088,14.061952772375427 " />
			<path d="M-5.0,-2.2064679126422968e-16 L-4.997779433076307,-0.030293293091691036 L-4.9911197046722116,-0.06055967886952264 L-4.9800267301367604,-0.09077227391943092 L-4.964510362546888,-0.12090424260571764 L-4.944584383955655,-0.15092882090717857 L-4.920266493150653,-0.18081934018962412 L-4.89157828993347,-0.21054925089367393 L-4.8585452559341755,-0.24009214611678664 L-4.821196731977842,-0.2694217850685771 L-4.779565892023251,-0.2985121163785893 L-4.733689713696881,-0.3273373012358207 L-4.683608945448407,-0.355871736339446 L-4.629368070356823,-0.3840900766403541 L-4.5710152666193835,-0.41196725785329974 L-4.442184801584196,-0.46659942300110685 L-4.297575171373534,-0.5195741718785037 L-4.137700046476805,-0.5707033319195117 L-3.963127322223868,-0.6198052863077202 L-3.7744771015537397,-0.6667056191006745 L-3.5724194923357016,-0.7112377347759044 L-3.3576722270669896,-0.753243449997903 L-3.13099811340217,-0.7925735555040202 L-2.8932023245702454,-0.8290883461133889 L-2.6451295393042296,-0.8626581169762316 L-2.3876609414425025,-0.8931636243008092 L-2.1217110898597213,-0.9204965089214552 L-1.8482246698456604,-0.9445596812031325 L-1.5681731374714658,-0.9652676659152877 L-1.2825512688629306,-0.9825469058499656 L-0.9923736266381824,-0.9963360231057025 L-0.6986709560614118,-1.0065860371090822 L-0.4024865237139317,-1.013260538599519 L-0.10487241168803772,-1.0163358189592524 L0.1931142195328672,-1.0158009544291589 L0.4904148862331932,-1.011657844911233 L0.7859735413243614,-1.0039212072199126 L1.0787403255488142,-0.9926185228062153 L1.367675296704124,-0.9777899401403766 L1.6517521236404862,-0.9594881320997461 " />
			<path d="M-3.1855219527353085,13.774651496456926 L-4.011398014555574,14.254395562506797 " />
			<path d="M20.410936956415128,15.453755727631474 L19.58506089459486,15.933499793681346 " />
			<path d="M20.528919250960875,0.38379525283989646 L20.887658570545128,0.4125251014370477 L21.234442526838308,0.4467896930210159 L21.56720897319714,0.48638527360827355 L21.883979117933297,0.531076388553024 L22.182869291174487,0.5805972826754332 L22.325049520755645,0.6070779484898688 L22.46210214608482,0.6346534805716271 L22.59382334593374,0.663282869280756 L22.720017227836436,0.6929235377081495 L22.84049611941561,0.7235314049948567 L22.95508084748429,0.7550609518880342 L23.063601004507703,0.787465288436035 L23.165895202029084,0.8206962237219699 L23.26181131068255,0.8547043375320313 L23.351206686436065,0.8894390538519936 L23.43394838272809,0.9248487160825971 L23.50991334818235,0.9608806638619463 L23.578988609606785,0.9974813113806767 L23.641071440004417,1.034596227073432 L23.696069511346387,1.0721702145681196 L23.743901031879883,1.1101473947725735 L23.784494867766774,1.148471288976539 L23.817790648872073,1.187084902845391 L23.8437388585449,1.2259308111806855 L23.862300907258387,1.2649512433214714 L23.873449189999064,1.304088169059368 L23.877167127320348,1.3432833849396302 " />
			<path d="M1.6517521236405308,-0.9594881320997428 L20.528919250960882,0.3837952528398967 " />
			<path d="M1.6517521236405304,-0.9594881320997428 L1.6517521236405304,1.4882969321774404 " />
			<path d="M20.52891925096088,0.3837952528398968 L20.52891925096088,2.83158031711708 " />
			<path d="M-5.0,2.4477850642771832 L-5.0,1.1102230246251565e-16 " />
			<path d="M23.87716712732035,3.7910684492168225 L23.87716712732035,1.3432833849396393 " />

       </g>
    </g>
    <g transform="translate(20,210.0)" stroke="rgb(0,0,255)">
        <line x1="30" y1="-30" x2="75" y2="-33" stroke-width="3" stroke="#000000" />
         <text x="80" y="-30" style="stroke:#000000">X </text>

        <line x1="30" y1="-30" x2="30" y2="-75" stroke-width="3" stroke="#000000" />
         <text x="25" y="-85" style="stroke:#000000">Y </text>

        <line x1="30" y1="-30" x2="58" y2="-15" stroke-width="3" stroke="#000000" />
         <text x="65" y="-5" style="stroke:#000000">Z </text>
        <!--
            <line x1="0" y1="0" x2="10.619431909169462" y2="0" stroke-width="3" />
            <text x="0" y="20" style="stroke:#000000">1  mm </text>
        -->
    </g>
</svg>
